<?xml version="1.0" encoding="UTF-8" standalone="no"?>
<!-- Created with Inkscape (http://www.inkscape.org/) -->

<svg
   xmlns:dc="http://purl.org/dc/elements/1.1/"
   xmlns:cc="http://creativecommons.org/ns#"
   xmlns:rdf="http://www.w3.org/1999/02/22-rdf-syntax-ns#"
   xmlns:svg="http://www.w3.org/2000/svg"
   xmlns="http://www.w3.org/2000/svg"
   xmlns:sodipodi="http://sodipodi.sourceforge.net/DTD/sodipodi-0.dtd"
   xmlns:inkscape="http://www.inkscape.org/namespaces/inkscape"
   width="210mm"
   height="297mm"
   viewBox="0 0 210 297"
   version="1.1"
   id="svg8"
   inkscape:version="0.92.3 (2405546, 2018-03-11)"
   sodipodi:docname="branding.svg">
  <defs
     id="defs2" />
  <sodipodi:namedview
     id="base"
     pagecolor="#ffffff"
     bordercolor="#666666"
     borderopacity="1.0"
     inkscape:pageopacity="0.0"
     inkscape:pageshadow="2"
     inkscape:zoom="1.1556915"
     inkscape:cx="292.28295"
     inkscape:cy="229.86719"
     inkscape:document-units="mm"
     inkscape:current-layer="layer1"
     showgrid="false" />
  <metadata
     id="metadata5">
    <rdf:RDF>
      <cc:Work
         rdf:about="">
        <dc:format>image/svg+xml</dc:format>
        <dc:type
           rdf:resource="http://purl.org/dc/dcmitype/StillImage" />
        <dc:title></dc:title>
      </cc:Work>
    </rdf:RDF>
  </metadata>
  <g
     inkscape:label="Layer 1"
     inkscape:groupmode="layer"
     id="layer1">
    <path
       style="font-style:normal;font-variant:normal;font-weight:bold;font-stretch:normal;font-size:medium;line-height:1.25;font-family:'Gentium Basic';-inkscape-font-specification:'Gentium Basic Bold';text-align:center;letter-spacing:0px;word-spacing:0px;text-anchor:middle;fill:#000000;fill-opacity:1;stroke:none;stroke-width:0.12344984"
       d="m 20.735858,263.04329 c -0.08358,0.0273 -0.196872,0.056 -0.339931,0.0865 -0.141454,0.0289 -0.300675,0.0523 -0.477492,0.07 v 0.16652 c 0.08519,0.006 0.150126,0.0153 0.195134,0.0265 0.04501,0.01 0.07724,0.0287 0.09653,0.0576 0.0209,0.0273 0.03219,0.0676 0.03379,0.12066 0.0032,0.0514 0.0048,0.12156 0.0048,0.20996 v 0.82673 c -0.0868,-0.0595 -0.167852,-0.0978 -0.243401,-0.11549 -0.07394,-0.0177 -0.148888,-0.0265 -0.224437,-0.0265 -0.171994,0 -0.33041,0.0347 -0.475078,0.10377 -0.14306,0.0691 -0.266822,0.16146 -0.371304,0.27719 -0.102876,0.11413 -0.18312,0.24675 -0.240988,0.39785 -0.05626,0.14949 -0.08446,0.30469 -0.08446,0.46543 0,0.17842 0.02579,0.3381 0.07723,0.47956 0.05144,0.14145 0.118786,0.26119 0.202372,0.35923 0.08359,0.0981 0.177876,0.17381 0.282358,0.22686 0.10609,0.0514 0.212928,0.0772 0.320626,0.0772 0.07394,0 0.142096,-0.008 0.204785,-0.0241 0.06269,-0.0161 0.123938,-0.0411 0.183413,-0.0748 0.05947,-0.0338 0.119571,-0.0773 0.180653,-0.13032 0.06269,-0.053 0.13119,-0.11717 0.205131,-0.19272 0.03215,0.28129 0.105947,0.42198 0.22168,0.42198 0.0225,0 0.05877,-0.009 0.1086,-0.0265 0.04983,-0.0177 0.107049,-0.0419 0.171345,-0.0724 0.0659,-0.0321 0.136477,-0.0692 0.212026,-0.11102 0.07555,-0.0418 0.150152,-0.0874 0.224093,-0.13721 l -0.06723,-0.17617 c -0.0434,0.0193 -0.07967,0.0338 -0.108598,0.0434 -0.02733,0.01 -0.0507,0.0162 -0.06999,0.0193 -0.01768,0.002 -0.03219,0.002 -0.04344,0 -0.01125,-0.003 -0.02173,-0.007 -0.03137,-0.0121 -0.0096,-0.006 -0.01851,-0.0161 -0.02655,-0.029 -0.0064,-0.0129 -0.01207,-0.0314 -0.01689,-0.0555 -0.0032,-0.0241 -0.0065,-0.0556 -0.0097,-0.0941 -0.0016,-0.0386 -0.0024,-0.0858 -0.0024,-0.14204 v -2.92735 z m 7.746729,0 c -0.06269,0.0257 -0.1244,0.0483 -0.185482,0.0676 -0.06108,0.0193 -0.123134,0.0362 -0.185824,0.0507 -0.06269,0.0145 -0.128428,0.0278 -0.197547,0.0407 -0.06912,0.0112 -0.144067,0.0225 -0.224438,0.0338 v 0.16893 c 0.06751,0.008 0.122311,0.0161 0.164105,0.0241 0.04179,0.006 0.07403,0.0201 0.09653,0.041 0.02251,0.0193 0.03782,0.0487 0.04585,0.089 0.008,0.0402 0.01207,0.0966 0.01207,0.16893 v 2.72945 c 0,0.0129 -0.0048,0.0258 -0.01448,0.0386 -0.0096,0.0128 -0.02737,0.0254 -0.05309,0.0383 -0.02572,0.0113 -0.06118,0.0233 -0.106185,0.0362 -0.0434,0.0113 -0.09981,0.0225 -0.168932,0.0338 v 0.17617 h 1.265953 v -0.17617 c -0.0659,-0.0113 -0.121166,-0.0222 -0.166174,-0.0334 -0.0434,-0.0129 -0.07886,-0.0258 -0.106185,-0.0386 -0.02572,-0.0129 -0.04425,-0.0249 -0.05551,-0.0362 -0.01125,-0.0129 -0.01689,-0.0258 -0.01689,-0.0386 v -3.3152 z m -6.454573,0.43129 c -0.05626,0 -0.109105,0.009 -0.158934,0.0265 -0.04822,0.0177 -0.09094,0.0427 -0.127906,0.0748 -0.03537,0.0305 -0.06357,0.0684 -0.08447,0.11342 -0.02089,0.045 -0.03137,0.0946 -0.03137,0.14929 0,0.0466 0.0089,0.0869 0.02655,0.12066 0.01768,0.0322 0.04105,0.0596 0.06998,0.082 0.03054,0.0225 0.066,0.0394 0.106187,0.0507 0.04018,0.01 0.08255,0.0145 0.12756,0.0145 0.05787,0 0.111055,-0.009 0.159279,-0.0265 0.04983,-0.0177 0.09254,-0.0427 0.127906,-0.0748 0.03697,-0.0322 0.06564,-0.0708 0.08653,-0.11584 0.02089,-0.045 0.03137,-0.0946 0.03137,-0.14929 0,-0.0466 -0.0097,-0.0861 -0.02896,-0.11825 -0.01768,-0.0337 -0.04151,-0.0611 -0.07205,-0.082 -0.03054,-0.0225 -0.066,-0.0386 -0.106186,-0.0483 -0.04019,-0.0113 -0.08209,-0.0169 -0.125492,-0.0169 z m -6.560759,0.19548 c -0.104482,0 -0.216962,0.004 -0.337519,0.0121 -0.120556,0.006 -0.241095,0.0169 -0.361652,0.0314 -0.118949,0.0129 -0.23304,0.0282 -0.342345,0.0458 -0.107697,0.0177 -0.200836,0.0362 -0.279599,0.0555 l 0.03137,0.22168 0.330279,-0.0459 v 2.46675 c 0,0.0225 -0.02821,0.0472 -0.08447,0.0745 -0.05465,0.0257 -0.136509,0.0499 -0.245813,0.0724 v 0.17617 h 1.388688 c 0.109304,0 0.220978,-0.0121 0.335105,-0.0362 0.115735,-0.0257 0.227409,-0.0652 0.335106,-0.11825 0.107697,-0.0546 0.209239,-0.12361 0.304077,-0.2072 0.09484,-0.0852 0.1775,-0.188 0.248226,-0.30856 0.07073,-0.12216 0.125989,-0.26204 0.166174,-0.41957 0.04179,-0.15914 0.06275,-0.33931 0.06275,-0.54024 0,-0.23307 -0.03431,-0.44111 -0.103428,-0.62435 -0.06912,-0.18325 -0.169855,-0.33844 -0.301664,-0.46543 -0.131808,-0.12699 -0.293908,-0.22335 -0.486799,-0.28925 -0.19289,-0.0675 -0.412553,-0.10136 -0.658489,-0.10136 z m -6.4014798,0.0724 v 0.17583 c 0.1157343,0.0225 0.1995468,0.0483 0.2509844,0.0772 0.053045,0.0289 0.079295,0.0531 0.079295,0.0724 v 2.38952 c 0,0.0225 -0.027861,0.0472 -0.084121,0.0745 -0.054652,0.0257 -0.1368529,0.0499 -0.2461577,0.0724 v 0.17617 h 2.2543771 c 0.0064,-0.0241 0.01368,-0.0628 0.02172,-0.11584 0.0096,-0.053 0.01851,-0.11314 0.02655,-0.18065 0.0096,-0.0691 0.01851,-0.14165 0.02655,-0.2172 0.0096,-0.0771 0.0177,-0.15014 0.02413,-0.21926 l -0.176172,-0.0627 c -0.03376,0.0948 -0.06645,0.17428 -0.0986,0.23857 -0.03054,0.0643 -0.06519,0.11666 -0.103773,0.15687 -0.03858,0.0386 -0.08371,0.0668 -0.135145,0.0845 -0.04983,0.0177 -0.111539,0.0265 -0.18548,0.0265 h -0.27236 c -0.08841,0 -0.161744,-0.004 -0.219611,-0.0121 -0.05786,-0.008 -0.103456,-0.0193 -0.137214,-0.0338 -0.03375,-0.0161 -0.05793,-0.0346 -0.0724,-0.0555 -0.01286,-0.0225 -0.019306,-0.0483 -0.019306,-0.0772 v -2.24472 c 0,-0.0225 0.028206,-0.0475 0.084466,-0.0748 0.05626,-0.0273 0.138922,-0.0523 0.248226,-0.0748 v -0.17583 z m 2.5174278,0 v 0.17583 c 0.115735,0.0225 0.199202,0.0483 0.25064,0.0772 0.05304,0.0289 0.07964,0.0531 0.07964,0.0724 v 2.38952 c 0,0.0225 -0.02821,0.0472 -0.08447,0.0745 -0.05465,0.0257 -0.136508,0.0499 -0.245813,0.0724 v 0.17617 h 2.278511 c 0.0064,-0.0241 0.01368,-0.0628 0.02172,-0.11584 0.0096,-0.053 0.01897,-0.11314 0.02861,-0.18065 0.0096,-0.0691 0.01851,-0.14165 0.02655,-0.2172 0.008,-0.0771 0.01529,-0.15014 0.02172,-0.21926 l -0.175827,-0.0627 c -0.03375,0.0948 -0.0676,0.17462 -0.101359,0.23892 -0.03215,0.0643 -0.06841,0.11631 -0.108599,0.15652 -0.04019,0.0386 -0.08658,0.0668 -0.139628,0.0845 -0.05144,0.0177 -0.114296,0.0265 -0.188238,0.0265 h -0.238573 c -0.106089,0 -0.191169,-0.003 -0.255466,-0.01 -0.0643,-0.008 -0.114262,-0.0185 -0.149625,-0.0314 -0.03536,-0.0145 -0.05873,-0.0306 -0.06999,-0.0483 -0.01125,-0.0193 -0.01689,-0.0411 -0.01689,-0.0652 v -1.07289 h 0.339933 c 0.06751,0 0.125535,0.002 0.173758,0.007 0.04983,0.005 0.0922,0.0129 0.127561,0.0241 0.03697,0.0113 0.06921,0.0246 0.09653,0.0407 0.02893,0.0161 0.05553,0.0362 0.07964,0.0603 0.01768,-0.0129 0.03622,-0.0311 0.05551,-0.0552 0.0209,-0.0258 0.04104,-0.0532 0.06033,-0.0821 0.0209,-0.029 0.04024,-0.058 0.05792,-0.0869 0.01929,-0.0305 0.03506,-0.0571 0.04792,-0.0796 l -0.07929,-0.0845 H 12.51612 v -0.97636 h 0.810183 c 0.05948,0 0.105412,0.0395 0.137559,0.11825 0.03215,0.0772 0.0523,0.19045 0.06033,0.33994 h 0.180654 c 0.0096,-0.0306 0.01932,-0.0749 0.02896,-0.13274 0.01125,-0.0595 0.02173,-0.12198 0.03137,-0.18789 0.0096,-0.0659 0.0177,-0.13038 0.02413,-0.19307 0.0064,-0.0627 0.01128,-0.11471 0.01448,-0.15651 l -0.09653,-0.0772 z m 3.710638,0.18306 v 6.9e-4 c 0.175209,0 0.329595,0.0287 0.463011,0.0865 0.135024,0.0563 0.247504,0.14088 0.337519,0.2534 0.09162,0.11091 0.160585,0.24837 0.2072,0.41233 0.04661,0.16396 0.06999,0.35265 0.06999,0.56644 0,0.1511 -0.0137,0.28775 -0.04103,0.40992 -0.02733,0.12055 -0.06359,0.2282 -0.108599,0.32303 -0.04501,0.0948 -0.09785,0.17704 -0.158934,0.24616 -0.05947,0.0675 -0.12314,0.12358 -0.190651,0.16859 -0.0659,0.045 -0.133255,0.078 -0.202374,0.0989 -0.06751,0.0209 -0.131983,0.0314 -0.193065,0.0314 -0.06751,0 -0.123579,-0.002 -0.168587,-0.007 -0.0434,-0.005 -0.07886,-0.0121 -0.106185,-0.0217 -0.02733,-0.01 -0.04747,-0.0209 -0.06033,-0.0338 -0.01286,-0.0145 -0.02172,-0.0306 -0.02655,-0.0483 -0.0032,-0.0113 -0.0048,-0.0225 -0.0048,-0.0338 v -2.4471 c 0.03215,-0.002 0.06358,-0.003 0.09412,-0.003 0.03054,-0.002 0.06036,-0.003 0.08929,-0.003 z m 6.821052,0.54024 c -0.109306,0.0402 -0.225814,0.0749 -0.349585,0.10377 -0.123772,0.0273 -0.254788,0.0503 -0.393027,0.0697 v 0.16893 c 0.08519,0.008 0.149321,0.0185 0.192721,0.0314 0.0434,0.0129 0.07403,0.0338 0.09171,0.0627 0.0193,0.0273 0.02977,0.0665 0.03137,0.1179 0.0016,0.0498 0.0024,0.11592 0.0024,0.1979 v 1.2394 c 0,0.0225 -0.02579,0.0472 -0.07723,0.0745 -0.05144,0.0257 -0.131681,0.0499 -0.240988,0.0724 v 0.17617 h 1.217689 v -0.17617 c -0.117341,-0.0225 -0.200348,-0.0475 -0.248571,-0.0748 -0.04822,-0.0289 -0.07205,-0.0528 -0.07205,-0.0721 v -1.99167 z m 1.663806,0 c -0.109305,0 -0.215682,0.0153 -0.318558,0.0459 -0.102875,0.0289 -0.194401,0.0713 -0.274772,0.12756 -0.08037,0.0546 -0.145303,0.12234 -0.195134,0.20271 -0.04822,0.0788 -0.0724,0.16788 -0.0724,0.26754 0,0.0772 0.01692,0.14612 0.05068,0.2072 0.03376,0.0611 0.07693,0.11749 0.129974,0.16893 0.05305,0.0498 0.112681,0.0957 0.178585,0.13756 0.06751,0.0402 0.134862,0.0769 0.202373,0.11066 0.07394,0.0386 0.145666,0.0773 0.214785,0.11584 0.06912,0.037 0.130829,0.0773 0.18548,0.12067 0.05465,0.0434 0.09817,0.0906 0.130319,0.14204 0.03376,0.0514 0.05068,0.10946 0.05068,0.17376 0,0.0964 -0.0282,0.16539 -0.08447,0.2072 -0.05626,0.0418 -0.142145,0.0627 -0.25788,0.0627 -0.06912,0 -0.136007,-0.0129 -0.200303,-0.0386 -0.06269,-0.0273 -0.119564,-0.0649 -0.171003,-0.11308 -0.05144,-0.0482 -0.09576,-0.10705 -0.132731,-0.17617 -0.03697,-0.0691 -0.06356,-0.14614 -0.07964,-0.23133 l -0.195134,-0.0266 c -0.01607,0.0595 -0.02816,0.12844 -0.0362,0.2072 -0.0064,0.0788 -0.01046,0.15452 -0.01207,0.22685 -0.0016,0.0723 5e-6,0.13485 0.0048,0.18789 0.0064,0.0515 0.01529,0.0797 0.02655,0.0845 0.05305,0.0289 0.109918,0.0547 0.171,0.0772 0.06269,0.0225 0.125549,0.041 0.188237,0.0555 0.06269,0.0145 0.123593,0.0249 0.183067,0.0314 0.06108,0.008 0.117495,0.0121 0.168932,0.0121 0.04662,0 0.102222,-0.003 0.166518,-0.01 0.0659,-0.005 0.134061,-0.0161 0.204788,-0.0338 0.07233,-0.0177 0.142907,-0.0435 0.212026,-0.0772 0.06912,-0.0338 0.131173,-0.0789 0.185826,-0.13515 0.05626,-0.0563 0.101387,-0.12441 0.135144,-0.20479 0.03536,-0.082 0.05275,-0.17995 0.05275,-0.29407 v -3.5e-4 c 0,-0.09 -0.01739,-0.16785 -0.05275,-0.23375 -0.03536,-0.0675 -0.0813,-0.12714 -0.137557,-0.17858 -0.05626,-0.053 -0.119927,-0.0994 -0.190652,-0.13963 -0.07073,-0.0402 -0.140495,-0.0781 -0.209613,-0.11343 -0.08519,-0.045 -0.162215,-0.0853 -0.231334,-0.12066 -0.06751,-0.037 -0.125535,-0.0729 -0.173758,-0.10825 -0.04661,-0.0353 -0.08288,-0.0732 -0.1086,-0.11343 -0.02572,-0.0402 -0.03861,-0.0861 -0.03861,-0.13756 0,-0.0675 0.02659,-0.12276 0.07964,-0.16617 0.05305,-0.045 0.127994,-0.0676 0.224439,-0.0676 0.10609,10e-6 0.196811,0.0379 0.27236,0.11343 0.07555,0.0739 0.133573,0.18159 0.173757,0.32304 l 0.166175,0.0193 c 0.01929,-0.0257 0.03944,-0.066 0.06033,-0.12067 0.0209,-0.0546 0.03863,-0.11026 0.05309,-0.16652 0.01607,-0.0579 0.02655,-0.10909 0.03137,-0.1541 0.0064,-0.0466 0.0048,-0.074 -0.0048,-0.0821 -0.03697,-0.0289 -0.08291,-0.0547 -0.137559,-0.0772 -0.05465,-0.0225 -0.113943,-0.0415 -0.178241,-0.0576 -0.0643,-0.0161 -0.13199,-0.0281 -0.202717,-0.0362 -0.06912,-0.01 -0.138082,-0.0145 -0.2072,-0.0145 z m 1.875831,0 c -0.06108,0.0225 -0.118299,0.0419 -0.171344,0.0579 -0.05144,0.0161 -0.105894,0.0314 -0.163762,0.0458 -0.05626,0.0129 -0.118313,0.0246 -0.185824,0.0359 -0.06751,0.0113 -0.14695,0.0225 -0.238572,0.0338 v 0.16893 c 0.07715,0.003 0.136445,0.0105 0.178239,0.0217 0.0434,0.01 0.07483,0.0266 0.09412,0.0507 0.0209,0.0225 0.03379,0.0528 0.03862,0.0914 0.0048,0.0386 0.0072,0.0877 0.0072,0.14721 v 2.49329 c 0,0.0273 -0.02659,0.052 -0.07964,0.0745 -0.05305,0.0241 -0.132484,0.0491 -0.238572,0.0748 v 0.17617 h 1.304222 v -0.17617 c -0.151099,-0.0225 -0.257132,-0.0467 -0.318214,-0.0724 -0.05947,-0.0257 -0.08929,-0.0512 -0.08929,-0.0769 v -1.0322 c 0.07073,0.0498 0.136004,0.0925 0.195479,0.1279 0.05947,0.0337 0.114736,0.0611 0.166173,0.0821 0.05305,0.0225 0.103011,0.0386 0.149626,0.0483 0.04822,0.01 0.09577,0.0145 0.142385,0.0145 0.0659,0 0.134866,-0.0169 0.2072,-0.0507 0.07233,-0.0337 0.143252,-0.0805 0.212371,-0.13997 0.06912,-0.0595 0.134858,-0.12924 0.197546,-0.20961 0.06269,-0.082 0.11749,-0.17063 0.164106,-0.26547 0.04822,-0.0948 0.08575,-0.19362 0.113082,-0.29649 0.02893,-0.10448 0.04344,-0.20971 0.04344,-0.3158 0,-0.18967 -0.02176,-0.35373 -0.06516,-0.49197 -0.0434,-0.13985 -0.101885,-0.25555 -0.175828,-0.34717 -0.07394,-0.0916 -0.160976,-0.15897 -0.260637,-0.20238 -0.09805,-0.045 -0.201668,-0.0676 -0.310972,-0.0676 -0.04662,0 -0.09704,0.006 -0.151693,0.0193 -0.05465,0.0113 -0.115094,0.0322 -0.180999,0.0627 -0.0643,0.0305 -0.13487,0.0713 -0.212026,0.12273 -0.07716,0.0498 -0.160164,0.1143 -0.248572,0.19306 l -0.02172,-0.29649 z m 4.807661,3.5e-4 c -0.133417,0 -0.266044,0.0177 -0.397852,0.0531 -0.130201,0.0354 -0.25074,0.0842 -0.361653,0.14687 -0.11091,0.0611 -0.208079,0.13361 -0.291665,0.2172 -0.08198,0.082 -0.142419,0.17108 -0.180998,0.26753 l 0.05068,0.13032 c 0.01286,0.003 0.03784,0.002 0.07481,-0.003 0.03697,-0.006 0.07888,-0.0145 0.125491,-0.0241 0.04662,-0.0113 0.09462,-0.0242 0.144454,-0.0386 0.05144,-0.0161 0.09818,-0.0314 0.139972,-0.0459 0.04179,-0.0161 0.07645,-0.0314 0.103772,-0.0458 0.02732,-0.0145 0.04021,-0.0262 0.03861,-0.0359 -0.0048,-0.0482 4.75e-4,-0.0909 0.01655,-0.1279 0.01768,-0.0386 0.04106,-0.0708 0.06999,-0.0965 0.02893,-0.0274 0.06278,-0.0483 0.10136,-0.0627 0.03858,-0.0145 0.07726,-0.0217 0.115839,-0.0217 0.06108,0 0.111509,0.009 0.151693,0.0265 0.04019,0.0161 0.07242,0.0394 0.09653,0.07 0.02411,0.0305 0.04104,0.0676 0.05068,0.11101 0.0096,0.0418 0.01448,0.0874 0.01448,0.13722 v 0.28477 c -0.194498,0.0289 -0.356138,0.0592 -0.484732,0.0914 -0.126986,0.0305 -0.233019,0.0628 -0.318211,0.0965 -0.08359,0.0338 -0.150936,0.0692 -0.202373,0.10619 -0.04983,0.0354 -0.09415,0.0721 -0.132733,0.11066 -0.05948,0.0595 -0.10944,0.12798 -0.149624,0.20514 -0.03858,0.0755 -0.05792,0.16788 -0.05792,0.27718 0,0.0932 0.01612,0.17544 0.04827,0.24616 0.03215,0.0691 0.07405,0.1268 0.125493,0.17341 0.05304,0.045 0.111874,0.0789 0.17617,0.10136 0.0659,0.0241 0.132449,0.0362 0.199962,0.0362 0.05144,0 0.108654,-0.006 0.171344,-0.0193 0.06269,-0.0129 0.127621,-0.0338 0.195134,-0.0627 0.06912,-0.0305 0.139691,-0.07 0.212026,-0.11825 0.07394,-0.0498 0.147277,-0.11074 0.219611,-0.18307 0.008,0.12056 0.03221,0.2145 0.0724,0.28201 0.04179,0.0675 0.09222,0.10136 0.151693,0.10136 0.02894,0 0.07004,-0.009 0.12308,-0.0265 0.05465,-0.0177 0.114287,-0.0419 0.178585,-0.0724 0.0659,-0.0321 0.134866,-0.0692 0.207199,-0.11102 0.07394,-0.0418 0.144515,-0.0858 0.212028,-0.13238 l -0.05275,-0.181 c -0.03215,0.0129 -0.05955,0.0241 -0.08205,0.0338 -0.0225,0.008 -0.04265,0.0145 -0.06033,0.0193 -0.01608,0.005 -0.03058,0.008 -0.04344,0.01 -0.01125,0.002 -0.02253,0.003 -0.03379,0.003 -0.02894,0 -0.05231,-0.0145 -0.06999,-0.0434 -0.01768,-0.0289 -0.02655,-0.0773 -0.02655,-0.1448 v -1.16218 c 0,-0.082 -0.01289,-0.15819 -0.03861,-0.22892 -0.02572,-0.0707 -0.06486,-0.13197 -0.117908,-0.18341 -0.05144,-0.053 -0.117519,-0.0938 -0.197891,-0.12273 -0.08037,-0.0289 -0.175927,-0.0434 -0.286839,-0.0434 z m 1.060822,0.072 v 0.17583 c 0.08037,0.0177 0.140814,0.0386 0.180999,0.0627 0.04019,0.0241 0.0692,0.058 0.08688,0.10136 l 0.807425,1.95789 -0.06964,0.16617 c -0.05626,0.13824 -0.119118,0.24185 -0.188238,0.31097 -0.06751,0.0707 -0.130833,0.11666 -0.190306,0.13756 -0.05948,0.0225 -0.130393,0.0273 -0.212373,0.0145 -0.08037,-0.0113 -0.160614,-0.0427 -0.240985,-0.0941 -0.02572,0.0161 -0.05876,0.0451 -0.09895,0.0869 -0.04019,0.0418 -0.07887,0.0861 -0.115838,0.13274 -0.03858,0.0466 -0.07127,0.0898 -0.0986,0.12997 -0.02733,0.0418 -0.04103,0.07 -0.04103,0.0845 0,0.0145 0.01451,0.0314 0.04344,0.0507 0.02733,0.0193 0.06325,0.037 0.108254,0.0531 0.04662,0.0177 0.0998,0.0322 0.15928,0.0434 0.05947,0.0112 0.11957,0.0165 0.180652,0.0165 0.102876,0 0.203612,-0.019 0.301665,-0.0576 0.09805,-0.0386 0.191997,-0.099 0.282011,-0.181 0.09002,-0.082 0.175096,-0.1864 0.255467,-0.31338 0.08037,-0.12699 0.155319,-0.27896 0.224438,-0.45577 l 0.805356,-2.08304 c 0.008,-0.0241 0.01656,-0.0435 0.0262,-0.0579 0.01125,-0.0161 0.02656,-0.0298 0.04585,-0.041 0.01929,-0.0129 0.04427,-0.0241 0.07481,-0.0338 0.03054,-0.01 0.07003,-0.0201 0.118254,-0.0314 v -0.17583 H 33.17957 v 0.17583 c 0.05465,0.01 0.09736,0.0193 0.127906,0.029 0.03054,0.008 0.05115,0.0185 0.0624,0.0314 0.01284,0.0113 0.01768,0.0258 0.01448,0.0434 -0.0016,0.0161 -0.0072,0.0362 -0.01689,0.0603 l -0.472319,1.21045 -0.496797,-1.21045 c -0.01126,-0.0257 -0.01771,-0.0467 -0.01931,-0.0627 -0.0016,-0.0177 0.0048,-0.0322 0.01931,-0.0434 0.01446,-0.0129 0.03864,-0.0233 0.0724,-0.0314 0.03376,-0.01 0.08177,-0.0185 0.144454,-0.0265 v -0.17583 z m -11.78075,0.24582 c 0.107698,0 0.20406,0.0258 0.289252,0.0772 0.0868,0.0514 0.159331,0.12363 0.217199,0.21685 v 1.05393 c -0.09484,0.0868 -0.182335,0.15254 -0.262706,0.19755 -0.07876,0.0434 -0.162577,0.0652 -0.250986,0.0652 -0.0659,0 -0.13164,-0.0186 -0.197546,-0.0555 -0.0659,-0.037 -0.124734,-0.0902 -0.176171,-0.15928 -0.05144,-0.0707 -0.093,-0.1558 -0.125148,-0.25546 -0.03215,-0.10127 -0.04826,-0.21617 -0.04827,-0.34476 2e-6,-0.13985 0.0137,-0.25958 0.04103,-0.35924 0.02893,-0.0997 0.06727,-0.18152 0.115493,-0.24581 0.04983,-0.0659 0.10866,-0.11425 0.176172,-0.1448 0.06751,-0.0306 0.141309,-0.0459 0.22168,-0.0459 z m 6.539038,0.0917 c 0.06912,0 0.136815,0.0169 0.202719,0.0507 0.06751,0.0338 0.127609,0.0858 0.180654,0.15652 0.05304,0.0707 0.09576,0.16179 0.127906,0.27271 0.03215,0.11091 0.04826,0.24319 0.04826,0.3975 0,0.11091 -0.01048,0.20969 -0.03137,0.29649 -0.01929,0.0868 -0.0475,0.16014 -0.08447,0.21962 -0.03697,0.0578 -0.0813,0.10183 -0.132732,0.13238 -0.05144,0.0306 -0.10831,0.0458 -0.171,0.0458 -0.03858,0 -0.07726,-10e-4 -0.115839,-0.004 -0.03858,-0.005 -0.0821,-0.0145 -0.130319,-0.029 -0.04662,-0.0145 -0.101071,-0.0362 -0.163759,-0.0652 -0.06108,-0.0289 -0.134419,-0.0684 -0.219613,-0.11825 v -1.08495 c 0.07073,-0.0579 0.130362,-0.10462 0.178585,-0.13998 0.04983,-0.0353 0.09254,-0.0624 0.127905,-0.0817 0.03697,-0.0193 0.06886,-0.0322 0.09619,-0.0386 0.02894,-0.006 0.05795,-0.01 0.08688,-0.01 z m 4.243636,0.76916 v 0.53265 c -0.06108,0.0514 -0.116688,0.0942 -0.166518,0.12791 -0.04822,0.0321 -0.09301,0.0579 -0.134801,0.0772 -0.04018,0.0177 -0.07726,0.0306 -0.111013,0.0386 -0.03375,0.006 -0.06599,0.01 -0.09653,0.01 -0.0209,0 -0.04427,-0.004 -0.06999,-0.0121 -0.02572,-0.008 -0.05036,-0.0225 -0.07447,-0.0434 -0.02251,-0.0209 -0.04185,-0.0491 -0.05792,-0.0845 -0.01447,-0.0354 -0.02172,-0.0805 -0.02172,-0.13515 0,-0.0675 0.01289,-0.12519 0.03861,-0.17341 0.02572,-0.0482 0.05922,-0.0933 0.101015,-0.13515 0.0209,-0.0209 0.04507,-0.0403 0.0724,-0.0579 0.02893,-0.0177 0.066,-0.0343 0.111011,-0.0503 0.04501,-0.0161 0.100615,-0.0314 0.166519,-0.0459 0.0659,-0.0161 0.146955,-0.0322 0.2434,-0.0483 z m -18.122242,4.19778 c -0.194498,0 -0.361434,0.027 -0.501279,0.0817 -0.139846,0.0546 -0.254743,0.12235 -0.344759,0.20272 -0.08841,0.0804 -0.154491,0.16706 -0.197892,0.26029 -0.04179,0.0916 -0.06275,0.17543 -0.06275,0.25098 0,0.11734 0.02176,0.21854 0.06516,0.30373 0.0434,0.0852 0.100619,0.16061 0.171345,0.22651 0.07233,0.0643 0.153384,0.12152 0.2434,0.17135 0.09162,0.0482 0.184761,0.0946 0.279599,0.13962 0.09644,0.0434 0.189929,0.0877 0.279944,0.13274 0.09162,0.045 0.172673,0.0958 0.2434,0.15203 0.07233,0.0546 0.130358,0.11797 0.173758,0.19031 0.0434,0.0707 0.06481,0.155 0.06481,0.25305 0,0.0772 -0.01577,0.14566 -0.04792,0.20514 -0.03054,0.0578 -0.07164,0.107 -0.123079,0.14721 -0.05144,0.0386 -0.111073,0.068 -0.178585,0.089 -0.06751,0.0209 -0.137279,0.0314 -0.209613,0.0314 -0.08198,0 -0.160956,-0.0153 -0.236504,-0.0459 -0.07555,-0.0322 -0.146123,-0.0761 -0.212027,-0.13239 -0.0659,-0.0563 -0.125196,-0.12396 -0.17824,-0.20272 -0.05305,-0.0788 -0.09818,-0.16546 -0.135146,-0.26029 l -0.171345,-0.0121 c -0.01125,0.0402 -0.02092,0.0866 -0.02896,0.13963 -0.0064,0.0531 -0.01207,0.10704 -0.01689,0.16169 -0.0032,0.0546 -0.0056,0.10945 -0.0072,0.16411 0,0.053 8.12e-4,0.10104 0.0024,0.14445 0.0032,0.0418 0.0072,0.0772 0.01207,0.10618 0.0048,0.0274 0.01127,0.0427 0.01931,0.0459 0.05626,0.037 0.121536,0.07 0.195478,0.0989 0.07555,0.0289 0.151763,0.0528 0.22892,0.0721 0.07876,0.0209 0.155323,0.037 0.229264,0.0483 0.07555,0.0113 0.142093,0.0169 0.19996,0.0169 0.136631,0 0.260393,-0.0142 0.371305,-0.0431 0.112519,-0.0289 0.212911,-0.0676 0.301319,-0.11584 0.09002,-0.0482 0.168188,-0.10463 0.234092,-0.16893 0.0659,-0.0659 0.12036,-0.13486 0.16376,-0.2072 0.0434,-0.0739 0.07564,-0.14889 0.09653,-0.22444 0.02251,-0.0756 0.03379,-0.14934 0.03379,-0.22168 0,-0.11894 -0.02257,-0.22417 -0.06757,-0.3158 -0.0434,-0.0916 -0.10108,-0.17301 -0.173413,-0.24374 -0.07073,-0.0707 -0.152122,-0.13405 -0.243745,-0.19031 -0.09162,-0.0563 -0.185567,-0.10864 -0.282013,-0.15686 -0.09645,-0.0482 -0.190389,-0.0946 -0.282012,-0.13963 -0.09162,-0.045 -0.173824,-0.0926 -0.246158,-0.14238 -0.07073,-0.0514 -0.128406,-0.10624 -0.173414,-0.16411 -0.0434,-0.0595 -0.06516,-0.12682 -0.06516,-0.20237 0,-0.045 0.0081,-0.0893 0.02413,-0.13274 0.01768,-0.045 0.04508,-0.085 0.08205,-0.12032 0.03697,-0.0353 0.08337,-0.0636 0.139627,-0.0845 0.05787,-0.0209 0.127174,-0.0314 0.207545,-0.0314 0.04501,0 0.09302,0.006 0.144454,0.0193 0.05144,0.0129 0.102208,0.0346 0.152038,0.0652 0.05144,0.0305 0.09979,0.0713 0.144799,0.12274 0.04662,0.0498 0.08737,0.11269 0.122734,0.18823 l 0.159279,0.0145 c 0.01286,-0.0113 0.02817,-0.0298 0.04585,-0.0555 0.01768,-0.0257 0.03541,-0.0547 0.05309,-0.0869 0.01768,-0.0322 0.03426,-0.066 0.05034,-0.10136 0.01768,-0.0353 0.03138,-0.068 0.04103,-0.0986 0.01127,-0.0305 0.01852,-0.0571 0.02172,-0.0796 0.0048,-0.0225 0.0032,-0.037 -0.0048,-0.0434 -0.02893,-0.0322 -0.0713,-0.062 -0.127561,-0.0893 -0.05465,-0.0273 -0.118318,-0.0503 -0.190652,-0.0696 -0.07233,-0.0193 -0.15016,-0.0346 -0.233746,-0.0459 -0.08359,-0.0113 -0.16901,-0.0169 -0.255811,-0.0169 z m 12.892596,0 c -0.106088,0 -0.217763,0.004 -0.335104,0.0121 -0.115735,0.006 -0.231784,0.0161 -0.347517,0.029 -0.114127,0.0129 -0.22419,0.0279 -0.33028,0.0455 -0.106088,0.0177 -0.202452,0.037 -0.289252,0.0579 l 0.03137,0.22203 c 0.04822,-0.008 0.0998,-0.0161 0.154452,-0.0241 0.05626,-0.008 0.114744,-0.0161 0.175826,-0.0241 v 2.46882 c 0,0.0225 -0.0282,0.0475 -0.08447,0.0748 -0.05465,0.0257 -0.136507,0.0499 -0.245811,0.0724 v 0.17617 l 1.338007,3.5e-4 v -0.17617 c -0.08359,-0.0145 -0.151741,-0.0278 -0.204785,-0.0407 -0.05305,-0.0128 -0.09495,-0.0258 -0.125493,-0.0386 -0.02893,-0.0128 -0.04908,-0.0249 -0.06033,-0.0362 -0.0096,-0.0113 -0.01414,-0.0217 -0.01414,-0.0314 v -2.52674 c 0.03537,-0.002 0.06887,-0.003 0.101015,-0.003 0.03376,-0.002 0.0668,-0.003 0.09895,-0.003 0.115733,0 0.220961,0.0153 0.315798,0.0459 0.09484,0.0289 0.176232,0.0733 0.243745,0.13273 0.06912,0.0579 0.121964,0.13005 0.158933,0.21685 0.03858,0.0868 0.05792,0.1872 0.05792,0.30132 -2e-6,0.11413 -0.01612,0.2121 -0.04827,0.29408 -0.03215,0.082 -0.07486,0.14968 -0.127906,0.20272 -0.05144,0.0531 -0.110728,0.0926 -0.178241,0.11825 -0.06751,0.0241 -0.136013,0.0362 -0.205131,0.0362 -0.05626,0 -0.10991,-0.004 -0.161347,-0.0121 -0.04983,-0.01 -0.107855,-0.0298 -0.173757,-0.0603 l 0.07481,0.25306 c 0.05465,0.0241 0.117512,0.0426 0.188239,0.0555 0.07073,0.0112 0.142911,0.0169 0.216854,0.0169 0.07072,0 0.144523,-0.009 0.221678,-0.0265 0.07876,-0.0193 0.156131,-0.0475 0.231678,-0.0845 0.07716,-0.037 0.149343,-0.0837 0.216854,-0.13997 0.06912,-0.0563 0.129561,-0.12119 0.180998,-0.19513 0.05304,-0.0739 0.09461,-0.15776 0.125148,-0.25099 0.03054,-0.0932 0.04585,-0.19523 0.04585,-0.30614 0,-0.13824 -0.02947,-0.26039 -0.08895,-0.36648 -0.05948,-0.10609 -0.144094,-0.1952 -0.253398,-0.26753 -0.109305,-0.0724 -0.241127,-0.12715 -0.39544,-0.16411 -0.152704,-0.037 -0.322058,-0.0552 -0.508519,-0.0552 z m -10.871965,0.005 -0.487144,0.35923 v 0.50404 h -0.173414 l -0.188238,0.21444 0.06999,0.0869 h 0.291666 v 1.35249 c 0,0.11252 0.0137,0.21049 0.04103,0.29408 0.02733,0.082 0.06359,0.15048 0.108599,0.20513 0.04661,0.0547 0.10061,0.095 0.161692,0.12067 0.06269,0.0273 0.128428,0.0407 0.197546,0.0407 0.08519,0 0.201703,-0.0351 0.349586,-0.10584 0.147882,-0.0723 0.328863,-0.18562 0.54265,-0.33994 l -0.106186,-0.17617 c -0.06751,0.037 -0.126802,0.0676 -0.17824,0.0917 -0.04983,0.0225 -0.09496,0.0402 -0.135145,0.0531 -0.04019,0.0129 -0.07645,0.0225 -0.108599,0.029 -0.03054,0.005 -0.06036,0.007 -0.08929,0.007 -0.03054,0 -0.05841,-0.007 -0.08412,-0.0217 -0.02411,-0.0161 -0.04587,-0.041 -0.06516,-0.0748 -0.01768,-0.0354 -0.03138,-0.0813 -0.04103,-0.13756 -0.0096,-0.0579 -0.01448,-0.12763 -0.01448,-0.20961 v -1.1284 h 0.161691 c 0.0434,0 0.08496,0.002 0.125148,0.007 0.04179,0.005 0.08128,0.0121 0.118252,0.0217 0.03697,0.008 0.07001,0.0169 0.09895,0.0265 0.03054,0.01 0.05518,0.0193 0.07447,0.029 0.01607,-0.0113 0.03461,-0.0282 0.05551,-0.0507 0.0225,-0.0225 0.04507,-0.0475 0.06757,-0.0748 0.02251,-0.0289 0.04427,-0.058 0.06516,-0.0869 0.0225,-0.0306 0.04104,-0.0596 0.05551,-0.0869 l -0.08688,-0.0865 h -0.73537 v -0.78364 z m -8.1304451,0.10377 c -0.038578,0.0177 -0.089004,0.0386 -0.1516938,0.0627 -0.061082,0.0241 -0.1287772,0.0499 -0.2027182,0.0772 -0.072334,0.0274 -0.1485489,0.0552 -0.2289198,0.0841 -0.080371,0.0273 -0.1581976,0.0531 -0.2337465,0.0772 -0.075548,0.0241 -0.1472726,0.0458 -0.2147845,0.0652 -0.065904,0.0193 -0.1211662,0.0338 -0.1661738,0.0434 l 0.069641,0.19513 c 0.1060896,-0.0225 0.1955435,-0.0386 0.2678777,-0.0483 0.073941,-0.009 0.1348444,-0.0151 0.1830668,-0.0169 0.048223,-0.002 0.084488,7.9e-4 0.1085989,0.007 0.025721,0.006 0.04345,0.0145 0.053093,0.0241 0.019289,0.0225 0.031378,0.0515 0.0362,0.0869 0.00482,0.0354 0.00724,0.085 0.00724,0.14928 v 1.77723 c 0,0.0177 -0.010478,0.0362 -0.031373,0.0555 -0.020896,0.0177 -0.056356,0.0359 -0.1061858,0.0552 -0.04983,0.0193 -0.1163743,0.0386 -0.19996,0.0579 -0.083586,0.0177 -0.1883519,0.0338 -0.3137304,0.0483 v 0.2003 h 1.8327374 v -0.2003 c -0.1205565,-0.0145 -0.2204871,-0.0314 -0.2992507,-0.0507 -0.077156,-0.0193 -0.1380591,-0.0383 -0.1830668,-0.0576 -0.04501,-0.0193 -0.07644,-0.0378 -0.094119,-0.0555 -0.017679,-0.0193 -0.026547,-0.037 -0.026547,-0.0531 v -2.48329 z m -5.1113928,0.0238 c -0.1510976,0 -0.29420121,0.0242 -0.42922457,0.0724 -0.13502337,0.0466 -0.25395049,0.10707 -0.35682528,0.181 -0.10126742,0.0723 -0.18151181,0.15258 -0.24098634,0.24099 -0.05947454,0.0884 -0.08929251,0.17429 -0.08929251,0.25788 l 0.08446588,0.16411 c 0.0369707,-0.003 0.0793383,-0.0105 0.12756073,-0.0217 0.0498302,-0.0113 0.0997955,-0.0242 0.14962529,-0.0386 0.0498302,-0.0145 0.096227,-0.0298 0.13962728,-0.0458 0.0450076,-0.0177 0.0812726,-0.0338 0.108599,-0.0483 -0.009647,-0.0595 -0.009647,-0.11796 0,-0.17582 0.009647,-0.0595 0.0289874,-0.11267 0.0579195,-0.15928 0.0289333,-0.0466 0.0668106,-0.0841 0.11342561,-0.11308 0.0482229,-0.0289 0.10509625,-0.0434 0.17100031,-0.0434 0.067511,0 0.1247296,0.0121 0.1713451,0.0362 0.048224,0.0241 0.086907,0.0576 0.1158389,0.10101 0.030539,0.0434 0.05276,0.095 0.067228,0.15445 0.014468,0.0579 0.02172,0.12039 0.02172,0.1879 0,0.0579 -0.00887,0.11831 -0.026546,0.181 -0.016075,0.0627 -0.043936,0.13326 -0.084121,0.21202 -0.040185,0.0772 -0.094986,0.16581 -0.1641052,0.26547 -0.067511,0.0996 -0.15259133,0.21616 -0.25546613,0.34958 -0.1028748,0.13181 -0.22583155,0.28378 -0.36889184,0.45577 C 0.35293109,272.35909 0.18806837,272.55423 0,272.77445 l 0.06998602,0.17858 H 1.9964978 l 0.0362,-0.85603 -0.1930649,-0.0459 c -0.00804,0.09 -0.021737,0.17026 -0.041026,0.24099 -0.00804,0.0305 -0.018515,0.0603 -0.031373,0.0893 -0.011253,0.0289 -0.02576,0.0547 -0.04344,0.0772 -0.016074,0.0225 -0.03507,0.0411 -0.057575,0.0555 -0.020897,0.0129 -0.045073,0.0193 -0.072399,0.0193 H 0.63159797 c 0.17199408,-0.18967 0.32476835,-0.35937 0.45818433,-0.50886 0.1350229,-0.14949 0.2531446,-0.28454 0.354412,-0.40509 0.1012674,-0.12056 0.1874976,-0.22821 0.2582242,-0.32304 0.070727,-0.0965 0.1276,-0.18475 0.1710003,-0.26512 0.045007,-0.082 0.077243,-0.15854 0.096532,-0.22927 0.020895,-0.0723 0.031373,-0.14451 0.031373,-0.21685 0,-0.10126 -0.019341,-0.18991 -0.057919,-0.26547 -0.038578,-0.0755 -0.094185,-0.13886 -0.1665186,-0.1903 -0.070726,-0.0514 -0.1566121,-0.0901 -0.2578795,-0.11584 -0.1012674,-0.0257 -0.2137475,-0.0386 -0.3375188,-0.0386 z m 2.3943492,0 c -0.1736013,0 -0.3304053,0.0411 -0.4702508,0.12307 -0.1398455,0.0804 -0.2587726,0.19044 -0.3568252,0.33028 -0.098053,0.13824 -0.1738062,0.29988 -0.2268514,0.48473 -0.051437,0.18486 -0.076881,0.38081 -0.076881,0.58816 2e-7,0.20736 0.023832,0.40365 0.072055,0.58851 0.04983,0.18485 0.1215545,0.34649 0.2147845,0.48473 0.093231,0.13823 0.2057103,0.2483 0.3375189,0.33028 0.1318082,0.0804 0.2813591,0.12032 0.4485311,0.12032 0.1671714,0 0.3199462,-0.04 0.4581843,-0.12032 0.138238,-0.082 0.2571653,-0.19205 0.3568253,-0.33028 0.09966,-0.13824 0.1766806,-0.29988 0.2313331,-0.48473 0.05626,-0.18486 0.084466,-0.38115 0.084466,-0.58851 0,-0.20896 -0.024177,-0.40571 -0.072399,-0.59057 -0.046615,-0.18646 -0.1155768,-0.3489 -0.2072,-0.48714 -0.091623,-0.13824 -0.2044475,-0.2475 -0.3378635,-0.32787 -0.133416,-0.0804 -0.28504,-0.12066 -0.4554273,-0.12066 z m 5.0003806,0 c -0.1350231,0 -0.2612034,0.0194 -0.3785452,0.0579 -0.1173416,0.0386 -0.2201506,0.0926 -0.308559,0.16169 -0.0868,0.0675 -0.1557624,0.14856 -0.2072,0.2434 -0.04983,0.0948 -0.074813,0.19765 -0.074813,0.30856 0,0.0964 0.014507,0.18026 0.04344,0.25098 0.028934,0.0707 0.068422,0.13243 0.1182523,0.18548 0.04983,0.0531 0.1067036,0.099 0.1710003,0.13756 0.064297,0.0386 0.1327974,0.0748 0.2051314,0.1086 -0.096445,0.0498 -0.1858992,0.1059 -0.2678775,0.16859 -0.080371,0.0627 -0.1501388,0.12957 -0.2096133,0.2003 -0.057868,0.0707 -0.1029977,0.14533 -0.1351455,0.22409 -0.032148,0.0788 -0.048266,0.15982 -0.048266,0.2434 0,0.0997 0.021759,0.19557 0.065159,0.28719 0.0434,0.09 0.1070659,0.17026 0.1906516,0.24098 0.085193,0.0707 0.1904204,0.12713 0.315799,0.16894 0.1253786,0.0418 0.2700946,0.0624 0.4340512,0.0624 0.1559198,0 0.3014412,-0.0238 0.4364645,-0.0721 0.1350234,-0.0498 0.2523387,-0.11672 0.3519987,-0.2003 0.1012675,-0.0852 0.1798999,-0.18317 0.2361598,-0.29408 0.057867,-0.11091 0.086879,-0.22903 0.086879,-0.35441 0,-0.11734 -0.017729,-0.22015 -0.053093,-0.30856 -0.035363,-0.0884 -0.082911,-0.16577 -0.1423854,-0.23168 -0.059475,-0.0659 -0.1276304,-0.12278 -0.2047867,-0.171 -0.077156,-0.0482 -0.1577453,-0.0918 -0.2413312,-0.13032 0.073942,-0.0482 0.1424423,-0.0966 0.2051316,-0.1448 0.064297,-0.0498 0.119903,-0.10106 0.1665184,-0.15411 0.046617,-0.053 0.082538,-0.10865 0.1082542,-0.16651 0.027326,-0.0579 0.041026,-0.11797 0.041026,-0.18066 0,-0.0932 -0.018537,-0.17946 -0.055506,-0.25822 -0.036971,-0.0788 -0.093038,-0.14612 -0.168587,-0.20238 -0.073941,-0.0563 -0.168231,-0.10057 -0.2823574,-0.13273 -0.1125195,-0.0322 -0.2451465,-0.0483 -0.3978515,-0.0483 z m -0.086534,0.27994 c 0.051438,0 0.1002522,0.007 0.1468672,0.0217 0.048223,0.0129 0.090129,0.0359 0.1254922,0.0696 0.036969,0.0337 0.066787,0.0789 0.089293,0.13515 0.022505,0.0562 0.033786,0.12637 0.033786,0.20995 0,0.15271 -0.070113,0.30192 -0.2099582,0.44819 -0.070727,-0.0305 -0.1372706,-0.0608 -0.1999599,-0.0914 -0.062689,-0.0306 -0.1182957,-0.0644 -0.1665186,-0.10136 -0.046615,-0.037 -0.083686,-0.0781 -0.1110123,-0.12308 -0.027326,-0.0466 -0.040681,-0.10026 -0.040681,-0.16134 0,-0.0547 0.00725,-0.10624 0.02172,-0.15446 0.014468,-0.0498 0.035075,-0.0934 0.062401,-0.13032 0.028932,-0.037 0.064391,-0.0664 0.1061856,-0.0889 0.041793,-0.0225 0.089341,-0.0338 0.1423854,-0.0338 z m -4.9717654,0.0338 c 0.072334,0 0.1388781,0.0263 0.19996,0.0793 0.061082,0.0531 0.1142709,0.13364 0.1592786,0.24133 0.045008,0.1077 0.079661,0.24355 0.1037722,0.40751 0.025721,0.16235 0.038268,0.35346 0.038268,0.57368 0,0.20414 -0.00933,0.37787 -0.028615,0.52093 -0.017683,0.14145 -0.045084,0.25715 -0.082053,0.34717 -0.035363,0.0884 -0.081299,0.15251 -0.1375588,0.19272 -0.05626,0.0402 -0.1211923,0.0603 -0.1951335,0.0603 -0.1607419,0 -0.2845041,-0.10845 -0.371305,-0.32545 -0.085193,-0.217 -0.1279054,-0.54638 -0.1279054,-0.98842 -2e-7,-0.20093 0.00887,-0.37144 0.026546,-0.51128 0.019291,-0.14145 0.047497,-0.25635 0.084466,-0.34476 0.036971,-0.0884 0.082562,-0.15251 0.1372141,-0.19272 0.054652,-0.0402 0.1191233,-0.0603 0.1930648,-0.0603 z m 26.6695005,0.34924 c -0.05787,0.0209 -0.11428,0.0403 -0.168931,0.0579 -0.05465,0.0161 -0.112332,0.0314 -0.173415,0.0459 -0.05947,0.0145 -0.12314,0.0274 -0.19065,0.0386 -0.06751,0.0113 -0.14292,0.0217 -0.226508,0.0314 v 0.16893 c 0.07716,0.01 0.137254,0.0193 0.180654,0.029 0.0434,0.01 0.07483,0.0246 0.09412,0.0455 0.02091,0.0193 0.033,0.0475 0.0362,0.0845 0.0048,0.037 0.0072,0.0878 0.0072,0.15204 v 1.33801 c 0,0.0273 -0.02659,0.0523 -0.07964,0.0748 -0.05305,0.0209 -0.132484,0.0451 -0.238574,0.0724 v 0.17583 h 1.198383 v -0.17583 c -0.104484,-0.0225 -0.181043,-0.0467 -0.229265,-0.0724 -0.04822,-0.0257 -0.0724,-0.0507 -0.0724,-0.0748 v -1.27526 c 0.118949,-0.10449 0.225326,-0.18105 0.318557,-0.22927 0.09323,-0.0482 0.175894,-0.0724 0.248226,-0.0724 0.04501,0 0.08208,0.005 0.111013,0.0145 0.03054,0.01 0.05438,0.0298 0.07205,0.0603 0.01929,0.0305 0.03299,0.0757 0.04103,0.13514 0.008,0.0595 0.01207,0.13811 0.01207,0.23616 v 1.13081 c 0,0.0112 -0.004,0.0225 -0.01207,0.0338 -0.008,0.01 -0.02254,0.0209 -0.04344,0.0338 -0.01929,0.0112 -0.04715,0.0242 -0.08412,0.0386 -0.03697,0.0129 -0.08452,0.0266 -0.142385,0.041 v 0.17617 h 1.164595 v -0.17617 c -0.06269,-0.0161 -0.114268,-0.0306 -0.154452,-0.0434 -0.04018,-0.0145 -0.07127,-0.0274 -0.09377,-0.0386 -0.02089,-0.0113 -0.0354,-0.0217 -0.04344,-0.0314 -0.008,-0.0113 -0.01207,-0.0225 -0.01207,-0.0338 v -1.27526 c 0.104482,-0.10127 0.204068,-0.17703 0.298906,-0.22685 0.09484,-0.0498 0.1775,-0.0745 0.248227,-0.0745 0.0434,0 0.08128,0.005 0.113424,0.0145 0.03215,0.01 0.05794,0.0298 0.07723,0.0603 0.0209,0.0305 0.03621,0.0753 0.04585,0.1348 0.01125,0.0595 0.01689,0.13845 0.01689,0.2365 v 1.13081 c 0,0.0113 -0.004,0.0222 -0.01207,0.0334 -0.0064,0.01 -0.02013,0.0209 -0.04103,0.0338 -0.0209,0.0112 -0.04991,0.0242 -0.08688,0.0386 -0.03536,0.0129 -0.0821,0.0266 -0.139972,0.041 v 0.17617 l 1.198381,-3.4e-4 v -0.17583 c -0.126986,-0.0321 -0.21529,-0.0587 -0.265119,-0.0796 -0.04983,-0.0225 -0.07481,-0.0451 -0.07481,-0.0676 v -1.37421 c 0,-0.11252 -0.01531,-0.20807 -0.04585,-0.28684 -0.03054,-0.0788 -0.0721,-0.14243 -0.125147,-0.19065 -0.05144,-0.0498 -0.11188,-0.0853 -0.180998,-0.10619 -0.06912,-0.0225 -0.142112,-0.0338 -0.219267,-0.0338 -0.05948,0 -0.119917,0.006 -0.180998,0.0193 -0.06108,0.0113 -0.126016,0.0322 -0.195134,0.0627 -0.06751,0.0305 -0.140041,0.0716 -0.217198,0.12308 -0.07716,0.0514 -0.160623,0.11637 -0.25064,0.19513 l -0.0072,-0.0334 c -0.0096,-0.0514 -0.02737,-0.099 -0.05309,-0.14238 -0.02572,-0.045 -0.05956,-0.0837 -0.101359,-0.11584 -0.04179,-0.0337 -0.09222,-0.0603 -0.151693,-0.0796 -0.05948,-0.0193 -0.127976,-0.029 -0.205132,-0.029 -0.05787,0 -0.117159,0.006 -0.178241,0.0193 -0.06108,0.0113 -0.125552,0.0322 -0.193065,0.0627 -0.06751,0.0289 -0.139696,0.07 -0.216852,0.12308 -0.07555,0.0514 -0.158556,0.11637 -0.248572,0.19513 l -0.0262,-0.2989 z m -13.473515,3.4e-4 c -0.06108,0 -0.121985,0.006 -0.183067,0.0193 -0.06108,0.0113 -0.120718,0.0274 -0.178585,0.0483 -0.05626,0.0193 -0.110716,0.0431 -0.163761,0.0721 -0.05144,0.0273 -0.09818,0.0563 -0.139972,0.0869 -0.165564,0.12055 -0.290132,0.26688 -0.373718,0.43888 -0.08198,0.17038 -0.123079,0.36506 -0.123079,0.58367 0,0.17039 0.02659,0.32524 0.07964,0.46508 0.05304,0.13985 0.124425,0.25958 0.21444,0.35924 0.09162,0.0997 0.198001,0.17703 0.318557,0.23168 0.122164,0.0547 0.251568,0.082 0.388199,0.082 0.09644,0 0.184748,-0.007 0.265119,-0.0217 0.08037,-0.0145 0.160615,-0.0411 0.240986,-0.0796 0.08198,-0.0402 0.167403,-0.0958 0.255811,-0.16652 0.08841,-0.0707 0.187994,-0.16225 0.298906,-0.27477 -0.0032,-0.006 -0.0097,-0.0169 -0.01931,-0.0314 -0.0096,-0.0145 -0.02093,-0.0298 -0.03379,-0.0459 -0.01125,-0.0177 -0.02415,-0.0338 -0.03861,-0.0483 -0.01286,-0.0145 -0.02414,-0.0242 -0.03379,-0.029 -0.09484,0.0659 -0.176694,0.1183 -0.245813,0.15686 -0.06912,0.037 -0.131978,0.066 -0.188238,0.0869 -0.05465,0.0209 -0.105885,0.0342 -0.154108,0.0407 -0.04661,0.005 -0.09497,0.007 -0.144798,0.007 -0.09484,0 -0.179112,-0.019 -0.253053,-0.0576 -0.07233,-0.0402 -0.134388,-0.0958 -0.185825,-0.16652 -0.05144,-0.0707 -0.09173,-0.15419 -0.120666,-0.25064 -0.02734,-0.0981 -0.04231,-0.20523 -0.04551,-0.32097 h 1.140462 c 0.02572,-0.01 0.05439,-0.0222 0.08654,-0.0383 0.03376,-0.0161 0.0668,-0.033 0.09895,-0.0507 0.03215,-0.0177 0.06197,-0.0362 0.08929,-0.0555 0.02733,-0.0193 0.04828,-0.037 0.06275,-0.0531 0,-0.1302 -0.01854,-0.25477 -0.05551,-0.37372 -0.03536,-0.11895 -0.09097,-0.22337 -0.166519,-0.31339 -0.07394,-0.0916 -0.168692,-0.16462 -0.284426,-0.21927 -0.114126,-0.0546 -0.249977,-0.082 -0.407504,-0.082 z m 4.899366,0 c -0.06108,0 -0.121985,0.006 -0.183067,0.0193 -0.06108,0.0113 -0.120718,0.0274 -0.178585,0.0483 -0.05626,0.0193 -0.110717,0.0431 -0.16376,0.0721 -0.05144,0.0273 -0.09818,0.0563 -0.139972,0.0869 -0.165564,0.12055 -0.290133,0.26688 -0.373719,0.43888 -0.08198,0.17038 -0.123078,0.36506 -0.123078,0.58367 0,0.17039 0.02659,0.32524 0.07964,0.46508 0.05305,0.13985 0.124769,0.25958 0.214783,0.35924 0.09163,0.0997 0.197656,0.17703 0.318214,0.23168 0.122163,0.0547 0.251567,0.082 0.388198,0.082 0.09644,0 0.184748,-0.007 0.265119,-0.0217 0.08037,-0.0145 0.160616,-0.0411 0.240986,-0.0796 0.08198,-0.0402 0.167404,-0.0958 0.255811,-0.16652 0.08841,-0.0707 0.187995,-0.16225 0.298906,-0.27477 -0.0032,-0.006 -0.0097,-0.0169 -0.01931,-0.0314 -0.0096,-0.0145 -0.02093,-0.0298 -0.03379,-0.0459 -0.01125,-0.0177 -0.02414,-0.0338 -0.03861,-0.0483 -0.01286,-0.0145 -0.02414,-0.0242 -0.03379,-0.029 -0.09484,0.0659 -0.176693,0.1183 -0.245811,0.15686 -0.06912,0.037 -0.13198,0.066 -0.188239,0.0869 -0.05465,0.0209 -0.105884,0.0342 -0.154108,0.0407 -0.04661,0.005 -0.09497,0.007 -0.144798,0.007 -0.09484,0 -0.179111,-0.019 -0.253052,-0.0576 -0.07234,-0.0402 -0.134389,-0.0958 -0.185826,-0.16652 -0.05144,-0.0707 -0.09139,-0.15419 -0.120321,-0.25064 -0.02734,-0.0981 -0.04265,-0.20523 -0.04585,-0.32097 h 1.140461 c 0.02572,-0.01 0.05473,-0.0222 0.08688,-0.0383 0.03376,-0.0161 0.06645,-0.033 0.0986,-0.0507 0.03215,-0.0177 0.06197,-0.0362 0.08929,-0.0555 0.02733,-0.0193 0.04828,-0.037 0.06275,-0.0531 0,-0.1302 -0.01854,-0.25477 -0.05551,-0.37372 -0.03536,-0.11895 -0.09097,-0.22337 -0.166519,-0.31339 -0.07394,-0.0916 -0.168691,-0.16462 -0.284426,-0.21927 -0.114127,-0.0546 -0.249977,-0.082 -0.407504,-0.082 z m 6.449745,0 c -0.1736,0 -0.333284,0.0351 -0.479559,0.10584 -0.144668,0.0691 -0.270042,0.1618 -0.376131,0.27753 -0.104483,0.11574 -0.186683,0.24837 -0.246159,0.39786 -0.05786,0.14949 -0.08688,0.30352 -0.08688,0.46266 0,0.16396 0.02579,0.31592 0.07723,0.45577 0.05305,0.13985 0.127186,0.26039 0.222024,0.36166 0.09484,0.10126 0.209736,0.18105 0.344758,0.23891 0.135025,0.0579 0.285381,0.0865 0.450945,0.0865 0.10609,0 0.2089,-0.0158 0.30856,-0.0479 0.101267,-0.0306 0.195211,-0.0741 0.282013,-0.13032 0.08841,-0.0563 0.168653,-0.12315 0.240986,-0.20031 0.07233,-0.0788 0.134387,-0.16384 0.185824,-0.25546 0.05305,-0.0916 0.09415,-0.18879 0.123079,-0.29167 0.02893,-0.10287 0.0431,-0.2081 0.0431,-0.3158 h 3.44e-4 c 0,-0.16396 -0.02579,-0.31593 -0.07723,-0.45577 -0.05144,-0.13985 -0.125579,-0.26038 -0.222024,-0.36165 -0.09484,-0.10288 -0.209735,-0.18312 -0.344758,-0.24099 -0.133416,-0.0579 -0.282161,-0.0869 -0.446119,-0.0869 z m 6.734518,0 c -0.06108,0 -0.122331,0.006 -0.183413,0.0193 -0.06108,0.0113 -0.120371,0.0274 -0.178239,0.0483 -0.05626,0.0193 -0.111061,0.0431 -0.164105,0.0721 -0.05144,0.0273 -0.09818,0.0563 -0.139973,0.0869 -0.165563,0.12055 -0.290131,0.26688 -0.373719,0.43888 -0.08198,0.17038 -0.122733,0.36506 -0.122733,0.58367 0,0.17039 0.02659,0.32524 0.07964,0.46508 0.05304,0.13985 0.124424,0.25958 0.214441,0.35924 0.09162,0.0997 0.197656,0.17703 0.318211,0.23168 0.122164,0.0547 0.251568,0.082 0.388199,0.082 0.09644,0 0.184749,-0.007 0.265119,-0.0217 0.08037,-0.0145 0.16096,-0.0411 0.241331,-0.0796 0.08198,-0.0402 0.167059,-0.0958 0.255467,-0.16652 0.08841,-0.0707 0.187994,-0.16225 0.298906,-0.27477 -0.0032,-0.006 -0.0097,-0.0169 -0.01931,-0.0314 -0.0096,-0.0145 -0.02093,-0.0298 -0.03379,-0.0459 -0.01125,-0.0177 -0.0238,-0.0338 -0.03827,-0.0483 -0.01286,-0.0145 -0.02414,-0.0242 -0.03379,-0.029 -0.09484,0.0659 -0.177039,0.1183 -0.246158,0.15686 -0.06912,0.037 -0.131633,0.066 -0.187893,0.0869 -0.05465,0.0209 -0.106229,0.0342 -0.154452,0.0407 -0.04662,0.005 -0.09462,0.007 -0.144454,0.007 -0.09484,0 -0.179457,-0.019 -0.253398,-0.0576 -0.07234,-0.0402 -0.134043,-0.0958 -0.18548,-0.16652 -0.05144,-0.0707 -0.09173,-0.15419 -0.120665,-0.25064 -0.02734,-0.0981 -0.04265,-0.20523 -0.04585,-0.32097 h 1.140462 c 0.02572,-0.01 0.05473,-0.0222 0.08688,-0.0383 0.03376,-0.0161 0.0668,-0.033 0.09895,-0.0507 0.03215,-0.0177 0.06162,-0.0362 0.08895,-0.0555 0.02733,-0.0193 0.04828,-0.037 0.06275,-0.0531 0,-0.1302 -0.01854,-0.25477 -0.05551,-0.37372 -0.03536,-0.11895 -0.09062,-0.22337 -0.166172,-0.31339 -0.07394,-0.0916 -0.168692,-0.16462 -0.284427,-0.21927 -0.114126,-0.0546 -0.249977,-0.082 -0.407504,-0.082 z m 1.947886,0 c -0.06751,0.0225 -0.128414,0.0419 -0.183067,0.0579 -0.05304,0.0161 -0.107846,0.0302 -0.164106,0.0431 -0.05626,0.0128 -0.117161,0.0249 -0.183065,0.0362 -0.0643,0.0113 -0.140856,0.0233 -0.229265,0.0362 v 0.16893 c 0.04501,0.003 0.08208,0.007 0.111012,0.01 0.02894,0.002 0.05231,0.005 0.06999,0.01 0.01929,0.005 0.0346,0.0113 0.04585,0.0193 0.01286,0.006 0.02495,0.0153 0.0362,0.0266 0.0064,0.008 0.01288,0.0185 0.01931,0.0314 0.008,0.0129 0.01449,0.0302 0.01931,0.0528 0.0048,0.0225 0.0089,0.0523 0.01207,0.0893 0.0032,0.0354 0.0048,0.0797 0.0048,0.13273 v 1.27802 c 0,0.0498 -0.10638,0.0986 -0.318558,0.14687 v 0.17617 h 1.323874 v -0.17617 c -0.151097,-0.0225 -0.260355,-0.0467 -0.327865,-0.0724 -0.06591,-0.0257 -0.09895,-0.0504 -0.09895,-0.0745 v -1.05392 c 0.04822,-0.10609 0.09496,-0.19118 0.139973,-0.25547 0.0466,-0.0643 0.09058,-0.11345 0.132387,-0.14721 0.0418,-0.0354 0.08129,-0.0584 0.118252,-0.0696 0.03857,-0.0129 0.07403,-0.0193 0.106186,-0.0193 0.03857,0 0.07287,0.0126 0.103428,0.0383 0.03214,0.0241 0.05874,0.058 0.07964,0.10136 0.02251,0.0418 0.04105,0.0917 0.05551,0.14962 0.0145,0.0579 0.02416,0.11877 0.02896,0.18307 h 0.17617 c 0.01285,-0.0289 0.02734,-0.0681 0.04344,-0.11791 0.0161,-0.0498 0.0314,-0.10383 0.04585,-0.16169 0.01445,-0.0579 0.02783,-0.11716 0.04068,-0.17824 0.0129,-0.0611 0.02255,-0.11669 0.02896,-0.16652 0.0081,-0.0498 0.01207,-0.0917 0.01207,-0.12549 0,-0.0351 -0.005,-0.0558 -0.01448,-0.0624 -0.05947,-0.0337 -0.122796,-0.0595 -0.190306,-0.0772 -0.06591,-0.0193 -0.129568,-0.029 -0.190652,-0.029 -0.06912,0 -0.137275,0.0121 -0.204787,0.0362 -0.06752,0.0225 -0.132792,0.0544 -0.195478,0.0962 -0.06108,0.0402 -0.11876,0.0877 -0.173413,0.14238 -0.05465,0.0547 -0.103803,0.11349 -0.147212,0.17618 l -0.03137,-0.34993 z m 2.659814,0 c -0.173601,0 -0.333629,0.0351 -0.479905,0.10584 -0.14467,0.0691 -0.270041,0.1618 -0.376132,0.27753 -0.10448,0.11574 -0.186335,0.24837 -0.245814,0.39786 -0.05786,0.14949 -0.08688,0.30352 -0.08688,0.46266 0,0.16396 0.02579,0.31592 0.07723,0.45577 0.05304,0.13985 0.126842,0.26039 0.22168,0.36166 0.09484,0.10126 0.209732,0.18105 0.344758,0.23891 0.135023,0.0579 0.285381,0.0865 0.450945,0.0865 0.10609,0 0.2089,-0.0158 0.308558,-0.0479 0.101269,-0.0306 0.195213,-0.0741 0.282013,-0.13032 0.08841,-0.0563 0.168995,-0.12315 0.241332,-0.20031 0.07233,-0.0788 0.134043,-0.16384 0.18548,-0.25546 0.05307,-0.0916 0.09417,-0.18879 0.123079,-0.29167 0.02891,-0.10287 0.04344,-0.2081 0.04344,-0.3158 0,-0.16396 -0.02579,-0.31593 -0.07723,-0.45577 -0.05144,-0.13985 -0.125236,-0.26038 -0.22168,-0.36165 -0.09484,-0.10288 -0.209731,-0.18312 -0.344759,-0.24099 -0.133411,-0.0579 -0.282158,-0.0869 -0.446117,-0.0869 z m -21.587067,0.0721 v 0.17617 c 0.07876,0.0177 0.135174,0.0386 0.168931,0.0627 0.03537,0.0241 0.06196,0.0576 0.07964,0.10102 l 0.850866,1.97478 c 0.03858,-0.01 0.07968,-0.0226 0.123078,-0.0386 0.0434,-0.0145 0.0845,-0.0326 0.12308,-0.0552 0.03858,-0.0241 0.07208,-0.0507 0.101013,-0.0796 0.03054,-0.0289 0.0531,-0.0612 0.06757,-0.0965 l 0.682279,-1.70483 c 0.0096,-0.0225 0.01851,-0.0415 0.02655,-0.0576 0.0096,-0.0161 0.02254,-0.0298 0.03861,-0.041 0.01768,-0.0129 0.04025,-0.0241 0.06757,-0.0338 0.02893,-0.01 0.06762,-0.0201 0.115839,-0.0314 v -0.17617 h -0.77881 v 0.17617 c 0.05465,0.01 0.09736,0.0193 0.127906,0.029 0.03054,0.008 0.05196,0.0185 0.06481,0.0314 0.01285,0.0112 0.01849,0.0254 0.01689,0.0431 0,0.0161 -0.0048,0.0362 -0.01448,0.0603 l -0.486799,1.21286 -0.518517,-1.21286 c -0.01125,-0.0258 -0.01689,-0.0464 -0.01689,-0.0624 0,-0.0177 0.0081,-0.0322 0.02413,-0.0434 0.01768,-0.0129 0.04428,-0.0233 0.07964,-0.0314 0.03697,-0.01 0.08659,-0.0185 0.149279,-0.0265 v -0.17617 z m 22.867155,0 v 0.17617 c 0.08035,0.0177 0.140793,0.0386 0.180998,0.0627 0.04021,0.0241 0.06888,0.0576 0.08654,0.10102 l 0.807769,1.95788 -0.06999,0.16652 c -0.05626,0.13824 -0.118773,0.24185 -0.187895,0.31097 -0.06751,0.0707 -0.131176,0.11666 -0.19065,0.13756 -0.05947,0.0225 -0.130048,0.0273 -0.212028,0.0145 -0.08037,-0.0113 -0.160612,-0.0427 -0.240986,-0.0941 -0.0257,0.0161 -0.05874,0.0451 -0.09895,0.0869 -0.04019,0.0418 -0.07888,0.0858 -0.115839,0.13239 -0.0386,0.0466 -0.07164,0.0901 -0.09894,0.13032 -0.02731,0.0418 -0.04068,0.07 -0.04068,0.0845 0,0.0145 0.01449,0.0314 0.04344,0.0507 0.02732,0.0193 0.06324,0.0367 0.108254,0.0528 0.04662,0.0177 0.0998,0.0322 0.15928,0.0434 0.05947,0.0113 0.119572,0.0169 0.180652,0.0169 0.102879,0 0.203615,-0.019 0.301665,-0.0576 0.09805,-0.0386 0.191995,-0.099 0.282011,-0.181 0.09002,-0.082 0.175097,-0.1864 0.255467,-0.31338 0.08037,-0.12699 0.15532,-0.27896 0.224437,-0.45577 l 0.805357,-2.08338 c 0.008,-0.0241 0.01655,-0.0431 0.0262,-0.0576 0.01125,-0.0161 0.02655,-0.0298 0.04585,-0.041 0.01928,-0.0129 0.04426,-0.0241 0.07481,-0.0338 0.03054,-0.01 0.07003,-0.0201 0.118252,-0.0314 v -0.17617 h -0.788463 v 0.17582 c 0.05464,0.01 0.097,0.0193 0.127561,0.029 0.03055,0.008 0.05149,0.0185 0.06274,0.0314 0.01277,0.0112 0.01759,0.0257 0.01448,0.0434 -0.0016,0.0161 -0.0072,0.0362 -0.01689,0.0603 l -0.47232,1.21045 -0.496796,-1.21045 c -0.01108,-0.0258 -0.01753,-0.0467 -0.01931,-0.0628 -0.0016,-0.0176 0.0049,-0.0318 0.01931,-0.0431 0.01446,-0.0129 0.03864,-0.0233 0.0724,-0.0314 0.03376,-0.01 0.08176,-0.0185 0.144452,-0.0265 v -0.17617 z m -24.058297,0.21719 c 0.08198,0 0.150479,0.0194 0.205132,0.0579 0.05465,0.0386 0.09783,0.0858 0.129974,0.14205 0.03376,0.0546 0.05713,0.11348 0.06999,0.17617 0.01286,0.0611 0.01931,0.11554 0.01931,0.16376 0,0.0338 -0.0064,0.0571 -0.01931,0.07 -0.01125,0.0113 -0.03543,0.0169 -0.0724,0.0169 h -0.802599 c 0.0096,-0.0965 0.02461,-0.18314 0.04551,-0.2603 0.02251,-0.0772 0.05232,-0.14324 0.08929,-0.19789 0.03858,-0.0547 0.08532,-0.0962 0.139972,-0.12515 0.05465,-0.0289 0.119585,-0.0434 0.195133,-0.0434 z m 4.89971,0 c 0.08198,0 0.150134,0.0194 0.204788,0.0579 0.05465,0.0386 0.09817,0.0858 0.130318,0.14205 0.03376,0.0546 0.05678,0.11348 0.06964,0.17617 0.01286,0.0611 0.01931,0.11554 0.01931,0.16376 0,0.0338 -0.0064,0.0571 -0.01931,0.07 -0.01125,0.0113 -0.03508,0.0169 -0.07205,0.0169 h -0.802942 c 0.0096,-0.0965 0.02496,-0.18314 0.04585,-0.2603 0.02251,-0.0772 0.05198,-0.14324 0.08895,-0.19789 0.03858,-0.0547 0.08532,-0.0962 0.139973,-0.12515 0.05465,-0.0289 0.11993,-0.0434 0.195477,-0.0434 z m 13.18392,0 c 0.08198,0 0.150134,0.0194 0.204785,0.0579 0.05465,0.0386 0.09817,0.0858 0.130321,0.14205 0.03376,0.0546 0.05713,0.11348 0.06999,0.17617 0.01286,0.0611 0.01931,0.11554 0.01931,0.16376 0,0.0338 -0.0064,0.0571 -0.01931,0.07 -0.01125,0.0113 -0.03543,0.0169 -0.0724,0.0169 h -0.802942 c 0.0096,-0.0965 0.02496,-0.18314 0.04585,-0.2603 0.02251,-0.0772 0.05232,-0.14324 0.08929,-0.19789 0.03858,-0.0547 0.08498,-0.0962 0.139628,-0.12515 0.05465,-0.0289 0.119929,-0.0434 0.195478,-0.0434 z m -6.71728,0.0121 c 0.08198,0 0.156581,0.0258 0.224093,0.0772 0.06912,0.0514 0.127604,0.1212 0.175828,0.20961 0.04822,0.0868 0.08529,0.188 0.111012,0.30373 0.02733,0.11413 0.04103,0.23467 0.04103,0.36165 0,0.13342 -0.0089,0.25189 -0.02655,0.35476 -0.01608,0.10288 -0.04428,0.18957 -0.08447,0.26029 -0.04019,0.0707 -0.09222,0.12439 -0.15652,0.16135 -0.0643,0.037 -0.144887,0.0555 -0.241332,0.0555 -0.07394,0 -0.144516,-0.0234 -0.212026,-0.07 -0.0659,-0.0482 -0.124735,-0.11315 -0.176172,-0.19513 -0.04983,-0.082 -0.08978,-0.17834 -0.120321,-0.28925 -0.02893,-0.11091 -0.04344,-0.22984 -0.04344,-0.35683 0,-0.12377 0.0073,-0.23867 0.02172,-0.34476 0.01607,-0.10769 0.04347,-0.20038 0.08205,-0.27753 0.03858,-0.0787 0.09062,-0.13966 0.156521,-0.18307 0.0659,-0.045 0.148911,-0.0676 0.24857,-0.0676 z m 11.341873,0 c 0.08198,0 0.156583,0.0258 0.224093,0.0772 0.06912,0.0514 0.12795,0.1212 0.176173,0.20961 0.04823,0.0868 0.0853,0.188 0.111011,0.30373 0.02731,0.11413 0.04068,0.23467 0.04068,0.36165 0,0.13342 -0.0088,0.25189 -0.02655,0.35476 -0.0161,0.10288 -0.04396,0.18957 -0.08412,0.26029 -0.04019,0.0707 -0.09257,0.12439 -0.156867,0.16135 -0.06429,0.037 -0.144539,0.0555 -0.240986,0.0555 -0.07394,0 -0.14486,-0.0234 -0.21237,-0.07 -0.06591,-0.0482 -0.124391,-0.11315 -0.175828,-0.19513 -0.04982,-0.082 -0.09011,-0.17834 -0.120665,-0.28925 -0.02891,-0.11091 -0.04344,-0.22984 -0.04344,-0.35683 0,-0.12377 0.0073,-0.23867 0.02172,-0.34476 0.01609,-0.10769 0.04349,-0.20038 0.08205,-0.27753 0.03857,-0.0787 0.09096,-0.13966 0.156865,-0.18307 0.0659,-0.045 0.148567,-0.0676 0.248226,-0.0676 z m -30.9179624,0.60747 c 0.073941,0.0322 0.1445151,0.0676 0.2120266,0.10618 0.069119,0.037 0.1295612,0.0813 0.1809982,0.13273 0.053044,0.0514 0.09495,0.11154 0.1254923,0.18066 0.030542,0.0675 0.045508,0.1481 0.045508,0.24133 0,0.0707 -0.00852,0.13727 -0.026202,0.19996 -0.017682,0.0627 -0.044276,0.11829 -0.079639,0.16652 -0.033755,0.0466 -0.076468,0.0841 -0.1279054,0.11308 -0.051438,0.0273 -0.109923,0.041 -0.175827,0.041 -0.059475,0 -0.1174987,-0.0121 -0.1737584,-0.0362 -0.05626,-0.0241 -0.1062251,-0.0584 -0.1496252,-0.10342 -0.043398,-0.0466 -0.077707,-0.10303 -0.1034277,-0.16893 -0.025721,-0.0675 -0.038613,-0.14292 -0.038613,-0.22651 0,-0.0659 0.00645,-0.12715 0.019307,-0.18341 0.012858,-0.0579 0.032199,-0.11233 0.057919,-0.16376 0.025718,-0.0514 0.057609,-0.1014 0.096188,-0.14963 0.040186,-0.0498 0.086121,-0.0998 0.1375588,-0.14962 z m 11.2936074,3.84096 c -0.04822,0 -0.101873,0.006 -0.161349,0.0193 -0.05787,0.0129 -0.118308,0.033 -0.180998,0.0603 -0.06108,0.0273 -0.123597,0.062 -0.187893,0.10376 -0.06269,0.0402 -0.123937,0.089 -0.183411,0.14688 -0.0643,0.0611 -0.121976,0.12795 -0.173415,0.20029 -0.04983,0.0707 -0.09254,0.15018 -0.127904,0.23858 -0.03376,0.0868 -0.06035,0.18396 -0.07964,0.29167 -0.01768,0.1077 -0.02655,0.22778 -0.02655,0.35959 v 0.0745 H 18.42356 l -0.188239,0.21479 0.06757,0.0869 h 0.286839 v 1.62243 c 0,0.0193 -0.02579,0.0435 -0.07723,0.0724 -0.04983,0.0273 -0.130073,0.0507 -0.240985,0.07 v 0.17582 h 1.383861 v -0.17582 c -0.09484,-0.0177 -0.17347,-0.033 -0.23616,-0.0459 -0.06108,-0.0145 -0.111047,-0.0265 -0.149624,-0.0362 -0.03697,-0.0112 -0.06322,-0.0217 -0.0793,-0.0314 -0.01447,-0.01 -0.02172,-0.0193 -0.02172,-0.029 v -1.62277 c 0.128594,0 0.226567,0.01 0.29408,0.029 0.06912,0.0177 0.121964,0.0362 0.158933,0.0555 0.01447,-0.0113 0.0322,-0.0282 0.05309,-0.0507 0.0209,-0.0225 0.04185,-0.0472 0.06275,-0.0745 0.0225,-0.029 0.04426,-0.058 0.06516,-0.0869 0.0225,-0.0306 0.04104,-0.0596 0.05551,-0.0869 l -0.08929,-0.0869 h -0.600224 v -0.20719 c 0,-0.18485 0.0089,-0.33683 0.02655,-0.45577 0.01768,-0.11895 0.04071,-0.21208 0.06964,-0.2796 0.02894,-0.0675 0.06198,-0.11426 0.09895,-0.13998 0.03858,-0.0257 0.07887,-0.0386 0.120665,-0.0386 0.05144,0 0.113147,0.0209 0.18548,0.0627 0.07233,0.0418 0.147282,0.11112 0.224439,0.20755 0.01607,-0.008 0.03702,-0.0209 0.06275,-0.0386 0.02572,-0.0193 0.05278,-0.0411 0.08171,-0.0652 0.02893,-0.0241 0.05875,-0.0507 0.08929,-0.0796 0.03054,-0.029 0.05794,-0.0572 0.08205,-0.0845 0.02411,-0.0289 0.04345,-0.0555 0.05792,-0.0796 0.01607,-0.0257 0.02413,-0.0472 0.02413,-0.0648 0,-0.0145 -0.01692,-0.0346 -0.05068,-0.0603 -0.03376,-0.0257 -0.07808,-0.0507 -0.132734,-0.0748 -0.05304,-0.0257 -0.114753,-0.0483 -0.18548,-0.0676 -0.06912,-0.0193 -0.140037,-0.0289 -0.21237,-0.0289 z m 14.341617,0 c -0.04822,0 -0.102218,0.006 -0.161691,0.0193 -0.05787,0.0129 -0.117964,0.033 -0.180654,0.0603 -0.06108,0.0273 -0.123941,0.062 -0.188239,0.10376 -0.06269,0.0402 -0.123592,0.089 -0.183067,0.14688 -0.0643,0.0611 -0.122321,0.12795 -0.173758,0.20029 -0.04983,0.0707 -0.09254,0.15018 -0.127905,0.23858 -0.03376,0.0868 -0.06,0.18396 -0.0793,0.29167 -0.01768,0.1077 -0.02655,0.22778 -0.02655,0.35959 v 0.0745 h -0.166519 l -0.187893,0.21479 0.06723,0.0869 h 0.287184 v 1.62243 c 0,0.0193 -0.02579,0.0435 -0.07723,0.0724 -0.04983,0.0273 -0.13042,0.0507 -0.241332,0.07 v 0.17582 h 1.384207 v -0.17582 c -0.09484,-0.0177 -0.173816,-0.033 -0.236504,-0.0459 -0.06108,-0.0145 -0.110702,-0.0265 -0.149282,-0.0362 -0.03697,-0.0112 -0.06356,-0.0217 -0.07964,-0.0314 -0.01447,-0.01 -0.02172,-0.0193 -0.02172,-0.029 v -1.62277 c 0.128594,0 0.226568,0.01 0.29408,0.029 0.06912,0.0177 0.12231,0.0362 0.159278,0.0555 0.01447,-0.0113 0.0322,-0.0282 0.05309,-0.0507 0.0209,-0.0225 0.04185,-0.0472 0.06275,-0.0745 0.02251,-0.029 0.04392,-0.058 0.06482,-0.0869 0.0225,-0.0306 0.04104,-0.0596 0.05551,-0.0869 l -0.08929,-0.0869 h -0.600225 v -0.20719 c 0,-0.18485 0.0089,-0.33683 0.02655,-0.45577 0.01768,-0.11895 0.04106,-0.21208 0.06999,-0.2796 0.02894,-0.0675 0.06198,-0.11426 0.09895,-0.13998 0.03858,-0.0257 0.07852,-0.0386 0.12032,-0.0386 0.05144,0 0.11349,0.0209 0.185825,0.0627 0.07233,0.0418 0.146937,0.11112 0.224093,0.20755 0.01607,-0.008 0.03703,-0.0209 0.06275,-0.0386 0.02572,-0.0193 0.05312,-0.0411 0.08205,-0.0652 0.02893,-0.0241 0.05875,-0.0507 0.08929,-0.0796 0.03054,-0.029 0.0576,-0.0572 0.08171,-0.0845 0.02411,-0.0289 0.04345,-0.0555 0.05792,-0.0796 0.01607,-0.0257 0.02413,-0.0472 0.02413,-0.0648 0,-0.0145 -0.01692,-0.0346 -0.05068,-0.0603 -0.03376,-0.0257 -0.07774,-0.0507 -0.132387,-0.0748 -0.05305,-0.0257 -0.1151,-0.0483 -0.185826,-0.0676 -0.06912,-0.0193 -0.139692,-0.0289 -0.212026,-0.0289 z m -18.833479,0.43163 c -0.05626,0 -0.109449,0.009 -0.159279,0.0265 -0.04822,0.0177 -0.09059,0.0426 -0.12756,0.0748 -0.03537,0.0305 -0.06357,0.0684 -0.08447,0.11343 -0.02089,0.045 -0.03137,0.0946 -0.03137,0.14928 0,0.0466 0.0089,0.0869 0.02655,0.12066 0.01768,0.0322 0.04105,0.0595 0.06999,0.082 0.03054,0.0225 0.066,0.0394 0.106186,0.0507 0.04018,0.01 0.08255,0.0145 0.127561,0.0145 0.05787,0 0.111056,-0.009 0.159278,-0.0269 0.04983,-0.0177 0.09254,-0.0423 0.127906,-0.0745 0.03697,-0.0322 0.06564,-0.0708 0.08653,-0.11585 0.02085,-0.0449 0.03133,-0.0948 0.03137,-0.14928 0,0 0,-3.5e-4 0,-3.5e-4 -5.1e-5,-0.0464 -0.0097,-0.0858 -0.02896,-0.11789 -0.01768,-0.0337 -0.04186,-0.0611 -0.0724,-0.0821 -0.03054,-0.0225 -0.06566,-0.0386 -0.105841,-0.0483 -0.04019,-0.0112 -0.08209,-0.0169 -0.125492,-0.0169 z m 13.714501,0 c -0.05626,0 -0.109103,0.009 -0.158934,0.0265 -0.04822,0.0177 -0.09094,0.0426 -0.127905,0.0748 -0.03537,0.0305 -0.06357,0.0684 -0.08447,0.11343 -0.0209,0.045 -0.03137,0.0946 -0.03137,0.14928 0,0.0466 0.0089,0.0869 0.02655,0.12066 0.01768,0.0322 0.04105,0.0595 0.06999,0.082 0.03054,0.0225 0.066,0.0394 0.106186,0.0507 0.04018,0.01 0.08255,0.0145 0.127561,0.0145 0.05787,0 0.111055,-0.009 0.159278,-0.0269 0.04983,-0.0177 0.09254,-0.0423 0.127905,-0.0745 0.03697,-0.0322 0.06564,-0.0708 0.08653,-0.11585 0.02085,-0.0449 0.03133,-0.0948 0.03137,-0.14928 0,0 0,-3.5e-4 0,-3.5e-4 -5.1e-5,-0.0464 -0.0097,-0.0858 -0.02896,-0.11789 -0.01768,-0.0337 -0.04186,-0.0611 -0.0724,-0.0821 -0.03054,-0.0225 -0.06566,-0.0386 -0.105841,-0.0483 -0.04019,-0.0112 -0.08209,-0.0169 -0.125493,-0.0169 z m -19.795356,0.20031 -0.487144,0.35923 v 0.50369 H 8.4776169 l -0.1882382,0.21479 0.069986,0.0869 h 0.2916659 v 1.35248 c 0,0.11253 0.0137,0.2105 0.041026,0.29408 0.027326,0.082 0.063591,0.15048 0.1085989,0.20515 0.046615,0.0546 0.100265,0.0946 0.161347,0.12031 0.062689,0.0273 0.1287726,0.041 0.1978915,0.041 0.085193,0 0.2017026,-0.0351 0.3495854,-0.10584 0.1478825,-0.0723 0.3288632,-0.18596 0.5426506,-0.34027 l -0.1061861,-0.17582 c -0.067511,0.037 -0.1271478,0.0676 -0.1785851,0.0917 -0.049831,0.0225 -0.094616,0.0402 -0.1348006,0.0531 -0.040186,0.0128 -0.076451,0.0225 -0.108599,0.029 -0.030542,0.005 -0.06036,0.007 -0.089292,0.007 -0.030539,0 -0.058745,-0.007 -0.084466,-0.0217 -0.024111,-0.0161 -0.045525,-0.0411 -0.064814,-0.0748 -0.017679,-0.0354 -0.031379,-0.0813 -0.041026,-0.13756 -0.00964,-0.0579 -0.01448,-0.12764 -0.01448,-0.20961 v -1.1284 h 0.1613471 c 0.043401,0 0.085308,0.002 0.1254921,0.007 0.041795,0.005 0.081283,0.0121 0.1182523,0.0217 0.036972,0.008 0.069669,0.0165 0.098601,0.0262 0.030541,0.01 0.055523,0.0193 0.074813,0.029 0.016074,-0.0113 0.034611,-0.0278 0.055506,-0.0503 0.022502,-0.0225 0.045068,-0.0475 0.067573,-0.0748 0.022505,-0.029 0.044264,-0.058 0.065159,-0.0869 0.0225,-0.0306 0.041038,-0.0596 0.055506,-0.0869 l -0.086879,-0.0869 H 9.2298803 v -0.78363 z m 4.301555,0 -0.487144,0.35923 v 0.50369 h -0.173758 l -0.187894,0.21479 0.06999,0.0869 h 0.291666 v 1.35248 c 0,0.11253 0.0137,0.2105 0.04103,0.29408 0.02733,0.082 0.06359,0.15048 0.108599,0.20515 0.04662,0.0546 0.100265,0.0946 0.161347,0.12031 0.06269,0.0273 0.128773,0.041 0.197892,0.041 0.08519,0 0.201703,-0.0351 0.349585,-0.10584 0.147883,-0.0723 0.328519,-0.18596 0.542306,-0.34027 l -0.105841,-0.17582 c -0.06751,0.037 -0.127148,0.0676 -0.178585,0.0917 -0.04983,0.0225 -0.09496,0.0402 -0.135146,0.0531 -0.04019,0.0128 -0.07611,0.0225 -0.108254,0.029 -0.03054,0.005 -0.06036,0.007 -0.08929,0.007 -0.03054,0 -0.05875,-0.007 -0.08446,-0.0217 -0.02411,-0.0161 -0.04587,-0.0411 -0.06516,-0.0748 -0.01768,-0.0354 -0.03138,-0.0813 -0.04103,-0.13756 -0.0096,-0.0579 -0.01413,-0.12764 -0.01413,-0.20961 v -1.1284 H 13.6928 c 0.0434,0 0.08531,0.002 0.125492,0.007 0.04179,0.005 0.08094,0.0121 0.117908,0.0217 0.03697,0.008 0.07001,0.0165 0.09894,0.0262 0.03054,0.01 0.05552,0.0193 0.07481,0.029 0.01607,-0.0113 0.03461,-0.0278 0.05551,-0.0503 0.0225,-0.0225 0.04507,-0.0475 0.06757,-0.0748 0.0225,-0.029 0.04392,-0.058 0.06481,-0.0869 0.0225,-0.0306 0.04104,-0.0596 0.05551,-0.0869 l -0.08653,-0.0869 h -0.73573 v -0.78363 z m -6.1629073,0.79053 c -0.1093043,0 -0.2153374,0.0153 -0.3182123,0.0458 -0.1028748,0.029 -0.1944016,0.0716 -0.2747727,0.12792 -0.080371,0.0546 -0.1456483,0.12235 -0.1954782,0.20272 -0.048222,0.0788 -0.072399,0.16786 -0.072399,0.26752 0,0.0772 0.016926,0.14612 0.05068,0.2072 0.033756,0.0611 0.077274,0.11751 0.1303188,0.16894 0.053045,0.0498 0.1123358,0.0954 0.1782401,0.13721 0.067512,0.0402 0.1352067,0.0773 0.2027182,0.11101 0.073942,0.0386 0.1453207,0.0773 0.21444,0.11585 0.069119,0.037 0.1311726,0.0772 0.1858249,0.12066 0.054653,0.0434 0.097826,0.0906 0.129974,0.14205 0.033758,0.0514 0.05068,0.10946 0.05068,0.17374 0,0.0964 -0.028206,0.1654 -0.084466,0.20722 -0.05626,0.0418 -0.1421452,0.0627 -0.2578796,0.0627 -0.069119,0 -0.1356633,-0.0129 -0.19996,-0.0386 -0.06269,-0.0273 -0.119908,-0.0649 -0.1713451,-0.11308 -0.051439,-0.0482 -0.095763,-0.10706 -0.132732,-0.17618 -0.036971,-0.0691 -0.063221,-0.14614 -0.079295,-0.23133 l -0.1954782,-0.0265 c -0.016074,0.0595 -0.028163,0.12844 -0.0362,0.2072 -0.00644,0.0788 -0.010465,0.15417 -0.012067,0.22651 -0.00162,0.0723 5.3e-6,0.13519 0.00483,0.18823 0.00643,0.0515 0.015294,0.0797 0.026546,0.0845 0.053045,0.0289 0.1102632,0.0547 0.1713451,0.0772 0.06269,0.0225 0.1252042,0.0407 0.1878935,0.0552 0.062689,0.0145 0.1239371,0.0249 0.1834117,0.0314 0.061082,0.008 0.1171494,0.012 0.168587,0.012 0.046615,0 0.1022217,-0.003 0.1665184,-0.01 0.065904,-0.005 0.13406,-0.0161 0.2047866,-0.0338 0.072334,-0.0177 0.1432527,-0.0431 0.2123716,-0.0769 0.069119,-0.0337 0.1308276,-0.0789 0.1854801,-0.13514 0.056258,-0.0563 0.1013877,-0.12478 0.1351454,-0.20515 0.035363,-0.082 0.053093,-0.17994 0.053093,-0.29407 0,-0.09 -0.01773,-0.16784 -0.053093,-0.23375 -0.035363,-0.0675 -0.081299,-0.12714 -0.1375587,-0.17858 -0.05626,-0.0531 -0.1195806,-0.0995 -0.1903068,-0.13962 -0.070727,-0.0402 -0.1408393,-0.0781 -0.2099581,-0.11343 -0.085193,-0.045 -0.1622142,-0.0853 -0.2313331,-0.12067 -0.067512,-0.037 -0.1255355,-0.0732 -0.1737584,-0.10859 -0.046613,-0.0353 -0.082533,-0.0729 -0.1082542,-0.1131 -0.025721,-0.0402 -0.038613,-0.0861 -0.038613,-0.13756 0,-0.0675 0.026594,-0.12275 0.079639,-0.16617 0.053045,-0.045 0.1276483,-0.0676 0.2240932,-0.0676 0.1060899,0 0.1968105,0.0375 0.2723594,0.11309 0.075549,0.0739 0.1335737,0.18192 0.1737582,0.32338 l 0.1661738,0.0193 c 0.019289,-0.0257 0.039438,-0.066 0.060333,-0.12066 0.020895,-0.0547 0.038625,-0.11027 0.053093,-0.16653 0.016074,-0.0579 0.026552,-0.1091 0.031373,-0.1541 0.00644,-0.0466 0.00482,-0.074 -0.00483,-0.0821 -0.036971,-0.0289 -0.082906,-0.0547 -0.1375587,-0.0772 -0.054653,-0.0225 -0.1139437,-0.0419 -0.1782403,-0.0579 -0.064297,-0.0161 -0.1319915,-0.0282 -0.2027181,-0.0362 -0.069119,-0.01 -0.1380807,-0.0145 -0.2072001,-0.0145 z m 8.0290863,0 c -0.109304,0.0402 -0.225814,0.0749 -0.349585,0.10378 -0.123772,0.0273 -0.254787,0.0507 -0.393025,0.07 v 0.16893 c 0.08519,0.008 0.14932,0.0182 0.19272,0.031 0.0434,0.0129 0.07403,0.0338 0.09171,0.0627 0.01929,0.0273 0.02977,0.0668 0.03137,0.11826 0.0016,0.0498 0.0024,0.1159 0.0024,0.19788 v 1.23907 c 0,0.0225 -0.02579,0.0475 -0.07723,0.0748 -0.05144,0.0257 -0.131682,0.0499 -0.240986,0.0724 v 0.17582 h 1.217688 v -0.17582 c -0.117342,-0.0225 -0.200349,-0.0475 -0.248571,-0.0748 -0.04822,-0.0289 -0.0724,-0.0531 -0.0724,-0.0724 v -1.99167 z m 2.049246,0 c -0.191283,0 -0.366278,0.0331 -0.525412,0.0989 -0.159135,0.0643 -0.296598,0.15295 -0.412332,0.26546 -0.114126,0.11092 -0.203236,0.24194 -0.267533,0.39303 -0.0643,0.1511 -0.09653,0.3132 -0.09653,0.4868 0,0.17842 0.0274,0.33845 0.08205,0.47991 0.05626,0.14145 0.130058,0.26118 0.22168,0.35923 0.09323,0.0981 0.200069,0.17347 0.320626,0.22651 0.120556,0.0514 0.24593,0.0772 0.376132,0.0772 0.07555,0 0.150497,-0.006 0.224438,-0.0169 0.07394,-0.01 0.150156,-0.033 0.228919,-0.07 0.08037,-0.037 0.164646,-0.0898 0.253053,-0.15893 0.08841,-0.0707 0.185116,-0.16547 0.289598,-0.28442 l -0.130319,-0.15446 c -0.08519,0.0627 -0.15899,0.11267 -0.22168,0.14964 -0.06108,0.0369 -0.116689,0.0651 -0.166519,0.0845 -0.04983,0.0193 -0.09576,0.0322 -0.137558,0.0386 -0.04179,0.005 -0.08497,0.007 -0.129974,0.007 -0.0868,0 -0.169002,-0.0182 -0.246158,-0.0552 -0.07716,-0.037 -0.144506,-0.0902 -0.202373,-0.15929 -0.05626,-0.0691 -0.101388,-0.1534 -0.135146,-0.25304 -0.03215,-0.10128 -0.04827,-0.21618 -0.04827,-0.34477 0,-0.15592 0.01531,-0.28854 0.04585,-0.39785 0.03054,-0.1093 0.07084,-0.19876 0.120666,-0.26788 0.04983,-0.0707 0.106703,-0.12194 0.171,-0.1541 0.0659,-0.0322 0.134405,-0.0483 0.205131,-0.0483 0.128594,0 0.231403,0.0435 0.308559,0.1303 0.07716,0.0852 0.142434,0.20654 0.195478,0.36407 l 0.161348,0.0238 c 0.0096,-0.0145 0.02173,-0.0383 0.0362,-0.0721 0.01446,-0.0337 0.02897,-0.0716 0.04344,-0.11343 0.01446,-0.0418 0.02897,-0.0861 0.04344,-0.13272 0.01447,-0.0466 0.02656,-0.0906 0.0362,-0.13239 0.01125,-0.0418 0.01931,-0.0789 0.02413,-0.11101 0.0064,-0.0322 0.0088,-0.0547 0.0072,-0.0676 -0.02732,-0.0289 -0.06842,-0.0547 -0.123078,-0.0772 -0.05304,-0.0242 -0.111874,-0.0443 -0.176172,-0.0603 -0.0643,-0.0177 -0.130035,-0.0306 -0.197546,-0.0386 -0.06591,-0.01 -0.125541,-0.0145 -0.178585,-0.0145 z m 11.665256,0 c -0.109305,0.0402 -0.225814,0.0749 -0.349586,0.10378 -0.123771,0.0273 -0.254787,0.0507 -0.393024,0.07 v 0.16893 c 0.08519,0.008 0.149319,0.0182 0.19272,0.031 0.0434,0.0129 0.07403,0.0338 0.09171,0.0627 0.01929,0.0273 0.02977,0.0668 0.03137,0.11826 0.0016,0.0498 0.0024,0.1159 0.0024,0.19788 v 1.23907 c 0,0.0225 -0.02579,0.0475 -0.07723,0.0748 -0.05144,0.0257 -0.131681,0.0499 -0.240985,0.0724 v 0.17582 h 1.217688 v -0.17582 c -0.117343,-0.0225 -0.20035,-0.0475 -0.248572,-0.0748 -0.04822,-0.0289 -0.0724,-0.0531 -0.0724,-0.0724 v -1.99167 z m 1.465914,0 c -0.05787,0.0225 -0.115547,0.0427 -0.173413,0.0603 -0.05787,0.0177 -0.117504,0.0338 -0.178585,0.0483 -0.06108,0.0129 -0.125555,0.0249 -0.193065,0.0362 -0.06591,0.0112 -0.137284,0.0209 -0.214441,0.029 v 0.16893 c 0.08198,0.01 0.144839,0.019 0.188239,0.0286 0.0434,0.01 0.07448,0.0249 0.09377,0.0459 0.01929,0.0209 0.02977,0.0499 0.03137,0.0869 0.0032,0.037 0.0048,0.087 0.0048,0.14963 v 1.33801 c 0,0.0273 -0.02659,0.0523 -0.07964,0.0748 -0.05305,0.0209 -0.132484,0.0451 -0.238574,0.0724 v 0.17582 h 1.217688 v -0.17582 c -0.104482,-0.0225 -0.184265,-0.0467 -0.238919,-0.0724 -0.05465,-0.0257 -0.08171,-0.0507 -0.08171,-0.0748 v -1.21734 c 0.07716,-0.0659 0.146925,-0.12071 0.209613,-0.16411 0.0643,-0.0434 0.122322,-0.0772 0.173759,-0.10136 0.05305,-0.0257 0.101054,-0.0434 0.144454,-0.0531 0.0434,-0.0112 0.0845,-0.0169 0.123078,-0.0169 0.04823,0 0.08852,0.007 0.120667,0.0217 0.03215,0.0145 0.05759,0.0394 0.07688,0.0748 0.01929,0.0354 0.03299,0.0829 0.04103,0.14238 0.0096,0.0579 0.01448,0.13085 0.01448,0.21927 v 1.09461 c 0,0.0225 -0.02418,0.0451 -0.0724,0.0676 -0.04822,0.0225 -0.130078,0.0491 -0.245813,0.0797 v 0.17582 h 1.217688 v -0.17582 c -0.06269,-0.0161 -0.115071,-0.0306 -0.156865,-0.0434 -0.04179,-0.0145 -0.07449,-0.0274 -0.0986,-0.0386 -0.02412,-0.0112 -0.04104,-0.0217 -0.05068,-0.0314 -0.0096,-0.0113 -0.01448,-0.0225 -0.01448,-0.0338 V 277.428 c 0,-0.11252 -0.01531,-0.20842 -0.04585,-0.28718 -0.02893,-0.0788 -0.06842,-0.14208 -0.118252,-0.19032 -0.04822,-0.0498 -0.104291,-0.0853 -0.168587,-0.10617 -0.0643,-0.0225 -0.131186,-0.0338 -0.200306,-0.0338 -0.125378,0 -0.270093,0.0346 -0.43405,0.10378 -0.16235,0.0691 -0.337344,0.18401 -0.525412,0.34475 l -0.02655,-0.34717 z m -18.936907,3.4e-4 c -0.133415,0 -0.266043,0.0177 -0.397852,0.0531 -0.130201,0.0354 -0.25074,0.0845 -0.361651,0.14722 -0.110913,0.0611 -0.208425,0.13327 -0.292011,0.21685 -0.08198,0.082 -0.142075,0.1711 -0.180654,0.26753 l 0.05068,0.13032 c 0.01286,0.003 0.03784,0.002 0.07481,-0.003 0.03697,-0.006 0.07853,-0.0145 0.125148,-0.0241 0.04662,-0.0113 0.09497,-0.0238 0.144799,-0.0383 0.05143,-0.0161 0.09818,-0.0314 0.139972,-0.0459 0.04179,-0.0161 0.0761,-0.0314 0.103427,-0.0459 0.02732,-0.0144 0.04021,-0.0265 0.03861,-0.0362 -0.0048,-0.0482 8.2e-4,-0.091 0.01689,-0.1279 0.01768,-0.0386 0.04105,-0.0708 0.06999,-0.0965 0.02893,-0.0274 0.06278,-0.0483 0.10136,-0.0627 0.03858,-0.0145 0.07692,-0.0214 0.115494,-0.0214 0.06108,0 0.111854,0.009 0.152038,0.0265 0.04019,0.0161 0.07242,0.0391 0.09653,0.0696 0.02412,0.0305 0.04104,0.0676 0.05068,0.11103 0.0096,0.0418 0.01448,0.0877 0.01448,0.13754 v 0.28444 c -0.194497,0.0289 -0.356137,0.0595 -0.484731,0.0917 -0.126986,0.0305 -0.233019,0.0624 -0.318212,0.0962 -0.08359,0.0338 -0.151281,0.0692 -0.202718,0.10619 -0.04983,0.0354 -0.09381,0.0725 -0.132387,0.11101 -0.05948,0.0595 -0.109441,0.12764 -0.149626,0.2048 -0.03858,0.0756 -0.05792,0.16822 -0.05792,0.27752 0,0.0932 0.01612,0.17508 0.04827,0.24582 0.03215,0.0691 0.07405,0.12714 0.125492,0.17376 0.05305,0.045 0.11153,0.0785 0.175827,0.101 0.0659,0.0241 0.132793,0.0362 0.200305,0.0362 0.05144,0 0.108311,-0.006 0.171,-0.0193 0.06269,-0.0129 0.127967,-0.0338 0.195479,-0.0627 0.06912,-0.0305 0.139693,-0.0697 0.212026,-0.11791 0.07394,-0.0498 0.147278,-0.11109 0.219611,-0.18342 0.008,0.12056 0.03187,0.2145 0.07206,0.28202 0.04179,0.0675 0.09256,0.10135 0.152039,0.10135 0.02893,0 0.07003,-0.009 0.123078,-0.0265 0.05465,-0.0177 0.113944,-0.0418 0.178241,-0.0724 0.0659,-0.0322 0.13521,-0.0689 0.207544,-0.11068 0.07394,-0.0418 0.144516,-0.0861 0.212027,-0.13272 l -0.05309,-0.181 c -0.03215,0.0129 -0.05955,0.0241 -0.08205,0.0338 -0.0225,0.008 -0.04231,0.0145 -0.05999,0.0193 -0.01607,0.005 -0.03058,0.008 -0.04344,0.01 -0.01125,0.002 -0.02253,0.003 -0.03379,0.003 -0.02894,0 -0.05231,-0.0145 -0.06999,-0.0434 -0.01768,-0.0289 -0.02655,-0.0773 -0.02655,-0.14479 v -1.16185 c 0,-0.082 -0.01289,-0.15853 -0.03861,-0.22926 -0.02572,-0.0707 -0.06521,-0.13163 -0.118252,-0.18307 -0.05144,-0.053 -0.117176,-0.0941 -0.197547,-0.12308 -0.08037,-0.0289 -0.175927,-0.0434 -0.286839,-0.0434 z m 9.147828,0 c -0.06751,0.0225 -0.128759,0.0415 -0.183412,0.0576 -0.05304,0.0161 -0.107501,0.0306 -0.16376,0.0434 -0.05626,0.0129 -0.117507,0.0249 -0.183411,0.0362 -0.0643,0.0112 -0.140513,0.0233 -0.228921,0.0362 v 0.16858 c 0.04501,0.003 0.08174,0.007 0.110667,0.01 0.02894,0.002 0.05231,0.005 0.06999,0.01 0.01929,0.005 0.0346,0.0109 0.04585,0.019 0.01286,0.006 0.02495,0.0156 0.0362,0.0269 0.0064,0.008 0.01288,0.0182 0.01931,0.031 0.008,0.0129 0.01449,0.0306 0.01931,0.0531 0.0048,0.0225 0.0089,0.0523 0.01207,0.0893 0.0032,0.0354 0.0048,0.0797 0.0048,0.13274 v 1.27768 c 0,0.0498 -0.106033,0.099 -0.318213,0.14722 v 0.17616 h 1.323529 v -0.17616 c -0.151098,-0.0225 -0.260354,-0.0467 -0.327865,-0.0724 -0.0659,-0.0257 -0.09895,-0.0507 -0.09895,-0.0748 v -1.05359 c 0.04822,-0.10609 0.09496,-0.19117 0.139972,-0.25545 0.04661,-0.0643 0.09094,-0.11347 0.132732,-0.14722 0.0418,-0.0354 0.08094,-0.0587 0.117907,-0.07 0.03858,-0.0129 0.07404,-0.0193 0.106186,-0.0193 0.03858,0 0.07323,0.0129 0.103772,0.0386 0.03215,0.0241 0.05874,0.058 0.07964,0.10136 0.0225,0.0418 0.04069,0.0917 0.05516,0.14961 0.01447,0.0579 0.02414,0.11878 0.02896,0.18309 h 0.176172 c 0.01286,-0.029 0.02737,-0.0684 0.04344,-0.11827 0.01607,-0.0498 0.03139,-0.10347 0.04585,-0.16133 0.01447,-0.0579 0.02817,-0.11751 0.04103,-0.17859 0.01286,-0.0611 0.02218,-0.11634 0.02861,-0.16619 0.008,-0.0498 0.01206,-0.0917 0.01206,-0.12548 0,-0.0354 -0.0048,-0.0563 -0.01448,-0.0627 -0.0594,-0.0337 -0.122896,-0.0592 -0.190306,-0.0769 -0.0659,-0.0193 -0.129226,-0.029 -0.190307,-0.029 -0.06912,0 -0.13762,0.0118 -0.205132,0.0359 -0.06751,0.0225 -0.132444,0.0547 -0.195132,0.0965 -0.06108,0.0402 -0.119106,0.0877 -0.173759,0.1424 -0.05465,0.0546 -0.103811,0.11313 -0.147211,0.17583 l -0.03137,-0.34959 z m 2.632922,0 c -0.06108,0 -0.12233,0.006 -0.183411,0.0193 -0.06108,0.0113 -0.120374,0.027 -0.178241,0.0479 -0.05626,0.0193 -0.111061,0.0435 -0.164104,0.0724 -0.05144,0.0273 -0.09783,0.0563 -0.139628,0.0869 -0.165564,0.12056 -0.290132,0.2669 -0.373719,0.43889 -0.08198,0.17038 -0.123078,0.36472 -0.123078,0.58334 0,0.17037 0.02659,0.32556 0.07964,0.46542 0.05305,0.13983 0.124425,0.25957 0.214439,0.35923 0.09162,0.0997 0.197656,0.17703 0.318213,0.23167 0.122164,0.0546 0.251568,0.0817 0.388199,0.0817 0.09645,0 0.185093,-0.007 0.265463,-0.0217 0.08037,-0.0145 0.160616,-0.0407 0.240987,-0.0793 0.08198,-0.0402 0.167057,-0.0958 0.255466,-0.16652 0.08841,-0.0707 0.187995,-0.16226 0.298906,-0.27477 -0.0032,-0.006 -0.0097,-0.0169 -0.01931,-0.0314 -0.0096,-0.0145 -0.02058,-0.0298 -0.03344,-0.0459 -0.01125,-0.0177 -0.02414,-0.0338 -0.03861,-0.0483 -0.01286,-0.0145 -0.02414,-0.0242 -0.03378,-0.029 -0.09484,0.0659 -0.177039,0.1183 -0.246158,0.15685 -0.06912,0.037 -0.131633,0.0656 -0.187894,0.0865 -0.05465,0.0208 -0.10623,0.0346 -0.154452,0.041 -0.04662,0.005 -0.09462,0.007 -0.144454,0.007 -0.09484,0 -0.179456,-0.0194 -0.253397,-0.0579 -0.07233,-0.0402 -0.134043,-0.0955 -0.18548,-0.16617 -0.05144,-0.0707 -0.09173,-0.15454 -0.120666,-0.25099 -0.02734,-0.0981 -0.04265,-0.2049 -0.04585,-0.32062 h 1.14046 c 0.02572,-0.01 0.05473,-0.0226 0.08688,-0.0386 0.03376,-0.0161 0.0668,-0.0327 0.09895,-0.0503 0.03215,-0.0177 0.06197,-0.0362 0.08929,-0.0555 0.02733,-0.0193 0.04793,-0.037 0.0624,-0.0531 0,-0.1302 -0.01819,-0.25477 -0.05516,-0.3737 -0.03536,-0.11896 -0.09097,-0.22339 -0.166519,-0.31339 -0.07394,-0.0916 -0.168691,-0.16497 -0.284424,-0.21962 -0.114129,-0.0546 -0.249979,-0.0817 -0.407506,-0.0817 z m 2.391936,0 c -0.06108,0 -0.12233,0.006 -0.183412,0.0193 -0.06108,0.0113 -0.120717,0.027 -0.178585,0.0479 -0.05626,0.0193 -0.110715,0.0435 -0.163759,0.0724 -0.05144,0.0273 -0.09818,0.0563 -0.139973,0.0869 -0.165565,0.12056 -0.290133,0.2669 -0.373719,0.43889 -0.08198,0.17038 -0.122733,0.36472 -0.122733,0.58334 0,0.17037 0.02625,0.32556 0.07929,0.46542 0.05304,0.13983 0.124769,0.25957 0.214784,0.35923 0.09162,0.0997 0.197656,0.17703 0.318213,0.23167 0.122164,0.0546 0.251568,0.0817 0.388199,0.0817 0.09644,0 0.184747,-0.007 0.265119,-0.0217 0.08037,-0.0145 0.16096,-0.0407 0.241331,-0.0793 0.08198,-0.0402 0.167059,-0.0958 0.255465,-0.16652 0.08841,-0.0707 0.187996,-0.16226 0.298906,-0.27477 -0.0032,-0.006 -0.0097,-0.0169 -0.0193,-0.0314 -0.0096,-0.0145 -0.02093,-0.0298 -0.03379,-0.0459 -0.01125,-0.0177 -0.02414,-0.0338 -0.03861,-0.0483 -0.01286,-0.0145 -0.02414,-0.0242 -0.03379,-0.029 -0.09484,0.0659 -0.176694,0.1183 -0.245813,0.15685 -0.06912,0.037 -0.131633,0.0656 -0.187895,0.0865 -0.05465,0.0208 -0.106227,0.0346 -0.154451,0.041 -0.04661,0.005 -0.09497,0.007 -0.144799,0.007 -0.09484,0 -0.179111,-0.0194 -0.253052,-0.0579 -0.07233,-0.0402 -0.134043,-0.0955 -0.18548,-0.16617 -0.05144,-0.0707 -0.09173,-0.15454 -0.120667,-0.25099 -0.02734,-0.0981 -0.04265,-0.2049 -0.04585,-0.32062 h 1.140462 c 0.02572,-0.01 0.05473,-0.0226 0.08688,-0.0386 0.03376,-0.0161 0.06645,-0.0327 0.0986,-0.0503 0.03215,-0.0177 0.06197,-0.0362 0.08929,-0.0555 0.02733,-0.0193 0.04828,-0.037 0.06274,-0.0531 0,-0.1302 -0.01854,-0.25477 -0.05551,-0.3737 -0.03536,-0.11896 -0.09063,-0.22339 -0.166174,-0.31339 -0.07394,-0.0916 -0.169036,-0.16497 -0.284771,-0.21962 -0.114126,-0.0546 -0.249631,-0.0817 -0.407159,-0.0817 z m 9.786665,0 c -0.1736,0 -0.333628,0.0351 -0.479904,0.10584 -0.144667,0.0691 -0.270042,0.16179 -0.376132,0.27753 -0.104481,0.11574 -0.186337,0.24803 -0.245811,0.39752 -0.05787,0.14949 -0.08688,0.30387 -0.08688,0.463 0,0.16397 0.02579,0.31593 0.07723,0.45577 0.05304,0.13985 0.126841,0.26039 0.22168,0.36166 0.09484,0.10125 0.209735,0.1807 0.344758,0.23856 0.135023,0.0579 0.285379,0.0869 0.450945,0.0869 0.10609,0 0.208898,-0.0161 0.308559,-0.0483 0.101268,-0.0305 0.195556,-0.0737 0.282358,-0.12998 0.08841,-0.0563 0.168653,-0.12314 0.240985,-0.2003 0.07233,-0.0788 0.134044,-0.16384 0.18548,-0.25547 0.05305,-0.0916 0.09415,-0.18878 0.12308,-0.29166 0.0289,-0.10276 0.04341,-0.20823 0.04344,-0.3158 0,0 0,-3.4e-4 0,-3.4e-4 -3.7e-5,-0.16382 -0.02583,-0.31568 -0.07723,-0.45543 -0.05144,-0.13985 -0.125235,-0.26038 -0.22168,-0.36164 -0.09484,-0.1029 -0.209735,-0.18348 -0.344758,-0.24134 -0.133416,-0.0579 -0.282161,-0.0865 -0.446119,-0.0865 z m -12.265481,0.28925 c 0.08198,0 0.150134,0.019 0.204788,0.0576 0.05465,0.0386 0.09817,0.0861 0.130318,0.14238 0.03376,0.0546 0.05713,0.11348 0.06999,0.17618 0.01286,0.0611 0.01931,0.11553 0.01931,0.16376 0,0.0337 -0.0064,0.0571 -0.01931,0.07 -0.01125,0.0112 -0.03543,0.0169 -0.0724,0.0169 h -0.802943 c 0.0096,-0.0964 0.02496,-0.18314 0.04585,-0.26029 0.02251,-0.0772 0.05232,-0.14325 0.08929,-0.19789 0.03858,-0.0547 0.08532,-0.0962 0.139972,-0.12515 0.05465,-0.0289 0.119585,-0.0435 0.195132,-0.0435 z m 2.391938,0 c 0.08198,0 0.150134,0.019 0.204785,0.0576 0.05465,0.0386 0.09817,0.0861 0.130319,0.14238 0.03376,0.0546 0.05713,0.11348 0.06999,0.17618 0.01286,0.0611 0.0193,0.11553 0.0193,0.16376 0,0.0337 -0.0064,0.0571 -0.0193,0.07 -0.01126,0.0112 -0.03543,0.0169 -0.0724,0.0169 h -0.802944 c 0.0096,-0.0964 0.02496,-0.18314 0.04585,-0.26029 0.02251,-0.0772 0.05232,-0.14325 0.08929,-0.19789 0.03858,-0.0547 0.08498,-0.0962 0.139626,-0.12515 0.05465,-0.0289 0.119931,-0.0435 0.19548,-0.0435 z m 9.803558,0.0121 c 0.08198,0 0.156581,0.0258 0.224093,0.0772 0.06912,0.0514 0.127948,0.1212 0.176172,0.20962 0.04822,0.0868 0.08529,0.18799 0.111012,0.30373 0.02733,0.11412 0.04102,0.23466 0.04102,0.36165 0,0.13341 -0.0089,0.25153 -0.02655,0.35441 -0.01608,0.10287 -0.04428,0.18991 -0.08447,0.26064 -0.04019,0.0707 -0.09257,0.12437 -0.156865,0.16134 -0.0643,0.037 -0.144542,0.0555 -0.240987,0.0555 -0.07394,0 -0.14486,-0.0234 -0.21237,-0.07 -0.06591,-0.0482 -0.124392,-0.11315 -0.175828,-0.19514 -0.04983,-0.082 -0.09012,-0.17868 -0.120665,-0.28959 -0.02893,-0.11091 -0.04344,-0.22984 -0.04344,-0.35683 0,-0.12377 0.0073,-0.23867 0.02172,-0.34475 0.01607,-0.1077 0.04348,-0.20003 0.08205,-0.27719 0.03858,-0.0788 0.09096,-0.13966 0.156865,-0.18306 0.0659,-0.045 0.148565,-0.0676 0.248226,-0.0676 z m -23.82662,0.87741 v 0.53299 c -0.06108,0.0514 -0.116689,0.0942 -0.166518,0.1279 -0.04822,0.0322 -0.09335,0.0576 -0.135146,0.0769 -0.04018,0.0177 -0.07691,0.0306 -0.110667,0.0386 -0.03376,0.006 -0.06599,0.01 -0.09653,0.01 -0.02089,0 -0.04426,-0.004 -0.06999,-0.0121 -0.02572,-0.008 -0.0507,-0.0225 -0.07481,-0.0434 -0.02251,-0.0209 -0.04185,-0.0487 -0.05792,-0.0841 -0.01447,-0.0354 -0.02172,-0.0805 -0.02172,-0.13514 0,-0.0675 0.01289,-0.1252 0.03861,-0.17343 0.02572,-0.0482 0.05956,-0.0933 0.101359,-0.13514 0.0209,-0.0209 0.04507,-0.0402 0.0724,-0.0579 0.02893,-0.0177 0.066,-0.0346 0.111012,-0.0507 0.04501,-0.0161 0.10027,-0.0314 0.166174,-0.0459 0.0659,-0.0161 0.147299,-0.0322 0.243744,-0.0483 z m 15.942332,0.49437 c -0.05787,0 -0.114278,0.01 -0.168931,0.029 -0.05304,0.0193 -0.100246,0.0467 -0.142041,0.0821 -0.04019,0.0354 -0.07242,0.0789 -0.09653,0.1303 -0.02411,0.0514 -0.0362,0.10831 -0.0362,0.17101 0,0.0579 0.0089,0.10782 0.02655,0.14962 0.01929,0.0402 0.04508,0.0732 0.07723,0.099 0.03215,0.0273 0.06887,0.0463 0.110667,0.0576 0.0434,0.0129 0.08853,0.0193 0.135147,0.0193 0.06108,0 0.117955,-0.01 0.171,-0.0289 0.05465,-0.0177 0.101393,-0.0443 0.139972,-0.0797 0.04018,-0.0354 0.07161,-0.0785 0.09412,-0.12997 0.02411,-0.0514 0.0362,-0.10947 0.0362,-0.17376 0,-0.0562 -0.0097,-0.10425 -0.02896,-0.14446 -0.01929,-0.0418 -0.04508,-0.0756 -0.07723,-0.10136 -0.03215,-0.0273 -0.06922,-0.0475 -0.111013,-0.0603 -0.04179,-0.0129 -0.08497,-0.0193 -0.129975,-0.0193 z m -6.675217,3.84096 c -0.033,0 -0.06502,0.0265 -0.07102,0.059 l -0.2565,1.37868 c -0.0061,0.0325 -0.0368,0.0675 -0.06826,0.0779 l -0.923955,0.37854 c -0.02967,0.0146 -0.07626,0.0112 -0.103426,-0.008 l -1.151839,-0.79053 c -0.02733,-0.0187 -0.0687,-0.0149 -0.09205,0.009 l -0.970151,0.97015 c -0.02335,0.0234 -0.02701,0.0648 -0.0083,0.092 l 0.776396,1.13184 c 0.01865,0.0274 0.02172,0.0736 0.0066,0.10309 l -0.408539,0.9529 c -0.01087,0.0313 -0.04636,0.0618 -0.07895,0.0679 l -1.332837,0.24788 c -0.0326,0.006 -0.05895,0.0383 -0.05895,0.0714 v 1.37179 c 0,0.0331 0.02644,0.0651 0.05895,0.071 l 1.300085,0.24202 c 0.03251,0.006 0.06733,0.0367 0.07723,0.0683 l 0.405781,1.01394 c 0.01451,0.0297 0.01122,0.0765 -0.0076,0.10378 l -0.738473,1.07599 c -0.01865,0.0272 -0.01473,0.0686 0.0086,0.092 l 0.970151,0.97014 c 0.02335,0.0233 0.06472,0.0272 0.09205,0.009 l 1.05703,-0.72573 c 0.02725,-0.0187 0.0729,-0.0202 0.10136,-0.003 l 0.466113,0.24892 c 0.02951,0.0151 0.06423,0.003 0.07688,-0.0279 l 0.961187,-2.32299 c 0.01273,-0.0306 -5.6e-5,-0.0696 -0.02827,-0.0869 l -0.116527,-0.0714 c -0.02157,-0.0131 -0.05083,-0.0358 -0.07378,-0.0565 -0.420887,-0.26951 -0.700205,-0.74077 -0.700205,-1.27768 0,-0.83787 0.679138,-1.51728 1.516938,-1.51728 0.837802,0 1.517283,0.67941 1.517283,1.51728 0,0.53691 -0.279237,1.00817 -0.700204,1.27768 -0.02278,0.0208 -0.05229,0.0434 -0.07378,0.0565 l -0.116529,0.0714 c -0.02805,0.0173 -0.04092,0.0563 -0.02827,0.0869 l 0.961187,2.32299 c 0.01265,0.0306 0.04694,0.0433 0.07654,0.0283 l 0.466459,-0.2489 c 0.02854,-0.0166 0.07411,-0.0155 0.101359,0.003 l 1.05703,0.72573 c 0.02725,0.0185 0.06878,0.0147 0.09205,-0.009 l 0.97015,-0.9698 c 0.02343,-0.0234 0.02735,-0.0652 0.0086,-0.0924 l -0.738818,-1.07599 c -0.01865,-0.0272 -0.0221,-0.074 -0.0076,-0.10378 l 0.406125,-1.01359 c 0.01,-0.0316 0.04429,-0.0627 0.07688,-0.0686 l 1.300084,-0.24167 c 0.03243,-0.006 0.0593,-0.0383 0.0593,-0.0714 v -1.37179 c 8.2e-5,-0.0332 -0.02652,-0.0652 -0.05895,-0.0714 l -1.332837,-0.24788 c -0.03243,-0.006 -0.068,-0.0366 -0.07895,-0.0679 l -0.408539,-0.9529 c -0.01524,-0.0294 -0.01224,-0.0757 0.0066,-0.10309 l 0.776741,-1.13184 c 0.01857,-0.0272 0.01481,-0.0686 -0.0086,-0.092 l -0.97015,-0.97015 c -0.02343,-0.0234 -0.06446,-0.0273 -0.09171,-0.009 l -1.151839,0.79053 c -0.02724,0.0187 -0.07418,0.0222 -0.103772,0.008 l -0.923952,-0.37854 c -0.03138,-0.0104 -0.06175,-0.0454 -0.06792,-0.0779 l -0.256845,-1.37868 c -0.006,-0.0325 -0.03794,-0.059 -0.07102,-0.059 z m -5.696449,10.88507 c -0.226862,0 -0.361893,0.0978 -0.442325,0.18686 -0.111972,0.12356 -0.1579,0.24408 -0.1579,0.55713 0,0.31581 0.04593,0.43641 0.1579,0.55988 0.08043,0.089 0.215463,0.18652 0.442325,0.18652 0.226781,0 0.361549,-0.0975 0.441981,-0.18652 0.111971,-0.12347 0.158244,-0.24416 0.158244,-0.55988 0,-0.31305 -0.04627,-0.43364 -0.158244,-0.55713 -0.08043,-0.089 -0.2152,-0.18686 -0.441981,-0.18686 z m 1.519007,0 c -0.149349,0 -0.284187,0.0691 -0.376132,0.16963 v -0.15239 h -0.294079 v 3.75546 h 0.293045 v -0.86707 c 0,-0.19824 0.123403,-0.31305 0.289942,-0.31305 0.163701,0 0.287184,0.11481 0.287184,0.31305 v 0.86707 h 0.2927 v -0.96773 c 0,-0.33018 -0.258213,-0.50542 -0.485075,-0.50542 -0.155026,0 -0.28713,0.0576 -0.384751,0.17236 l 0.001,-1.1539 c 0.109135,0.10338 0.226783,0.17238 0.376132,0.17238 0.177971,0 0.307343,-0.0805 0.390612,-0.18961 0.08035,-0.10323 0.103427,-0.19802 0.103427,-0.55403 0,-0.35902 -0.02308,-0.45376 -0.103427,-0.55714 -0.08327,-0.10912 -0.212641,-0.18961 -0.390612,-0.18961 z m 1.291811,0 c -0.28151,0 -0.600225,0.18389 -0.600225,0.7495 0,0.59716 0.34746,0.74089 0.646079,0.74089 0.195322,0 0.381819,-0.0689 0.525411,-0.23547 l -0.212716,-0.18065 c -0.08611,0.089 -0.206586,0.14065 -0.318557,0.14065 -0.201079,0 -0.347517,-0.12086 -0.347517,-0.35923 h 0.907406 v -0.24099 c 0,-0.37628 -0.278317,-0.6147 -0.599881,-0.6147 z m 1.527626,0 c -0.155025,0 -0.287107,0.0576 -0.37889,0.17238 h -0.0059 v -0.15514 h -0.293045 v 1.45591 h 0.293045 v -0.86707 c 0,-0.19823 0.123405,-0.31303 0.289943,-0.31303 0.163701,0 0.287183,0.1148 0.287183,0.31303 v 0.86707 h 0.2927 v -0.96774 c 0,-0.33031 -0.258212,-0.50541 -0.485075,-0.50541 z m 3.287274,0 c -0.226782,0 -0.361895,0.0978 -0.442326,0.18686 -0.111971,0.12356 -0.157899,0.24408 -0.157899,0.55713 0,0.31581 0.04593,0.43641 0.157899,0.55988 0.08043,0.089 0.215544,0.18652 0.442326,0.18652 0.226943,0 0.361894,-0.0975 0.442325,-0.18652 0.111973,-0.12347 0.157555,-0.24416 0.157555,-0.55988 0,-0.31305 -0.04558,-0.43364 -0.157555,-0.55713 -0.08043,-0.089 -0.215382,-0.18686 -0.442325,-0.18686 z m 3.011812,0 c -0.155026,0 -0.287371,0.0576 -0.379234,0.17238 h -0.0055 v -0.15514 h -0.293045 v 1.45591 h 0.293045 v -0.87568 c 0,-0.21251 0.140407,-0.30442 0.284081,-0.30442 0.07476,0 0.123803,0.02 0.19272,0.0717 l 0.212371,-0.2527 c -0.08919,-0.0689 -0.186612,-0.11205 -0.304422,-0.11205 z m 0.929814,0 c -0.335914,0 -0.660212,0.21242 -0.660212,0.7464 0,0.53149 0.324298,0.74399 0.660212,0.74399 0.221107,0 0.396493,-0.10644 0.522655,-0.25271 l -0.215474,-0.19237 c -0.07175,0.089 -0.174973,0.15238 -0.295458,0.15238 -0.238296,0 -0.379235,-0.13531 -0.379235,-0.45129 0,-0.31863 0.140858,-0.45335 0.379235,-0.45335 0.120485,0 0.223782,0.063 0.295458,0.15203 l 0.215474,-0.19237 c -0.126243,-0.14652 -0.30163,-0.25271 -0.522655,-0.25271 z m 1.197347,0 c -0.28159,0 -0.600225,0.18389 -0.600225,0.7495 0,0.59716 0.347379,0.74089 0.646078,0.74089 0.195242,0 0.381982,-0.0689 0.525412,-0.23547 l -0.21237,-0.18065 c -0.08619,0.089 -0.206584,0.14065 -0.318558,0.14065 -0.201078,0 -0.347516,-0.12086 -0.347516,-0.35923 h 0.907405 v -0.24099 c 0,-0.37628 -0.278823,-0.6147 -0.600226,-0.6147 z m -6.511802,3.5e-4 c -0.307213,0 -0.54265,0.15205 -0.54265,0.44784 0,0.24972 0.178094,0.39326 0.419226,0.41336 l 0.258569,0.0231 c 0.100621,0.009 0.177896,0.0401 0.177896,0.14342 0,0.12349 -0.120726,0.18686 -0.287185,0.18686 -0.195239,0 -0.332894,-0.0633 -0.459218,-0.18686 l -0.204097,0.201 c 0.186647,0.17514 0.405105,0.26133 0.640562,0.26133 0.338834,0 0.602982,-0.16349 0.602982,-0.44784 0,-0.23245 -0.120711,-0.41636 -0.422328,-0.43647 l -0.240987,-0.0172 c -0.146431,-0.0116 -0.192375,-0.0747 -0.192375,-0.13791 0,-0.10037 0.06304,-0.17514 0.249605,-0.17514 0.158026,0 0.275802,0.0549 0.390611,0.13516 l 0.180999,-0.21238 c -0.143593,-0.12065 -0.315884,-0.19823 -0.57161,-0.19823 z m 2.223004,0.0169 v 0.96773 c 0,0.33016 0.258479,0.50542 0.488179,0.50542 0.152025,0 0.284266,-0.0576 0.376131,-0.17238 h 0.0055 v 0.15514 h 0.292701 v -1.45591 h -0.292701 v 0.86707 c 0,0.19808 -0.123401,0.31303 -0.287184,0.31303 -0.166457,0 -0.289942,-0.11495 -0.289942,-0.31303 v -0.86707 z m -5.665075,0.25856 c 0.172296,0 0.298586,0.11763 0.307179,0.3389 h -0.614704 c 0.0057,-0.22127 0.135229,-0.3389 0.307525,-0.3389 z m 9.953873,0 c 0.172296,0 0.298505,0.11763 0.307181,0.3389 h -0.61436 c 0.0057,-0.22127 0.134885,-0.3389 0.307179,-0.3389 z m -12.764691,0.0169 c 0.100459,0 0.192336,0.0462 0.23547,0.10653 0.05457,0.0774 0.07171,0.13467 0.07171,0.34718 0,0.20968 -0.01714,0.26717 -0.07171,0.34477 -0.04313,0.0603 -0.135011,0.10617 -0.23547,0.10617 -0.100539,0 -0.192417,-0.0458 -0.23547,-0.10617 -0.05457,-0.0776 -0.07206,-0.13502 -0.07206,-0.34753 0,-0.20966 0.01749,-0.26698 0.07206,-0.34442 0.04305,-0.0603 0.134931,-0.10653 0.23547,-0.10653 z m 7.625718,0 c 0.10054,0 0.192417,0.0462 0.235471,0.10653 0.05465,0.0774 0.07171,0.13467 0.07171,0.34718 0,0.20968 -0.01706,0.26717 -0.07171,0.34477 -0.04305,0.0603 -0.134931,0.10617 -0.235471,0.10617 -0.100378,0 -0.192578,-0.0458 -0.23547,-0.10617 -0.05465,-0.0776 -0.07171,-0.13502 -0.07171,-0.34753 0,-0.20966 0.01706,-0.26698 0.07171,-0.34442 0.04289,-0.0603 0.135092,-0.10653 0.23547,-0.10653 z m -6.195659,3.6e-4 c 0.275674,0 0.289942,0.22675 0.289942,0.4537 0,0.22394 -0.01427,0.45094 -0.289942,0.45094 -0.272836,0 -0.287184,-0.24128 -0.287184,-0.45094 0,-0.21251 0.01443,-0.4537 0.287184,-0.4537 z m 4.139519,1.43488 v 0.74398 c -0.109135,-0.10336 -0.226783,-0.17236 -0.376132,-0.17236 -0.178052,0 -0.307343,0.0803 -0.390612,0.18961 -0.08043,0.10321 -0.103428,0.19802 -0.103428,0.55437 0,0.35886 0.02299,0.45342 0.103428,0.55678 0.08327,0.10914 0.21256,0.18962 0.390612,0.18962 0.149349,0 0.284267,-0.0689 0.376132,-0.16928 v 0.15205 h 0.292699 v -2.04477 z m -2.785651,0.57162 c -0.218267,0 -0.37931,0.0575 -0.491281,0.2127 l 0.229954,0.17514 c 0.05165,-0.0833 0.123274,-0.11239 0.275461,-0.11239 0.209592,0 0.298562,0.0491 0.298562,0.18686 v 0.15203 h -0.404747 c -0.312969,0 -0.473698,0.19843 -0.473698,0.43095 0,0.25274 0.189552,0.44509 0.514035,0.44509 0.19816,0 0.29865,-0.0459 0.358894,-0.14651 h 0.0055 v 0.12928 h 0.293045 v -0.99359 c 0,-0.35886 -0.2468,-0.47956 -0.605741,-0.47956 z m 1.605197,0 c -0.155026,0 -0.287026,0.0576 -0.378891,0.17236 h -0.0059 v -0.15514 h -0.293046 v 1.45593 h 0.293046 v -0.87603 c 0,-0.21235 0.140832,-0.30442 0.284426,-0.30442 0.07467,0 0.123458,0.0202 0.192375,0.072 l 0.212372,-0.25272 c -0.08903,-0.0689 -0.186613,-0.11203 -0.304422,-0.11203 z m 4.280178,0 c -0.218185,0 -0.378965,0.0575 -0.490936,0.2127 l 0.229609,0.17514 c 0.05165,-0.0833 0.123276,-0.11239 0.275463,-0.11239 0.209673,0 0.298906,0.0491 0.298906,0.18686 v 0.15203 h -0.405092 c -0.312887,0 -0.473699,0.19843 -0.473697,0.43095 0,0.25274 0.189552,0.44509 0.514033,0.44509 0.19808,0 0.298571,-0.0459 0.358895,-0.14651 h 0.0059 v 0.12928 h 0.293045 v -0.99359 c 0,-0.35886 -0.247225,-0.47956 -0.606087,-0.47956 z m 1.605197,0 c -0.155024,0 -0.287026,0.0576 -0.378889,0.17236 h -0.0059 v -0.15514 h -0.292701 v 1.45593 h 0.292701 v -0.87603 c 0,-0.21235 0.140751,-0.30442 0.284425,-0.30442 0.07476,0 0.123457,0.0202 0.192376,0.072 l 0.212371,-0.25272 c -0.08903,-0.0689 -0.186774,-0.11203 -0.304422,-0.11203 z m 0.910163,0 c -0.281429,0 -0.600225,0.18387 -0.600225,0.7495 0,0.59732 0.347379,0.74088 0.646079,0.74088 0.195241,0 0.381819,-0.0689 0.525411,-0.23548 l -0.21237,-0.18098 c -0.08619,0.0892 -0.207093,0.14065 -0.318902,0.14065 -0.201079,0 -0.347172,-0.12068 -0.347172,-0.35889 h 0.907059 v -0.24134 c 0,-0.37612 -0.278317,-0.61434 -0.59988,-0.61434 z m -5.16552,0.0172 0.465081,1.45593 h 0.258568 l 0.304422,-1.01945 h 0.0055 l 0.304422,1.01945 h 0.258569 l 0.46508,-1.45593 h -0.310282 l -0.278222,1.01946 h -0.0059 l -0.330278,-1.01946 H 22.12656 l -0.330278,1.01946 h -0.0059 l -0.278565,-1.01946 z m 5.16552,0.25823 c 0.172296,0 0.298667,0.11779 0.307181,0.33889 h -0.61436 c 0.0057,-0.2211 0.134885,-0.33889 0.307179,-0.33889 z m -5.902269,0.0173 c 0.272834,0 0.287185,0.24161 0.287185,0.45128 0,0.21251 -0.01435,0.45336 -0.287185,0.45336 -0.275673,0 -0.289941,-0.22657 -0.289941,-0.45336 0,-0.22411 0.01427,-0.45128 0.289941,-0.45128 z m -2.536044,0.56298 h 0.350274 v 0.10619 c 0,0.22695 -0.08312,0.2527 -0.327177,0.2527 -0.198159,0 -0.275807,-0.0862 -0.275807,-0.18375 0,-0.1063 0.08033,-0.17514 0.25271,-0.17514 z m 5.885721,0 h 0.350274 v 0.10619 c 0,0.22695 -0.08347,0.2527 -0.327521,0.2527 -0.198078,0 -0.275461,-0.0862 -0.275461,-0.18375 0,-0.1063 0.08041,-0.17514 0.252708,-0.17514 z"
       id="path1188"
       inkscape:connector-curvature="0" />
  </g>
</svg>
