999
Inkscape export via OpenSCAD DXF Export
  0
SECTION
  2
HEADER
  9
$ACADVER
  1
AC1014
  9
$HANDSEED
  5
FFFF
  9
$MEASUREMENT
 70
     1
  0
ENDSEC
  0
SECTION
  2
TABLES
  0
TABLE
  2
VPORT
  5
8
330
0
100
AcDbSymbolTable
 70
     4
  0
VPORT
  5
2E
330
8
100
AcDbSymbolTableRecord
100
AcDbViewportTableRecord
  2
*ACTIVE
 70
     0
 10
0.0
 20
0.0
 11
1.0
 21
1.0
 12
210.0
 22
148.5
 13
0.0
 23
0.0
 14
10.0
 24
10.0
 15
10.0
 25
10.0
 16
0.0
 26
0.0
 36
1.0
 17
0.0
 27
0.0
 37
0.0
 40
341.0
 41
1.24
 42
50.0
 43
0.0
 44
0.0
 50
0.0
 51
0.0
 71
     0
 72
   100
 73
     1
 74
     3
 75
     0
 76
     0
 77
     0
 78
     0
  0
ENDTAB
  0
TABLE
  2
LTYPE
  5
5
330
0
100
AcDbSymbolTable
 70
     1
  0
LTYPE
  5
14
330
5
100
AcDbSymbolTableRecord
100
AcDbLinetypeTableRecord
  2
BYBLOCK
 70
     0
  3

 72
    65
 73
     0
 40
0.0
  0
LTYPE
  5
15
330
5
100
AcDbSymbolTableRecord
100
AcDbLinetypeTableRecord
  2
BYLAYER
 70
     0
  3

 72
    65
 73
     0
 40
0.0
  0
LTYPE
  5
16
330
5
100
AcDbSymbolTableRecord
100
AcDbLinetypeTableRecord
  2
CONTINUOUS
 70
     0
  3
Solid line
 72
    65
 73
     0
 40
0.0
  0
ENDTAB
  0
TABLE
0
TABLE
2
LAYER
5
2
330
0
100
AcDbSymbolTable
70
1
0
LAYER
5
10
330
2
100
AcDbSymbolTableRecord
100
AcDbLayerTableRecord
2
Layer_1
70
0
62
7
6
CONTINUOUS
0
ENDTAB
0
ENDSEC
  0
ENDTAB
  0
TABLE
  2
STYLE
  5
3
330
0
100
AcDbSymbolTable
 70
     1
  0
STYLE
  5
11
330
3
100
AcDbSymbolTableRecord
100
AcDbTextStyleTableRecord
  2
STANDARD
 70
     0
 40
0.0
 41
1.0
 50
0.0
 71
     0
 42
2.5
  3
txt
  4

  0
ENDTAB
  0
TABLE
  2
VIEW
  5
6
330
0
100
AcDbSymbolTable
 70
     0
  0
ENDTAB
  0
TABLE
  2
UCS
  5
7
330
0
100
AcDbSymbolTable
 70
     0
  0
ENDTAB
  0
TABLE
  2
APPID
  5
9
330
0
100
AcDbSymbolTable
 70
     2
  0
APPID
  5
12
330
9
100
AcDbSymbolTableRecord
100
AcDbRegAppTableRecord
  2
ACAD
 70
     0
  0
ENDTAB
  0
TABLE
  2
DIMSTYLE
  5
A
330
0
100
AcDbSymbolTable
 70
     1
  0
DIMSTYLE
105
27
330
A
100
AcDbSymbolTableRecord
100
AcDbDimStyleTableRecord
  2
ISO-25
 70
     0
  3

  4

  5

  6

  7

 40
1.0
 41
2.5
 42
0.625
 43
3.75
 44
1.25
 45
0.0
 46
0.0
 47
0.0
 48
0.0
140
2.5
141
2.5
142
0.0
143
0.03937007874016
144
1.0
145
0.0
146
1.0
147
0.625
 71
     0
 72
     0
 73
     0
 74
     0
 75
     0
 76
     0
 77
     1
 78
     8
170
     0
171
     3
172
     1
173
     0
174
     0
175
     0
176
     0
177
     0
178
     0
270
     2
271
     2
272
     2
273
     2
274
     3
340
11
275
     0
280
     0
281
     0
282
     0
283
     0
284
     8
285
     0
286
     0
287
     3
288
     0
  0
ENDTAB
  0
TABLE
  2
BLOCK_RECORD
  5
1
330
0
100
AcDbSymbolTable
 70
     1
  0
BLOCK_RECORD
  5
1F
330
1
100
AcDbSymbolTableRecord
100
AcDbBlockTableRecord
  2
*MODEL_SPACE
  0
BLOCK_RECORD
  5
1B
330
1
100
AcDbSymbolTableRecord
100
AcDbBlockTableRecord
  2
*PAPER_SPACE
  0
ENDTAB
  0
ENDSEC
  0
SECTION
  2
BLOCKS
  0
BLOCK
  5
20
330
1F
100
AcDbEntity
  8
0
100
AcDbBlockBegin
  2
*MODEL_SPACE
 70
     0
 10
0.0
 20
0.0
 30
0.0
  3
*MODEL_SPACE
  1

  0
ENDBLK
  5
21
330
1F
100
AcDbEntity
  8
0
100
AcDbBlockEnd
  0
BLOCK
  5
1C
330
1B
100
AcDbEntity
 67
     1
  8
0
100
AcDbBlockBegin
  2
*PAPER_SPACE
  1

  0
ENDBLK
  5
1D
330
1B
100
AcDbEntity
 67
     1
  8
0
100
AcDbBlockEnd
  0
ENDSEC
  0
SECTION
  2
ENTITIES
0
DIMENSION
5
83
100
AcDbEntity
62
256
370
-1
6
ByLayer
1
total_width
3
Standard
70
0
71
5
72
1
41
1.0
100
AcDbAlignedDimension
13
0.000000
23
0.000000
33
0.0
14
43.130345
24
0.000000
34
0.0
50
0.000000
100
AcDbRotatedDimension
0
DIMENSION
5
83
100
AcDbEntity
62
256
370
-1
6
ByLayer
1
total_minx
3
Standard
70
0
71
5
72
1
41
1.0
100
AcDbAlignedDimension
13
0.000000
23
0.000000
33
0.0
14
0.000000
24
0.000000
34
0.0
50
0.000000
100
AcDbRotatedDimension
0
DIMENSION
5
83
100
AcDbEntity
62
256
370
-1
6
ByLayer
1
total_maxx
3
Standard
70
0
71
5
72
1
41
1.0
100
AcDbAlignedDimension
13
0.000000
23
0.000000
33
0.0
14
43.130345
24
0.000000
34
0.0
50
0.000000
100
AcDbRotatedDimension
0
DIMENSION
5
83
100
AcDbEntity
62
256
370
-1
6
ByLayer
1
total_height
3
Standard
70
0
71
5
72
1
41
1.0
100
AcDbAlignedDimension
13
0.000000
23
-0.000200
33
0.0
14
0.000000
24
33.956710
34
0.0
50
90.000000
100
AcDbRotatedDimension
0
DIMENSION
5
83
100
AcDbEntity
62
256
370
-1
6
ByLayer
1
total_miny
3
Standard
70
0
71
5
72
1
41
1.0
100
AcDbAlignedDimension
13
-0.000200
23
0.000000
33
0.0
14
0.000000
24
0.000000
34
0.0
50
0.000000
100
AcDbRotatedDimension
0
DIMENSION
5
83
100
AcDbEntity
62
256
370
-1
6
ByLayer
1
total_maxy
3
Standard
70
0
71
5
72
1
41
1.0
100
AcDbAlignedDimension
13
0.000000
23
0.000000
33
0.0
14
33.956710
24
0.000000
34
0.0
50
0.000000
100
AcDbRotatedDimension
0
DIMENSION
8
Layer_1
5
83
100
AcDbEntity
62
256
370
-1
6
ByLayer
1
Layer_1_width
3
Standard
70
0
71
5
72
1
41
1.0
100
AcDbAlignedDimension
13
0.000000
23
0.000000
33
0.0
14
43.130345
24
0.000000
34
0.0
50
0.000000
100
AcDbRotatedDimension
0
DIMENSION
8
Layer_1
5
83
100
AcDbEntity
62
256
370
-1
6
ByLayer
1
Layer_1_minx
3
Standard
70
0
71
5
72
1
41
1.0
100
AcDbAlignedDimension
13
0.000000
23
0.000000
33
0.0
14
0.000000
24
0.000000
34
0.0
50
0.000000
100
AcDbRotatedDimension
0
DIMENSION
8
Layer_1
5
83
100
AcDbEntity
62
256
370
-1
6
ByLayer
1
Layer_1_maxx
3
Standard
70
0
71
5
72
1
41
1.0
100
AcDbAlignedDimension
13
0.000000
23
0.000000
33
0.0
14
43.130345
24
0.000000
34
0.0
50
0.000000
100
AcDbRotatedDimension
0
DIMENSION
8
Layer_1
5
83
100
AcDbEntity
62
256
370
-1
6
ByLayer
1
Layer_1_height
3
Standard
70
0
71
5
72
1
41
1.0
100
AcDbAlignedDimension
13
0.000000
23
-0.000200
33
0.0
14
0.000000
24
33.956710
34
0.0
50
90.000000
100
AcDbRotatedDimension
0
DIMENSION
8
Layer_1
5
83
100
AcDbEntity
62
256
370
-1
6
ByLayer
1
Layer_1_miny
3
Standard
70
0
71
5
72
1
41
1.0
100
AcDbAlignedDimension
13
-0.000200
23
0.000000
33
0.0
14
0.000000
24
0.000000
34
0.0
50
0.000000
100
AcDbRotatedDimension
0
DIMENSION
8
Layer_1
5
83
100
AcDbEntity
62
256
370
-1
6
ByLayer
1
Layer_1_maxy
3
Standard
70
0
71
5
72
1
41
1.0
100
AcDbAlignedDimension
13
0.000000
23
0.000000
33
0.0
14
33.956710
24
0.000000
34
0.0
50
0.000000
100
AcDbRotatedDimension
62
0
0
LWPOLYLINE
100
AcDbPolyline
8
Layer_1
90
40
70
0
10
20.735858
20
33.956710
30
0.0
10
20.395927
20
33.870210
30
0.0
10
19.918435
20
33.800210
30
0.0
10
19.918435
20
33.633690
30
0.0
10
20.113569
20
33.607190
30
0.0
10
20.210099
20
33.549590
30
0.0
10
20.243889
20
33.428930
30
0.0
10
20.248689
20
33.218970
30
0.0
10
20.248689
20
32.392240
30
0.0
10
20.005288
20
32.507730
30
0.0
10
19.780851
20
32.534230
30
0.0
10
19.305773
20
32.430460
30
0.0
10
18.934469
20
32.153270
30
0.0
10
18.693481
20
31.755420
30
0.0
10
18.609021
20
31.289990
30
0.0
10
18.686251
20
30.810430
30
0.0
10
18.888623
20
30.451200
30
0.0
10
19.170981
20
30.224340
30
0.0
10
19.491607
20
30.147140
30
0.0
10
19.696392
20
30.171240
30
0.0
10
19.879805
20
30.246040
30
0.0
10
20.060458
20
30.376360
30
0.0
10
20.265589
20
30.569080
30
0.0
10
20.345085
20
30.252606
30
0.0
10
20.487269
20
30.147100
30
0.0
10
20.595869
20
30.173600
30
0.0
10
20.767214
20
30.246000
30
0.0
10
20.979240
20
30.357020
30
0.0
10
21.203333
20
30.494230
30
0.0
10
21.136103
20
30.670400
30
0.0
10
21.027505
20
30.627000
30
0.0
10
20.957515
20
30.607700
30
0.0
10
20.914075
20
30.607700
30
0.0
10
20.882705
20
30.619800
30
0.0
10
20.856155
20
30.648800
30
0.0
10
20.839265
20
30.704300
30
0.0
10
20.829565
20
30.798400
30
0.0
10
20.827165
20
30.940440
30
0.0
10
20.827165
20
33.867790
30
0.0
10
20.735858
20
33.956710
30
0.0
62
0
0
LWPOLYLINE
100
AcDbPolyline
8
Layer_1
90
24
70
0
10
28.482587
20
33.956710
30
0.0
10
28.297105
20
33.889110
30
0.0
10
28.111281
20
33.838410
30
0.0
10
27.913734
20
33.797710
30
0.0
10
27.689296
20
33.763910
30
0.0
10
27.689296
20
33.594980
30
0.0
10
27.853401
20
33.570880
30
0.0
10
27.949931
20
33.529880
30
0.0
10
27.995781
20
33.440880
30
0.0
10
28.007851
20
33.271950
30
0.0
10
28.007851
20
30.542500
30
0.0
10
27.993371
20
30.503900
30
0.0
10
27.940281
20
30.465600
30
0.0
10
27.834096
20
30.429400
30
0.0
10
27.665164
20
30.395600
30
0.0
10
27.665164
20
30.219430
30
0.0
10
28.931117
20
30.219430
30
0.0
10
28.931117
20
30.395600
30
0.0
10
28.764943
20
30.429000
30
0.0
10
28.658758
20
30.467600
30
0.0
10
28.603248
20
30.503800
30
0.0
10
28.586358
20
30.542400
30
0.0
10
28.586358
20
33.857600
30
0.0
10
28.482587
20
33.956710
30
0.0
62
0
0
LWPOLYLINE
100
AcDbPolyline
8
Layer_1
90
18
70
0
10
22.028014
20
33.525420
30
0.0
10
21.869080
20
33.498920
30
0.0
10
21.741174
20
33.424120
30
0.0
10
21.656704
20
33.310700
30
0.0
10
21.625334
20
33.161410
30
0.0
10
21.651884
20
33.040750
30
0.0
10
21.721864
20
32.958750
30
0.0
10
21.828051
20
32.908050
30
0.0
10
21.955611
20
32.893550
30
0.0
10
22.114890
20
32.920050
30
0.0
10
22.242796
20
32.994850
30
0.0
10
22.329326
20
33.110690
30
0.0
10
22.360696
20
33.259980
30
0.0
10
22.331736
20
33.378230
30
0.0
10
22.259686
20
33.460230
30
0.0
10
22.153500
20
33.508530
30
0.0
10
22.028008
20
33.525430
30
0.0
10
22.028014
20
33.525420
30
0.0
62
0
0
LWPOLYLINE
100
AcDbPolyline
8
Layer_1
90
23
70
0
10
15.467255
20
33.329940
30
0.0
10
15.129736
20
33.317840
30
0.0
10
14.768084
20
33.286440
30
0.0
10
14.425739
20
33.240640
30
0.0
10
14.146140
20
33.185140
30
0.0
10
14.177510
20
32.963460
30
0.0
10
14.507789
20
33.009360
30
0.0
10
14.507789
20
30.542610
30
0.0
10
14.423319
20
30.468110
30
0.0
10
14.177506
20
30.395710
30
0.0
10
14.177506
20
30.219540
30
0.0
10
15.566194
20
30.219540
30
0.0
10
15.901299
20
30.255740
30
0.0
10
16.236405
20
30.373990
30
0.0
10
16.540482
20
30.581190
30
0.0
10
16.788708
20
30.889750
30
0.0
10
16.954882
20
31.309320
30
0.0
10
17.017632
20
31.849560
30
0.0
10
16.914204
20
32.473910
30
0.0
10
16.612540
20
32.939340
30
0.0
10
16.125741
20
33.228590
30
0.0
10
15.467252
20
33.329950
30
0.0
10
15.467255
20
33.329940
30
0.0
62
0
0
LWPOLYLINE
100
AcDbPolyline
8
Layer_1
90
28
70
0
10
9.065775
20
33.257540
30
0.0
10
9.065775
20
33.081710
30
0.0
10
9.316760
20
33.004510
30
0.0
10
9.396055
20
32.932110
30
0.0
10
9.396055
20
30.542590
30
0.0
10
9.311934
20
30.468090
30
0.0
10
9.065776
20
30.395690
30
0.0
10
9.065776
20
30.219520
30
0.0
10
11.320153
20
30.219520
30
0.0
10
11.341873
20
30.335360
30
0.0
10
11.368423
20
30.516010
30
0.0
10
11.394973
20
30.733210
30
0.0
10
11.419103
20
30.952470
30
0.0
10
11.242931
20
31.015170
30
0.0
10
11.144331
20
30.776600
30
0.0
10
11.040558
20
30.619730
30
0.0
10
10.905413
20
30.535230
30
0.0
10
10.719933
20
30.508730
30
0.0
10
10.447573
20
30.508730
30
0.0
10
10.227962
20
30.520830
30
0.0
10
10.090748
20
30.554630
30
0.0
10
10.018348
20
30.610130
30
0.0
10
9.999042
20
30.687330
30
0.0
10
9.999042
20
32.932050
30
0.0
10
10.083508
20
33.006850
30
0.0
10
10.331734
20
33.081650
30
0.0
10
10.331734
20
33.257480
30
0.0
10
9.065775
20
33.257540
30
0.0
62
0
0
LWPOLYLINE
100
AcDbPolyline
8
Layer_1
90
46
70
0
10
11.583203
20
33.257540
30
0.0
10
11.583203
20
33.081710
30
0.0
10
11.833843
20
33.004510
30
0.0
10
11.913483
20
32.932110
30
0.0
10
11.913483
20
30.542590
30
0.0
10
11.829013
20
30.468090
30
0.0
10
11.583200
20
30.395690
30
0.0
10
11.583200
20
30.219520
30
0.0
10
13.861711
20
30.219520
30
0.0
10
13.883431
20
30.335360
30
0.0
10
13.912041
20
30.516010
30
0.0
10
13.938591
20
30.733210
30
0.0
10
13.960311
20
30.952470
30
0.0
10
13.784484
20
31.015170
30
0.0
10
13.683125
20
30.776250
30
0.0
10
13.574526
20
30.619730
30
0.0
10
13.434898
20
30.535230
30
0.0
10
13.246660
20
30.508730
30
0.0
10
13.008087
20
30.508730
30
0.0
10
12.752621
20
30.518730
30
0.0
10
12.602996
20
30.550130
30
0.0
10
12.533006
20
30.598430
30
0.0
10
12.516116
20
30.663630
30
0.0
10
12.516116
20
31.736520
30
0.0
10
12.856049
20
31.736520
30
0.0
10
13.029807
20
31.729520
30
0.0
10
13.157368
20
31.705420
30
0.0
10
13.253898
20
31.664720
30
0.0
10
13.333538
20
31.604420
30
0.0
10
13.389048
20
31.659620
30
0.0
10
13.449378
20
31.741720
30
0.0
10
13.507298
20
31.828620
30
0.0
10
13.555218
20
31.908220
30
0.0
10
13.475928
20
31.992720
30
0.0
10
12.516120
20
31.992720
30
0.0
10
12.516120
20
32.969080
30
0.0
10
13.326303
20
32.969080
30
0.0
10
13.463862
20
32.850830
30
0.0
10
13.524192
20
32.510890
30
0.0
10
13.704846
20
32.510890
30
0.0
10
13.733806
20
32.643630
30
0.0
10
13.765176
20
32.831520
30
0.0
10
13.789306
20
33.024590
30
0.0
10
13.803786
20
33.181100
30
0.0
10
13.707256
20
33.258300
30
0.0
10
11.583203
20
33.257540
30
0.0
62
0
0
LWPOLYLINE
100
AcDbPolyline
8
Layer_1
90
21
70
0
10
15.293841
20
33.074480
30
0.0
10
15.293841
20
33.073790
30
0.0
10
15.756852
20
32.987290
30
0.0
10
16.094371
20
32.733890
30
0.0
10
16.301571
20
32.321560
30
0.0
10
16.371561
20
31.755120
30
0.0
10
16.330531
20
31.345200
30
0.0
10
16.221932
20
31.022170
30
0.0
10
16.062998
20
30.776010
30
0.0
10
15.872347
20
30.607420
30
0.0
10
15.669973
20
30.508520
30
0.0
10
15.476908
20
30.477120
30
0.0
10
15.308321
20
30.484120
30
0.0
10
15.202136
20
30.505820
30
0.0
10
15.141806
20
30.539620
30
0.0
10
15.115256
20
30.587920
30
0.0
10
15.110456
20
30.621720
30
0.0
10
15.110456
20
33.068820
30
0.0
10
15.204576
20
33.071820
30
0.0
10
15.293866
20
33.074820
30
0.0
10
15.293841
20
33.074480
30
0.0
62
0
0
LWPOLYLINE
100
AcDbPolyline
8
Layer_1
90
18
70
0
10
22.114893
20
32.534240
30
0.0
10
21.765308
20
32.430470
30
0.0
10
21.372281
20
32.360770
30
0.0
10
21.372281
20
32.191840
30
0.0
10
21.565002
20
32.160440
30
0.0
10
21.656712
20
32.097740
30
0.0
10
21.688082
20
31.979840
30
0.0
10
21.690482
20
31.781940
30
0.0
10
21.690482
20
30.542540
30
0.0
10
21.613252
20
30.468040
30
0.0
10
21.372264
20
30.395640
30
0.0
10
21.372264
20
30.219470
30
0.0
10
22.589953
20
30.219470
30
0.0
10
22.589953
20
30.395640
30
0.0
10
22.341382
20
30.470440
30
0.0
10
22.269332
20
30.542540
30
0.0
10
22.269332
20
32.534210
30
0.0
10
22.114893
20
32.534240
30
0.0
62
0
0
LWPOLYLINE
100
AcDbPolyline
8
Layer_1
90
57
70
0
10
23.778699
20
32.534240
30
0.0
10
23.460141
20
32.488340
30
0.0
10
23.185369
20
32.360780
30
0.0
10
22.990235
20
32.158070
30
0.0
10
22.917835
20
31.890530
30
0.0
10
22.968515
20
31.683330
30
0.0
10
23.098489
20
31.514400
30
0.0
10
23.277074
20
31.376840
30
0.0
10
23.479447
20
31.266180
30
0.0
10
23.694232
20
31.150340
30
0.0
10
23.879712
20
31.029670
30
0.0
10
24.010031
20
30.887630
30
0.0
10
24.060711
20
30.713870
30
0.0
10
23.976241
20
30.506670
30
0.0
10
23.718361
20
30.443970
30
0.0
10
23.518058
20
30.482570
30
0.0
10
23.347055
20
30.595650
30
0.0
10
23.214324
20
30.771820
30
0.0
10
23.134684
20
31.003150
30
0.0
10
22.939550
20
31.029750
30
0.0
10
22.903350
20
30.822550
30
0.0
10
22.891280
20
30.595700
30
0.0
10
22.896080
20
30.407810
30
0.0
10
22.922630
20
30.323310
30
0.0
10
23.093630
20
30.246110
30
0.0
10
23.281867
20
30.190610
30
0.0
10
23.464934
20
30.159210
30
0.0
10
23.633866
20
30.147110
30
0.0
10
23.800384
20
30.157110
30
0.0
10
24.005172
20
30.190910
30
0.0
10
24.217198
20
30.268110
30
0.0
10
24.403024
20
30.403260
30
0.0
10
24.538168
20
30.608050
30
0.0
10
24.590918
20
30.902120
30
0.0
10
24.590918
20
30.902470
30
0.0
10
24.538168
20
31.136220
30
0.0
10
24.400611
20
31.314800
30
0.0
10
24.209959
20
31.454430
30
0.0
10
24.000346
20
31.567860
30
0.0
10
23.769012
20
31.688520
30
0.0
10
23.595254
20
31.796770
30
0.0
10
23.486654
20
31.910200
30
0.0
10
23.448044
20
32.047760
30
0.0
10
23.527684
20
32.213930
30
0.0
10
23.752123
20
32.281530
30
0.0
10
24.024483
20
32.168100
30
0.0
10
24.198240
20
31.845060
30
0.0
10
24.364415
20
31.825760
30
0.0
10
24.424745
20
31.946430
30
0.0
10
24.477835
20
32.112950
30
0.0
10
24.509205
20
32.267050
30
0.0
10
24.504405
20
32.349150
30
0.0
10
24.366846
20
32.426350
30
0.0
10
24.188605
20
32.483950
30
0.0
10
23.985888
20
32.520150
30
0.0
10
23.778688
20
32.534650
30
0.0
10
23.778699
20
32.534240
30
0.0
62
0
0
LWPOLYLINE
100
AcDbPolyline
8
Layer_1
90
39
70
0
10
25.654530
20
32.534240
30
0.0
10
25.483186
20
32.476340
30
0.0
10
25.319424
20
32.430540
30
0.0
10
25.133600
20
32.394640
30
0.0
10
24.895028
20
32.360840
30
0.0
10
24.895028
20
32.191910
30
0.0
10
25.073267
20
32.170210
30
0.0
10
25.167387
20
32.119510
30
0.0
10
25.206007
20
32.028110
30
0.0
10
25.213207
20
31.880900
30
0.0
10
25.213207
20
29.387610
30
0.0
10
25.133567
20
29.313110
30
0.0
10
24.894995
20
29.238310
30
0.0
10
24.894995
20
29.062140
30
0.0
10
26.199217
20
29.062140
30
0.0
10
26.199217
20
29.238310
30
0.0
10
25.881003
20
29.310710
30
0.0
10
25.791713
20
29.387610
30
0.0
10
25.791713
20
30.419810
30
0.0
10
25.987192
20
30.291910
30
0.0
10
26.153365
20
30.209810
30
0.0
10
26.302991
20
30.161510
30
0.0
10
26.445376
20
30.147010
30
0.0
10
26.652576
20
30.197710
30
0.0
10
26.864947
20
30.337680
30
0.0
10
27.062493
20
30.547290
30
0.0
10
27.226599
20
30.812760
30
0.0
10
27.339681
20
31.109250
30
0.0
10
27.383121
20
31.425050
30
0.0
10
27.317961
20
31.917020
30
0.0
10
27.142133
20
32.264190
30
0.0
10
26.881496
20
32.466570
30
0.0
10
26.570524
20
32.534170
30
0.0
10
26.418831
20
32.514870
30
0.0
10
26.237832
20
32.452170
30
0.0
10
26.025806
20
32.329440
30
0.0
10
25.777234
20
32.136380
30
0.0
10
25.755514
20
32.432870
30
0.0
10
25.654530
20
32.534240
30
0.0
62
0
0
LWPOLYLINE
100
AcDbPolyline
8
Layer_1
90
54
70
0
10
30.462191
20
32.533890
30
0.0
10
30.064339
20
32.480790
30
0.0
10
29.702686
20
32.333920
30
0.0
10
29.411021
20
32.116720
30
0.0
10
29.230023
20
31.849190
30
0.0
10
29.280703
20
31.718870
30
0.0
10
29.355513
20
31.721870
30
0.0
10
29.481004
20
31.745970
30
0.0
10
29.625458
20
31.784570
30
0.0
10
29.765430
20
31.830470
30
0.0
10
29.869202
20
31.876270
30
0.0
10
29.907812
20
31.912170
30
0.0
10
29.924362
20
32.040070
30
0.0
10
29.994352
20
32.136570
30
0.0
10
30.095712
20
32.199270
30
0.0
10
30.211551
20
32.220970
30
0.0
10
30.363244
20
32.194470
30
0.0
10
30.459774
20
32.124470
30
0.0
10
30.510454
20
32.013460
30
0.0
10
30.524934
20
31.876240
30
0.0
10
30.524934
20
31.591470
30
0.0
10
30.040202
20
31.500070
30
0.0
10
29.721991
20
31.403570
30
0.0
10
29.519618
20
31.297380
30
0.0
10
29.386885
20
31.186720
30
0.0
10
29.237261
20
30.981580
30
0.0
10
29.179341
20
30.704400
30
0.0
10
29.227611
20
30.458240
30
0.0
10
29.353104
20
30.284830
30
0.0
10
29.529274
20
30.183470
30
0.0
10
29.729236
20
30.147270
30
0.0
10
29.900580
20
30.166570
30
0.0
10
30.095714
20
30.229270
30
0.0
10
30.307740
20
30.347520
30
0.0
10
30.527351
20
30.530590
30
0.0
10
30.599751
20
30.248580
30
0.0
10
30.751444
20
30.147220
30
0.0
10
30.874524
20
30.173720
30
0.0
10
31.053109
20
30.246120
30
0.0
10
31.260308
20
30.357140
30
0.0
10
31.472336
20
30.489520
30
0.0
10
31.419586
20
30.670520
30
0.0
10
31.337536
20
30.636720
30
0.0
10
31.277206
20
30.617420
30
0.0
10
31.233766
20
30.607420
30
0.0
10
31.199976
20
30.604420
30
0.0
10
31.129986
20
30.647820
30
0.0
10
31.103436
20
30.792620
30
0.0
10
31.103436
20
31.954800
30
0.0
10
31.064826
20
32.183720
30
0.0
10
30.946918
20
32.367130
30
0.0
10
30.749027
20
32.489860
30
0.0
10
30.462188
20
32.533260
30
0.0
10
30.462191
20
32.533890
30
0.0
62
0
0
LWPOLYLINE
100
AcDbPolyline
8
Layer_1
90
42
70
0
10
31.523013
20
32.461890
30
0.0
10
31.523013
20
32.286060
30
0.0
10
31.704012
20
32.223360
30
0.0
10
31.790892
20
32.122000
30
0.0
10
32.598317
20
30.164110
30
0.0
10
32.528677
20
29.997940
30
0.0
10
32.340439
20
29.686970
30
0.0
10
32.150133
20
29.549410
30
0.0
10
31.937760
20
29.534910
30
0.0
10
31.696775
20
29.629010
30
0.0
10
31.597825
20
29.542110
30
0.0
10
31.481987
20
29.409370
30
0.0
10
31.383387
20
29.279400
30
0.0
10
31.342357
20
29.194900
30
0.0
10
31.385797
20
29.144200
30
0.0
10
31.494051
20
29.091100
30
0.0
10
31.653331
20
29.047700
30
0.0
10
31.833983
20
29.031200
30
0.0
10
32.135648
20
29.088800
30
0.0
10
32.417659
20
29.269800
30
0.0
10
32.673126
20
29.583180
30
0.0
10
32.897564
20
30.038950
30
0.0
10
33.702920
20
32.121990
30
0.0
10
33.729120
20
32.179890
30
0.0
10
33.774970
20
32.220890
30
0.0
10
33.849780
20
32.254690
30
0.0
10
33.968034
20
32.286090
30
0.0
10
33.968034
20
32.461920
30
0.0
10
33.179570
20
32.461920
30
0.0
10
33.179570
20
32.286090
30
0.0
10
33.307476
20
32.257090
30
0.0
10
33.369876
20
32.225690
30
0.0
10
33.384356
20
32.182290
30
0.0
10
33.367466
20
32.121990
30
0.0
10
32.895147
20
30.911540
30
0.0
10
32.398350
20
32.121990
30
0.0
10
32.379040
20
32.184690
30
0.0
10
32.398350
20
32.228090
30
0.0
10
32.470750
20
32.259490
30
0.0
10
32.615204
20
32.285990
30
0.0
10
32.615204
20
32.461820
30
0.0
10
31.523013
20
32.461890
30
0.0
62
0
0
LWPOLYLINE
100
AcDbPolyline
8
Layer_1
90
15
70
0
10
19.742263
20
32.216070
30
0.0
10
20.031515
20
32.138870
30
0.0
10
20.248714
20
31.922020
30
0.0
10
20.248714
20
30.868090
30
0.0
10
19.986008
20
30.670540
30
0.0
10
19.735022
20
30.605340
30
0.0
10
19.537476
20
30.660840
30
0.0
10
19.361305
20
30.820120
30
0.0
10
19.236157
20
31.075580
30
0.0
10
19.187887
20
31.420340
30
0.0
10
19.228917
20
31.779580
30
0.0
10
19.344410
20
32.025390
30
0.0
10
19.520582
20
32.170190
30
0.0
10
19.742262
20
32.216090
30
0.0
10
19.742263
20
32.216070
30
0.0
62
0
0
LWPOLYLINE
100
AcDbPolyline
8
Layer_1
90
19
70
0
10
26.281301
20
32.124370
30
0.0
10
26.484020
20
32.073670
30
0.0
10
26.664674
20
31.917150
30
0.0
10
26.792580
20
31.644440
30
0.0
10
26.840840
20
31.246940
30
0.0
10
26.809470
20
30.950450
30
0.0
10
26.725000
20
30.730830
30
0.0
10
26.592268
20
30.598450
30
0.0
10
26.421268
20
30.552650
30
0.0
10
26.305429
20
30.556650
30
0.0
10
26.175110
20
30.585650
30
0.0
10
26.011351
20
30.650850
30
0.0
10
25.791738
20
30.769100
30
0.0
10
25.791738
20
31.854050
30
0.0
10
25.970323
20
31.994030
30
0.0
10
26.098228
20
32.075730
30
0.0
10
26.194418
20
32.114330
30
0.0
10
26.281298
20
32.124330
30
0.0
10
26.281301
20
32.124370
30
0.0
62
0
0
LWPOLYLINE
100
AcDbPolyline
8
Layer_1
90
17
70
0
10
30.524937
20
31.355210
30
0.0
10
30.524937
20
30.822560
30
0.0
10
30.358419
20
30.694650
30
0.0
10
30.223618
20
30.617450
30
0.0
10
30.112605
20
30.578850
30
0.0
10
30.016075
20
30.568850
30
0.0
10
29.946085
20
30.580950
30
0.0
10
29.871615
20
30.624350
30
0.0
10
29.813695
20
30.708850
30
0.0
10
29.791975
20
30.844000
30
0.0
10
29.830585
20
31.017410
30
0.0
10
29.931600
20
31.152560
30
0.0
10
30.004000
20
31.210460
30
0.0
10
30.115011
20
31.260760
30
0.0
10
30.281530
20
31.306660
30
0.0
10
30.524930
20
31.354960
30
0.0
10
30.524937
20
31.355210
30
0.0
62
0
0
LWPOLYLINE
100
AcDbPolyline
8
Layer_1
90
66
70
0
10
12.402695
20
27.157430
30
0.0
10
11.901416
20
27.075730
30
0.0
10
11.556657
20
26.873010
30
0.0
10
11.358765
20
26.612720
30
0.0
10
11.296015
20
26.361740
30
0.0
10
11.361175
20
26.058010
30
0.0
10
11.532520
20
25.831500
30
0.0
10
11.775920
20
25.660150
30
0.0
10
12.055519
20
25.520530
30
0.0
10
12.335463
20
25.387790
30
0.0
10
12.578863
20
25.235760
30
0.0
10
12.752621
20
25.045450
30
0.0
10
12.817431
20
24.792400
30
0.0
10
12.769511
20
24.587260
30
0.0
10
12.646432
20
24.440050
30
0.0
10
12.467847
20
24.351050
30
0.0
10
12.258234
20
24.319650
30
0.0
10
12.021730
20
24.365550
30
0.0
10
11.809703
20
24.497940
30
0.0
10
11.631463
20
24.700660
30
0.0
10
11.496317
20
24.960950
30
0.0
10
11.324972
20
24.973050
30
0.0
10
11.296012
20
24.833420
30
0.0
10
11.279122
20
24.671730
30
0.0
10
11.271922
20
24.507620
30
0.0
10
11.274322
20
24.363170
30
0.0
10
11.286392
20
24.256990
30
0.0
10
11.305702
20
24.211090
30
0.0
10
11.501180
20
24.112190
30
0.0
10
11.730100
20
24.040090
30
0.0
10
11.959364
20
23.991790
30
0.0
10
12.159324
20
23.974890
30
0.0
10
12.530629
20
24.017990
30
0.0
10
12.831948
20
24.133830
30
0.0
10
13.066040
20
24.302760
30
0.0
10
13.229800
20
24.509960
30
0.0
10
13.326330
20
24.734400
30
0.0
10
13.360120
20
24.956080
30
0.0
10
13.292550
20
25.271880
30
0.0
10
13.119137
20
25.515620
30
0.0
10
12.875392
20
25.705930
30
0.0
10
12.593379
20
25.862790
30
0.0
10
12.311367
20
26.002420
30
0.0
10
12.065209
20
26.144800
30
0.0
10
11.891795
20
26.308910
30
0.0
10
11.826635
20
26.511280
30
0.0
10
11.850765
20
26.644020
30
0.0
10
11.932815
20
26.764340
30
0.0
10
12.072442
20
26.848840
30
0.0
10
12.279987
20
26.880240
30
0.0
10
12.424441
20
26.860940
30
0.0
10
12.576479
20
26.795740
30
0.0
10
12.721278
20
26.673000
30
0.0
10
12.844012
20
26.484770
30
0.0
10
13.003291
20
26.470270
30
0.0
10
13.049141
20
26.525770
30
0.0
10
13.102231
20
26.612670
30
0.0
10
13.152571
20
26.714030
30
0.0
10
13.193601
20
26.812630
30
0.0
10
13.215321
20
26.892230
30
0.0
10
13.210521
20
26.935630
30
0.0
10
13.082960
20
27.024930
30
0.0
10
12.892308
20
27.094530
30
0.0
10
12.658562
20
27.140430
30
0.0
10
12.402751
20
27.157330
30
0.0
10
12.402695
20
27.157430
30
0.0
62
0
0
LWPOLYLINE
100
AcDbPolyline
8
Layer_1
90
45
70
0
10
25.295291
20
27.157430
30
0.0
10
24.960187
20
27.145330
30
0.0
10
24.612670
20
27.116330
30
0.0
10
24.282390
20
27.070830
30
0.0
10
23.993138
20
27.012930
30
0.0
10
24.024508
20
26.790900
30
0.0
10
24.178960
20
26.815000
30
0.0
10
24.354786
20
26.839100
30
0.0
10
24.354786
20
24.370280
30
0.0
10
24.270316
20
24.295480
30
0.0
10
24.024505
20
24.223080
30
0.0
10
24.024505
20
24.046910
30
0.0
10
25.362512
20
24.046560
30
0.0
10
25.362512
20
24.222730
30
0.0
10
25.157727
20
24.263430
30
0.0
10
25.032234
20
24.302030
30
0.0
10
24.971904
20
24.338230
30
0.0
10
24.957764
20
24.369630
30
0.0
10
24.957764
20
26.896370
30
0.0
10
25.058779
20
26.899370
30
0.0
10
25.157729
20
26.902370
30
0.0
10
25.473527
20
26.856470
30
0.0
10
25.717272
20
26.723740
30
0.0
10
25.876205
20
26.506890
30
0.0
10
25.934125
20
26.205570
30
0.0
10
25.885855
20
25.911490
30
0.0
10
25.757949
20
25.708770
30
0.0
10
25.579708
20
25.590520
30
0.0
10
25.374577
20
25.554320
30
0.0
10
25.213230
20
25.566420
30
0.0
10
25.039473
20
25.626720
30
0.0
10
25.114283
20
25.373660
30
0.0
10
25.302522
20
25.318160
30
0.0
10
25.519376
20
25.301260
30
0.0
10
25.741054
20
25.327760
30
0.0
10
25.972732
20
25.412260
30
0.0
10
26.189586
20
25.552230
30
0.0
10
26.370584
20
25.747360
30
0.0
10
26.495732
20
25.998350
30
0.0
10
26.541582
20
26.304490
30
0.0
10
26.452632
20
26.670970
30
0.0
10
26.199234
20
26.938500
30
0.0
10
25.803794
20
27.102610
30
0.0
10
25.295275
20
27.157810
30
0.0
10
25.295291
20
27.157430
30
0.0
62
0
0
LWPOLYLINE
100
AcDbPolyline
8
Layer_1
90
37
70
0
10
14.423326
20
27.152430
30
0.0
10
13.936182
20
26.793200
30
0.0
10
13.936182
20
26.289160
30
0.0
10
13.762768
20
26.289160
30
0.0
10
13.574530
20
26.074720
30
0.0
10
13.644520
20
25.987820
30
0.0
10
13.936186
20
25.987820
30
0.0
10
13.936186
20
24.635330
30
0.0
10
13.977216
20
24.341250
30
0.0
10
14.085815
20
24.136120
30
0.0
10
14.247507
20
24.015450
30
0.0
10
14.445053
20
23.974750
30
0.0
10
14.794639
20
24.080590
30
0.0
10
15.337289
20
24.420530
30
0.0
10
15.231103
20
24.596700
30
0.0
10
15.052863
20
24.505000
30
0.0
10
14.917718
20
24.451900
30
0.0
10
14.809119
20
24.422900
30
0.0
10
14.719829
20
24.415900
30
0.0
10
14.635709
20
24.437600
30
0.0
10
14.570549
20
24.512400
30
0.0
10
14.529519
20
24.649960
30
0.0
10
14.515039
20
24.859570
30
0.0
10
14.515039
20
25.987970
30
0.0
10
14.676730
20
25.987970
30
0.0
10
14.801878
20
25.980970
30
0.0
10
14.920130
20
25.959270
30
0.0
10
15.019080
20
25.932770
30
0.0
10
15.093550
20
25.903770
30
0.0
10
15.149060
20
25.954470
30
0.0
10
15.216630
20
26.029270
30
0.0
10
15.281790
20
26.116170
30
0.0
10
15.337300
20
26.203070
30
0.0
10
15.250420
20
26.289570
30
0.0
10
14.515050
20
26.289570
30
0.0
10
14.515050
20
27.073210
30
0.0
10
14.423326
20
27.152430
30
0.0
62
0
0
LWPOLYLINE
100
AcDbPolyline
8
Layer_1
90
28
70
0
10
6.292881
20
27.048660
30
0.0
10
6.141187
20
26.985960
30
0.0
10
5.938469
20
26.908760
30
0.0
10
5.709549
20
26.824660
30
0.0
10
5.475803
20
26.747460
30
0.0
10
5.261018
20
26.682260
30
0.0
10
5.094844
20
26.638860
30
0.0
10
5.164485
20
26.443730
30
0.0
10
5.432363
20
26.492030
30
0.0
10
5.615430
20
26.508930
30
0.0
10
5.724029
20
26.501930
30
0.0
10
5.777122
20
26.477830
30
0.0
10
5.813322
20
26.390930
30
0.0
10
5.820562
20
26.241650
30
0.0
10
5.820562
20
24.464420
30
0.0
10
5.789189
20
24.408920
30
0.0
10
5.683003
20
24.353720
30
0.0
10
5.483043
20
24.295820
30
0.0
10
5.169313
20
24.247520
30
0.0
10
5.169313
20
24.047220
30
0.0
10
7.002050
20
24.047220
30
0.0
10
7.002050
20
24.247520
30
0.0
10
6.702799
20
24.298220
30
0.0
10
6.519732
20
24.355820
30
0.0
10
6.425613
20
24.411320
30
0.0
10
6.399066
20
24.464420
30
0.0
10
6.399066
20
26.947710
30
0.0
10
6.292881
20
27.048660
30
0.0
62
0
0
LWPOLYLINE
100
AcDbPolyline
8
Layer_1
90
45
70
0
10
1.181488
20
27.024860
30
0.0
10
0.752264
20
26.952460
30
0.0
10
0.395438
20
26.771460
30
0.0
10
0.154452
20
26.530470
30
0.0
10
0.065159
20
26.272590
30
0.0
10
0.149625
20
26.108480
30
0.0
10
0.277186
20
26.130180
30
0.0
10
0.426811
20
26.168780
30
0.0
10
0.566439
20
26.214580
30
0.0
10
0.675038
20
26.262880
30
0.0
10
0.675038
20
26.438700
30
0.0
10
0.732957
20
26.597980
30
0.0
10
0.846383
20
26.711060
30
0.0
10
1.017383
20
26.754460
30
0.0
10
1.188728
20
26.718260
30
0.0
10
1.304567
20
26.617250
30
0.0
10
1.371795
20
26.462800
30
0.0
10
1.393515
20
26.274900
30
0.0
10
1.366969
20
26.093900
30
0.0
10
1.282848
20
25.881880
30
0.0
10
1.118743
20
25.616410
30
0.0
10
0.863277
20
25.266830
30
0.0
10
0.494385
20
24.811060
30
0.0
10
0.000000
20
24.225550
30
0.0
10
0.069986
20
24.046970
30
0.0
10
1.996498
20
24.046970
30
0.0
10
2.032698
20
24.903000
30
0.0
10
1.839633
20
24.948900
30
0.0
10
1.798607
20
24.707910
30
0.0
10
1.767234
20
24.618610
30
0.0
10
1.723794
20
24.541410
30
0.0
10
1.666219
20
24.485910
30
0.0
10
1.593820
20
24.466610
30
0.0
10
0.631598
20
24.466610
30
0.0
10
1.089782
20
24.975470
30
0.0
10
1.444194
20
25.380560
30
0.0
10
1.702418
20
25.703600
30
0.0
10
1.873419
20
25.968720
30
0.0
10
1.969951
20
26.197990
30
0.0
10
2.001324
20
26.414840
30
0.0
10
1.943405
20
26.680310
30
0.0
10
1.776886
20
26.870610
30
0.0
10
1.519007
20
26.986450
30
0.0
10
1.181488
20
27.025050
30
0.0
10
1.181488
20
27.024860
30
0.0
62
0
0
LWPOLYLINE
100
AcDbPolyline
8
Layer_1
90
18
70
0
10
3.575837
20
27.024860
30
0.0
10
3.105587
20
26.901790
30
0.0
10
2.748761
20
26.571510
30
0.0
10
2.521910
20
26.086780
30
0.0
10
2.445029
20
25.498620
30
0.0
10
2.517084
20
24.910110
30
0.0
10
2.731868
20
24.425380
30
0.0
10
3.069387
20
24.095100
30
0.0
10
3.517918
20
23.974780
30
0.0
10
3.976103
20
24.095100
30
0.0
10
4.332928
20
24.425380
30
0.0
10
4.564261
20
24.910110
30
0.0
10
4.648727
20
25.498620
30
0.0
10
4.576328
20
26.089190
30
0.0
10
4.369128
20
26.576330
30
0.0
10
4.031265
20
26.904200
30
0.0
10
3.575837
20
27.024860
30
0.0
10
3.575837
20
27.024860
30
0.0
62
0
0
LWPOLYLINE
100
AcDbPolyline
8
Layer_1
90
34
70
0
10
8.576218
20
27.024860
30
0.0
10
8.197673
20
26.966960
30
0.0
10
7.889114
20
26.805270
30
0.0
10
7.681914
20
26.561870
30
0.0
10
7.607101
20
26.253310
30
0.0
10
7.650541
20
26.002330
30
0.0
10
7.768793
20
25.816850
30
0.0
10
7.939793
20
25.679290
30
0.0
10
8.144925
20
25.570690
30
0.0
10
7.877047
20
25.402100
30
0.0
10
7.667434
20
25.201800
30
0.0
10
7.532288
20
24.977710
30
0.0
10
7.484022
20
24.734310
30
0.0
10
7.549181
20
24.447120
30
0.0
10
7.739833
20
24.206140
30
0.0
10
8.055632
20
24.037200
30
0.0
10
8.489683
20
23.974800
30
0.0
10
8.926148
20
24.046900
30
0.0
10
9.278146
20
24.247200
30
0.0
10
9.514306
20
24.541280
30
0.0
10
9.601185
20
24.895690
30
0.0
10
9.548092
20
25.204250
30
0.0
10
9.405707
20
25.435930
30
0.0
10
9.200920
20
25.606930
30
0.0
10
8.959589
20
25.737250
30
0.0
10
9.164721
20
25.882050
30
0.0
10
9.331239
20
26.036160
30
0.0
10
9.439493
20
26.202670
30
0.0
10
9.480519
20
26.383330
30
0.0
10
9.425013
20
26.641550
30
0.0
10
9.256426
20
26.843930
30
0.0
10
8.974069
20
26.976660
30
0.0
10
8.576217
20
27.024960
30
0.0
10
8.576218
20
27.024860
30
0.0
62
0
0
LWPOLYLINE
100
AcDbPolyline
8
Layer_1
90
15
70
0
10
8.489684
20
26.744920
30
0.0
10
8.636551
20
26.723220
30
0.0
10
8.762043
20
26.653620
30
0.0
10
8.851336
20
26.518470
30
0.0
10
8.885122
20
26.308520
30
0.0
10
8.675164
20
25.860330
30
0.0
10
8.475204
20
25.951730
30
0.0
10
8.308686
20
26.053090
30
0.0
10
8.197673
20
26.176170
30
0.0
10
8.156992
20
26.337510
30
0.0
10
8.178712
20
26.491970
30
0.0
10
8.241113
20
26.622290
30
0.0
10
8.347299
20
26.711190
30
0.0
10
8.489684
20
26.744990
30
0.0
10
8.489684
20
26.744920
30
0.0
62
0
0
LWPOLYLINE
100
AcDbPolyline
8
Layer_1
90
17
70
0
10
3.517919
20
26.711120
30
0.0
10
3.717879
20
26.631820
30
0.0
10
3.877157
20
26.390490
30
0.0
10
3.980929
20
25.982980
30
0.0
10
4.019197
20
25.409300
30
0.0
10
3.990582
20
24.888370
30
0.0
10
3.908529
20
24.541200
30
0.0
10
3.770971
20
24.348480
30
0.0
10
3.575837
20
24.288180
30
0.0
10
3.362457
20
24.369530
30
0.0
10
3.204532
20
24.613630
30
0.0
10
3.076627
20
25.602050
30
0.0
10
3.103173
20
26.113330
30
0.0
10
3.187639
20
26.458090
30
0.0
10
3.324853
20
26.650810
30
0.0
10
3.517918
20
26.711110
30
0.0
10
3.517919
20
26.711120
30
0.0
62
0
0
LWPOLYLINE
100
AcDbPolyline
8
Layer_1
90
74
70
0
10
30.187419
20
26.361880
30
0.0
10
30.018488
20
26.303980
30
0.0
10
29.845073
20
26.258080
30
0.0
10
29.654423
20
26.219480
30
0.0
10
29.427915
20
26.188080
30
0.0
10
29.427915
20
26.019150
30
0.0
10
29.608569
20
25.990150
30
0.0
10
29.702689
20
25.944650
30
0.0
10
29.738889
20
25.860150
30
0.0
10
29.746089
20
25.708110
30
0.0
10
29.746089
20
24.370100
30
0.0
10
29.666449
20
24.295300
30
0.0
10
29.427875
20
24.222900
30
0.0
10
29.427875
20
24.047070
30
0.0
10
30.626258
20
24.047070
30
0.0
10
30.626258
20
24.222900
30
0.0
10
30.396993
20
24.295300
30
0.0
10
30.324593
20
24.370100
30
0.0
10
30.324593
20
25.645360
30
0.0
10
30.643150
20
25.874630
30
0.0
10
30.891376
20
25.947030
30
0.0
10
31.002389
20
25.932530
30
0.0
10
31.074439
20
25.872230
30
0.0
10
31.115469
20
25.737090
30
0.0
10
31.127539
20
25.500930
30
0.0
10
31.127539
20
24.370120
30
0.0
10
31.115469
20
24.336320
30
0.0
10
31.072029
20
24.302520
30
0.0
10
30.987909
20
24.263920
30
0.0
10
30.845524
20
24.222920
30
0.0
10
30.845524
20
24.046750
30
0.0
10
32.010119
20
24.046750
30
0.0
10
32.010119
20
24.222920
30
0.0
10
31.855667
20
24.266320
30
0.0
10
31.761897
20
24.304920
30
0.0
10
31.718457
20
24.336320
30
0.0
10
31.706387
20
24.370120
30
0.0
10
31.706387
20
25.645380
30
0.0
10
32.005293
20
25.872230
30
0.0
10
32.253520
20
25.946730
30
0.0
10
32.366944
20
25.932230
30
0.0
10
32.444174
20
25.871930
30
0.0
10
32.490024
20
25.737130
30
0.0
10
32.506914
20
25.500630
30
0.0
10
32.506914
20
24.369820
30
0.0
10
32.494844
20
24.336420
30
0.0
10
32.453814
20
24.302620
30
0.0
10
32.366934
20
24.264020
30
0.0
10
32.226962
20
24.223020
30
0.0
10
32.226962
20
24.046850
30
0.0
10
33.425343
20
24.047190
30
0.0
10
33.425343
20
24.223020
30
0.0
10
33.160224
20
24.302620
30
0.0
10
33.085414
20
24.370220
30
0.0
10
33.085414
20
25.744430
30
0.0
10
33.039564
20
26.031270
30
0.0
10
32.914417
20
26.221920
30
0.0
10
32.733419
20
26.328110
30
0.0
10
32.514152
20
26.361910
30
0.0
10
32.333154
20
26.342610
30
0.0
10
32.138020
20
26.279910
30
0.0
10
31.920822
20
26.156830
30
0.0
10
31.670182
20
25.961700
30
0.0
10
31.662982
20
25.995100
30
0.0
10
31.609892
20
26.137480
30
0.0
10
31.508533
20
26.253320
30
0.0
10
31.356840
20
26.332920
30
0.0
10
31.151708
20
26.361920
30
0.0
10
30.973467
20
26.342620
30
0.0
10
30.780402
20
26.279920
30
0.0
10
30.563550
20
26.156840
30
0.0
10
30.314978
20
25.961710
30
0.0
10
30.288778
20
26.260610
30
0.0
10
30.187419
20
26.361880
30
0.0
62
0
0
LWPOLYLINE
100
AcDbPolyline
8
Layer_1
90
37
70
0
10
16.713904
20
26.361540
30
0.0
10
16.530837
20
26.342240
30
0.0
10
16.352252
20
26.293940
30
0.0
10
16.188491
20
26.221840
30
0.0
10
16.048519
20
26.134940
30
0.0
10
15.674801
20
25.696060
30
0.0
10
15.551722
20
25.112390
30
0.0
10
15.631362
20
24.647310
30
0.0
10
15.845802
20
24.288070
30
0.0
10
16.164359
20
24.056390
30
0.0
10
16.552558
20
23.974390
30
0.0
10
16.817677
20
23.996090
30
0.0
10
17.058663
20
24.075690
30
0.0
10
17.314474
20
24.242210
30
0.0
10
17.613380
20
24.516980
30
0.0
10
17.594070
20
24.548380
30
0.0
10
17.560280
20
24.594280
30
0.0
10
17.521670
20
24.642580
30
0.0
10
17.487880
20
24.671580
30
0.0
10
17.242067
20
24.514720
30
0.0
10
17.053829
20
24.427820
30
0.0
10
16.899721
20
24.387120
30
0.0
10
16.754923
20
24.380120
30
0.0
10
16.501870
20
24.437720
30
0.0
10
16.316045
20
24.604240
30
0.0
10
16.195379
20
24.854880
30
0.0
10
16.149869
20
25.175850
30
0.0
10
17.290331
20
25.175850
30
0.0
10
17.376871
20
25.214150
30
0.0
10
17.475821
20
25.264850
30
0.0
10
17.565111
20
25.320350
30
0.0
10
17.627861
20
25.373450
30
0.0
10
17.572351
20
25.747170
30
0.0
10
17.405832
20
26.060560
30
0.0
10
17.121406
20
26.279830
30
0.0
10
16.713902
20
26.361830
30
0.0
10
16.713904
20
26.361540
30
0.0
62
0
0
LWPOLYLINE
100
AcDbPolyline
8
Layer_1
90
37
70
0
10
21.613270
20
26.361540
30
0.0
10
21.430203
20
26.342240
30
0.0
10
21.251618
20
26.293940
30
0.0
10
21.087858
20
26.221840
30
0.0
10
20.947886
20
26.134940
30
0.0
10
20.574167
20
25.696060
30
0.0
10
20.451089
20
25.112390
30
0.0
10
20.530729
20
24.647310
30
0.0
10
20.745512
20
24.288070
30
0.0
10
21.063726
20
24.056390
30
0.0
10
21.451924
20
23.974390
30
0.0
10
21.717043
20
23.996090
30
0.0
10
21.958029
20
24.075690
30
0.0
10
22.213840
20
24.242210
30
0.0
10
22.512746
20
24.516980
30
0.0
10
22.493436
20
24.548380
30
0.0
10
22.459646
20
24.594280
30
0.0
10
22.421036
20
24.642580
30
0.0
10
22.387246
20
24.671580
30
0.0
10
22.141435
20
24.514720
30
0.0
10
21.953196
20
24.427820
30
0.0
10
21.799088
20
24.387120
30
0.0
10
21.654290
20
24.380120
30
0.0
10
21.401238
20
24.437720
30
0.0
10
21.215412
20
24.604240
30
0.0
10
21.095091
20
24.854880
30
0.0
10
21.049241
20
25.175850
30
0.0
10
22.189702
20
25.175850
30
0.0
10
22.276582
20
25.214150
30
0.0
10
22.375182
20
25.264850
30
0.0
10
22.464472
20
25.320350
30
0.0
10
22.527222
20
25.373450
30
0.0
10
22.471712
20
25.747170
30
0.0
10
22.305193
20
26.060560
30
0.0
10
22.020767
20
26.279830
30
0.0
10
21.613263
20
26.361830
30
0.0
10
21.613270
20
26.361540
30
0.0
62
0
0
LWPOLYLINE
100
AcDbPolyline
8
Layer_1
90
21
70
0
10
28.063015
20
26.361540
30
0.0
10
27.583456
20
26.255700
30
0.0
10
27.207325
20
25.978170
30
0.0
10
26.961166
20
25.580310
30
0.0
10
26.874286
20
25.117650
30
0.0
10
26.951516
20
24.661880
30
0.0
10
27.173540
20
24.300220
30
0.0
10
27.518298
20
24.061310
30
0.0
10
27.969243
20
23.974810
30
0.0
10
28.277803
20
24.022710
30
0.0
10
28.559816
20
24.153030
30
0.0
10
28.800802
20
24.353340
30
0.0
10
28.986626
20
24.608800
30
0.0
10
29.109705
20
24.900470
30
0.0
10
29.152805
20
25.216270
30
0.0
10
29.153149
20
25.216270
30
0.0
10
29.075919
20
25.672040
30
0.0
10
28.853895
20
26.033690
30
0.0
10
28.509137
20
26.274680
30
0.0
10
28.063018
20
26.361580
30
0.0
10
28.063015
20
26.361540
30
0.0
62
0
0
LWPOLYLINE
100
AcDbPolyline
8
Layer_1
90
37
70
0
10
34.797533
20
26.361540
30
0.0
10
34.614120
20
26.342240
30
0.0
10
34.435881
20
26.293940
30
0.0
10
34.271776
20
26.221840
30
0.0
10
34.131803
20
26.134940
30
0.0
10
33.758084
20
25.696060
30
0.0
10
33.635351
20
25.112390
30
0.0
10
33.714991
20
24.647310
30
0.0
10
33.929432
20
24.288070
30
0.0
10
34.247643
20
24.056390
30
0.0
10
34.635842
20
23.974390
30
0.0
10
34.900961
20
23.996090
30
0.0
10
35.142292
20
24.075690
30
0.0
10
35.397759
20
24.242210
30
0.0
10
35.696665
20
24.516980
30
0.0
10
35.677355
20
24.548380
30
0.0
10
35.643565
20
24.594280
30
0.0
10
35.605295
20
24.642580
30
0.0
10
35.571505
20
24.671580
30
0.0
10
35.325347
20
24.514720
30
0.0
10
35.137454
20
24.427820
30
0.0
10
34.983002
20
24.387120
30
0.0
10
34.838548
20
24.380120
30
0.0
10
34.585150
20
24.437720
30
0.0
10
34.399670
20
24.604240
30
0.0
10
34.279005
20
24.854880
30
0.0
10
34.233155
20
25.175850
30
0.0
10
35.373617
20
25.175850
30
0.0
10
35.460497
20
25.214150
30
0.0
10
35.559447
20
25.264850
30
0.0
10
35.648397
20
25.320350
30
0.0
10
35.711147
20
25.373450
30
0.0
10
35.655637
20
25.747170
30
0.0
10
35.489465
20
26.060560
30
0.0
10
35.205038
20
26.279830
30
0.0
10
34.797534
20
26.361830
30
0.0
10
34.797533
20
26.361540
30
0.0
62
0
0
LWPOLYLINE
100
AcDbPolyline
8
Layer_1
90
45
70
0
10
36.745419
20
26.361540
30
0.0
10
36.562352
20
26.303640
30
0.0
10
36.398246
20
26.260540
30
0.0
10
36.215181
20
26.224340
30
0.0
10
35.985916
20
26.188140
30
0.0
10
35.985916
20
26.019210
30
0.0
10
36.096928
20
26.009210
30
0.0
10
36.166918
20
25.999210
30
0.0
10
36.212768
20
25.979910
30
0.0
10
36.248968
20
25.953310
30
0.0
10
36.268278
20
25.921910
30
0.0
10
36.287588
20
25.869110
30
0.0
10
36.299658
20
25.779810
30
0.0
10
36.304458
20
25.647080
30
0.0
10
36.304458
20
24.369060
30
0.0
10
35.985900
20
24.222190
30
0.0
10
35.985900
20
24.046020
30
0.0
10
37.309774
20
24.046020
30
0.0
10
37.309774
20
24.222190
30
0.0
10
36.981909
20
24.294590
30
0.0
10
36.882959
20
24.369090
30
0.0
10
36.882959
20
25.423010
30
0.0
10
37.022932
20
25.678480
30
0.0
10
37.155319
20
25.825690
30
0.0
10
37.273571
20
25.895290
30
0.0
10
37.379757
20
25.914590
30
0.0
10
37.483185
20
25.876290
30
0.0
10
37.562825
20
25.774930
30
0.0
10
37.618335
20
25.625310
30
0.0
10
37.647295
20
25.442240
30
0.0
10
37.823465
20
25.442240
30
0.0
10
37.866905
20
25.560150
30
0.0
10
37.912755
20
25.721840
30
0.0
10
37.953435
20
25.900080
30
0.0
10
37.982395
20
26.066600
30
0.0
10
37.994465
20
26.192090
30
0.0
10
37.979985
20
26.254490
30
0.0
10
37.789679
20
26.331690
30
0.0
10
37.599027
20
26.360690
30
0.0
10
37.394240
20
26.324490
30
0.0
10
37.198762
20
26.228290
30
0.0
10
37.025349
20
26.085910
30
0.0
10
36.878137
20
25.909730
30
0.0
10
36.846767
20
26.259660
30
0.0
10
36.745419
20
26.361540
30
0.0
62
0
0
LWPOLYLINE
100
AcDbPolyline
8
Layer_1
90
20
70
0
10
39.405233
20
26.361540
30
0.0
10
38.925328
20
26.255700
30
0.0
10
38.549196
20
25.978170
30
0.0
10
38.303382
20
25.580310
30
0.0
10
38.216502
20
25.117650
30
0.0
10
38.293732
20
24.661880
30
0.0
10
38.515412
20
24.300220
30
0.0
10
38.860170
20
24.061310
30
0.0
10
39.311115
20
23.974810
30
0.0
10
39.619673
20
24.022710
30
0.0
10
39.901686
20
24.153030
30
0.0
10
40.143018
20
24.353340
30
0.0
10
40.328498
20
24.608800
30
0.0
10
40.451577
20
24.900470
30
0.0
10
40.495017
20
25.216270
30
0.0
10
40.417787
20
25.672040
30
0.0
10
40.196107
20
26.033690
30
0.0
10
39.851348
20
26.274680
30
0.0
10
39.405231
20
26.361580
30
0.0
10
39.405233
20
26.361540
30
0.0
62
0
0
LWPOLYLINE
100
AcDbPolyline
8
Layer_1
90
29
70
0
10
17.818166
20
26.289440
30
0.0
10
17.818166
20
26.113270
30
0.0
10
17.987097
20
26.050570
30
0.0
10
18.066737
20
25.949550
30
0.0
10
18.917603
20
23.974770
30
0.0
10
19.040681
20
24.013370
30
0.0
10
19.163761
20
24.068570
30
0.0
10
19.264774
20
24.148170
30
0.0
10
19.332344
20
24.244670
30
0.0
10
20.014623
20
25.949500
30
0.0
10
20.041173
20
26.007100
30
0.0
10
20.079783
20
26.048100
30
0.0
10
20.147353
20
26.081900
30
0.0
10
20.263192
20
26.113300
30
0.0
10
20.263192
20
26.289470
30
0.0
10
19.484382
20
26.289470
30
0.0
10
19.484382
20
26.113300
30
0.0
10
19.612288
20
26.084300
30
0.0
10
19.677098
20
26.052900
30
0.0
10
19.693988
20
26.009800
30
0.0
10
19.679508
20
25.949500
30
0.0
10
19.192709
20
24.736640
30
0.0
10
18.674192
20
25.949500
30
0.0
10
18.657302
20
26.011900
30
0.0
10
18.681432
20
26.055300
30
0.0
10
18.761072
20
26.086700
30
0.0
10
18.910351
20
26.113200
30
0.0
10
18.910351
20
26.289370
30
0.0
10
17.818166
20
26.289440
30
0.0
62
0
0
LWPOLYLINE
100
AcDbPolyline
8
Layer_1
90
42
70
0
10
40.685321
20
26.289440
30
0.0
10
40.685321
20
26.113270
30
0.0
10
40.866319
20
26.050570
30
0.0
10
40.952859
20
25.949550
30
0.0
10
41.760628
20
23.991670
30
0.0
10
41.690638
20
23.825150
30
0.0
10
41.502743
20
23.514180
30
0.0
10
41.312093
20
23.376620
30
0.0
10
41.100065
20
23.362120
30
0.0
10
40.859079
20
23.456220
30
0.0
10
40.760129
20
23.369320
30
0.0
10
40.644290
20
23.236930
30
0.0
10
40.545350
20
23.106610
30
0.0
10
40.504670
20
23.022110
30
0.0
10
40.548110
20
22.971410
30
0.0
10
40.656364
20
22.918610
30
0.0
10
40.815644
20
22.875210
30
0.0
10
40.996296
20
22.858310
30
0.0
10
41.297961
20
22.915910
30
0.0
10
41.579972
20
23.096910
30
0.0
10
41.835439
20
23.410290
30
0.0
10
42.059876
20
23.866060
30
0.0
10
42.865233
20
25.949440
30
0.0
10
42.891433
20
26.007040
30
0.0
10
42.937283
20
26.048040
30
0.0
10
43.012093
20
26.081840
30
0.0
10
43.130345
20
26.113240
30
0.0
10
43.130345
20
26.289410
30
0.0
10
42.341882
20
26.289410
30
0.0
10
42.341882
20
26.113590
30
0.0
10
42.469443
20
26.084590
30
0.0
10
42.532183
20
26.053190
30
0.0
10
42.546663
20
26.009790
30
0.0
10
42.529773
20
25.949490
30
0.0
10
42.057453
20
24.739040
30
0.0
10
41.560657
20
25.949490
30
0.0
10
41.541347
20
26.012290
30
0.0
10
41.560657
20
26.055390
30
0.0
10
41.633057
20
26.086790
30
0.0
10
41.777509
20
26.113290
30
0.0
10
41.777509
20
26.289460
30
0.0
10
40.685321
20
26.289440
30
0.0
62
0
0
LWPOLYLINE
100
AcDbPolyline
8
Layer_1
90
13
70
0
10
16.627024
20
26.072250
30
0.0
10
16.832156
20
26.014350
30
0.0
10
16.962130
20
25.872300
30
0.0
10
17.032120
20
25.696130
30
0.0
10
17.051430
20
25.532370
30
0.0
10
17.032120
20
25.462370
30
0.0
10
16.959720
20
25.445470
30
0.0
10
16.157121
20
25.445470
30
0.0
10
16.202631
20
25.705770
30
0.0
10
16.291921
20
25.903660
30
0.0
10
16.431893
20
26.028810
30
0.0
10
16.627026
20
26.072210
30
0.0
10
16.627024
20
26.072250
30
0.0
62
0
0
LWPOLYLINE
100
AcDbPolyline
8
Layer_1
90
13
70
0
10
21.526734
20
26.072250
30
0.0
10
21.731522
20
26.014350
30
0.0
10
21.861840
20
25.872300
30
0.0
10
21.931480
20
25.696130
30
0.0
10
21.950790
20
25.532370
30
0.0
10
21.931480
20
25.462370
30
0.0
10
21.859430
20
25.445470
30
0.0
10
21.056488
20
25.445470
30
0.0
10
21.102338
20
25.705770
30
0.0
10
21.191288
20
25.903660
30
0.0
10
21.331261
20
26.028810
30
0.0
10
21.526738
20
26.072210
30
0.0
10
21.526734
20
26.072250
30
0.0
62
0
0
LWPOLYLINE
100
AcDbPolyline
8
Layer_1
90
13
70
0
10
34.710654
20
26.072250
30
0.0
10
34.915439
20
26.014350
30
0.0
10
35.045760
20
25.872300
30
0.0
10
35.115750
20
25.696130
30
0.0
10
35.135060
20
25.532370
30
0.0
10
35.115750
20
25.462370
30
0.0
10
35.043350
20
25.445470
30
0.0
10
34.240408
20
25.445470
30
0.0
10
34.286258
20
25.705770
30
0.0
10
34.375548
20
25.903660
30
0.0
10
34.515176
20
26.028810
30
0.0
10
34.710654
20
26.072210
30
0.0
10
34.710654
20
26.072250
30
0.0
62
0
0
LWPOLYLINE
100
AcDbPolyline
8
Layer_1
90
18
70
0
10
27.993374
20
26.060150
30
0.0
10
28.217467
20
25.982950
30
0.0
10
28.393295
20
25.773340
30
0.0
10
28.504307
20
25.469610
30
0.0
10
28.545337
20
25.107960
30
0.0
10
28.518787
20
24.753200
30
0.0
10
28.434317
20
24.492910
30
0.0
10
28.277797
20
24.331560
30
0.0
10
28.036465
20
24.276060
30
0.0
10
27.824439
20
24.346060
30
0.0
10
27.648267
20
24.541190
30
0.0
10
27.527946
20
24.830440
30
0.0
10
27.484506
20
25.187270
30
0.0
10
27.506226
20
25.532030
30
0.0
10
27.588276
20
25.809560
30
0.0
10
27.744797
20
25.992630
30
0.0
10
27.993367
20
26.060230
30
0.0
10
27.993374
20
26.060150
30
0.0
62
0
0
LWPOLYLINE
100
AcDbPolyline
8
Layer_1
90
18
70
0
10
39.335247
20
26.060150
30
0.0
10
39.559340
20
25.982950
30
0.0
10
39.735513
20
25.773340
30
0.0
10
39.846524
20
25.469610
30
0.0
10
39.887204
20
25.107960
30
0.0
10
39.860654
20
24.753200
30
0.0
10
39.776534
20
24.492910
30
0.0
10
39.619667
20
24.331560
30
0.0
10
39.378681
20
24.276060
30
0.0
10
39.166311
20
24.346060
30
0.0
10
38.990483
20
24.541190
30
0.0
10
38.869818
20
24.830440
30
0.0
10
38.826378
20
25.187270
30
0.0
10
38.848098
20
25.532030
30
0.0
10
38.930148
20
25.809560
30
0.0
10
39.087013
20
25.992630
30
0.0
10
39.335239
20
26.060230
30
0.0
10
39.335247
20
26.060150
30
0.0
62
0
0
LWPOLYLINE
100
AcDbPolyline
8
Layer_1
90
18
70
0
10
8.417285
20
25.452680
30
0.0
10
8.629311
20
25.346500
30
0.0
10
8.810309
20
25.213770
30
0.0
10
8.935802
20
25.033110
30
0.0
10
8.981310
20
24.791780
30
0.0
10
8.955108
20
24.591820
30
0.0
10
8.875469
20
24.425300
30
0.0
10
8.747563
20
24.312220
30
0.0
10
8.571736
20
24.271220
30
0.0
10
8.397978
20
24.307420
30
0.0
10
8.248353
20
24.410840
30
0.0
10
8.144925
20
24.579770
30
0.0
10
8.106312
20
24.806280
30
0.0
10
8.125619
20
24.989690
30
0.0
10
8.183538
20
25.153450
30
0.0
10
8.279726
20
25.303080
30
0.0
10
8.417285
20
25.452700
30
0.0
10
8.417285
20
25.452680
30
0.0
62
0
0
LWPOLYLINE
100
AcDbPolyline
8
Layer_1
90
51
70
0
10
19.710892
20
21.611720
30
0.0
10
19.549543
20
21.592420
30
0.0
10
19.368545
20
21.532120
30
0.0
10
19.180652
20
21.428360
30
0.0
10
18.997241
20
21.281480
30
0.0
10
18.823826
20
21.081190
30
0.0
10
18.695922
20
20.842610
30
0.0
10
18.616282
20
20.550940
30
0.0
10
18.589732
20
20.191350
30
0.0
10
18.589732
20
20.116850
30
0.0
10
18.423560
20
20.116850
30
0.0
10
18.235321
20
19.902060
30
0.0
10
18.302891
20
19.815160
30
0.0
10
18.589730
20
19.815160
30
0.0
10
18.589730
20
18.192730
30
0.0
10
18.512500
20
18.120330
30
0.0
10
18.271515
20
18.050330
30
0.0
10
18.271515
20
17.874510
30
0.0
10
19.655376
20
17.874510
30
0.0
10
19.655376
20
18.050330
30
0.0
10
19.419216
20
18.096230
30
0.0
10
19.269592
20
18.132430
30
0.0
10
19.190292
20
18.163830
30
0.0
10
19.168572
20
18.192830
30
0.0
10
19.168572
20
19.815600
30
0.0
10
19.462652
20
19.786600
30
0.0
10
19.621585
20
19.731100
30
0.0
10
19.674675
20
19.781800
30
0.0
10
19.737425
20
19.856300
30
0.0
10
19.802585
20
19.943200
30
0.0
10
19.858095
20
20.030100
30
0.0
10
19.768805
20
20.117000
30
0.0
10
19.168581
20
20.117000
30
0.0
10
19.168581
20
20.324190
30
0.0
10
19.195131
20
20.779960
30
0.0
10
19.264771
20
21.059560
30
0.0
10
19.363721
20
21.199540
30
0.0
10
19.484386
20
21.238140
30
0.0
10
19.669866
20
21.175440
30
0.0
10
19.894305
20
20.967890
30
0.0
10
19.957055
20
21.006490
30
0.0
10
20.038765
20
21.071690
30
0.0
10
20.128055
20
21.151290
30
0.0
10
20.210105
20
21.235790
30
0.0
10
20.268025
20
21.315390
30
0.0
10
20.292155
20
21.380190
30
0.0
10
20.241475
20
21.440490
30
0.0
10
20.108741
20
21.515290
30
0.0
10
19.923261
20
21.582890
30
0.0
10
19.710891
20
21.611790
30
0.0
10
19.710892
20
21.611720
30
0.0
62
0
0
LWPOLYLINE
100
AcDbPolyline
8
Layer_1
90
51
70
0
10
34.052509
20
21.611720
30
0.0
10
33.890818
20
21.592420
30
0.0
10
33.710164
20
21.532120
30
0.0
10
33.521925
20
21.428360
30
0.0
10
33.338858
20
21.281480
30
0.0
10
33.165100
20
21.081190
30
0.0
10
33.037195
20
20.842610
30
0.0
10
32.957895
20
20.550940
30
0.0
10
32.931345
20
20.191350
30
0.0
10
32.931345
20
20.116850
30
0.0
10
32.764826
20
20.116850
30
0.0
10
32.576933
20
19.902060
30
0.0
10
32.644163
20
19.815160
30
0.0
10
32.931347
20
19.815160
30
0.0
10
32.931347
20
18.192730
30
0.0
10
32.854117
20
18.120330
30
0.0
10
32.612785
20
18.050330
30
0.0
10
32.612785
20
17.874510
30
0.0
10
33.996992
20
17.874510
30
0.0
10
33.996992
20
18.050330
30
0.0
10
33.760488
20
18.096230
30
0.0
10
33.611206
20
18.132430
30
0.0
10
33.531566
20
18.163830
30
0.0
10
33.509846
20
18.192830
30
0.0
10
33.509846
20
19.815600
30
0.0
10
33.803926
20
19.786600
30
0.0
10
33.963204
20
19.731100
30
0.0
10
34.016294
20
19.781800
30
0.0
10
34.079044
20
19.856300
30
0.0
10
34.143864
20
19.943200
30
0.0
10
34.199374
20
20.030100
30
0.0
10
34.110084
20
20.117000
30
0.0
10
33.509859
20
20.117000
30
0.0
10
33.509859
20
20.324190
30
0.0
10
33.536409
20
20.779960
30
0.0
10
33.606399
20
21.059560
30
0.0
10
33.705349
20
21.199540
30
0.0
10
33.825669
20
21.238140
30
0.0
10
34.011494
20
21.175440
30
0.0
10
34.235587
20
20.967890
30
0.0
10
34.298337
20
21.006490
30
0.0
10
34.380387
20
21.071690
30
0.0
10
34.469677
20
21.151290
30
0.0
10
34.551387
20
21.235790
30
0.0
10
34.609307
20
21.315390
30
0.0
10
34.633437
20
21.380190
30
0.0
10
34.582757
20
21.440490
30
0.0
10
34.450370
20
21.515290
30
0.0
10
34.264544
20
21.582890
30
0.0
10
34.052518
20
21.611790
30
0.0
10
34.052509
20
21.611720
30
0.0
62
0
0
LWPOLYLINE
100
AcDbPolyline
8
Layer_1
90
19
70
0
10
15.219030
20
21.180090
30
0.0
10
15.059751
20
21.153590
30
0.0
10
14.932191
20
21.078790
30
0.0
10
14.847721
20
20.965360
30
0.0
10
14.816351
20
20.816080
30
0.0
10
14.842901
20
20.695420
30
0.0
10
14.912891
20
20.613420
30
0.0
10
15.019077
20
20.562720
30
0.0
10
15.146638
20
20.548220
30
0.0
10
15.305916
20
20.575120
30
0.0
10
15.433822
20
20.649620
30
0.0
10
15.520352
20
20.765470
30
0.0
10
15.551722
20
20.914750
30
0.0
10
15.551722
20
20.915100
30
0.0
10
15.522762
20
21.032990
30
0.0
10
15.450362
20
21.115090
30
0.0
10
15.344521
20
21.163390
30
0.0
10
15.219029
20
21.180290
30
0.0
10
15.219030
20
21.180090
30
0.0
62
0
0
LWPOLYLINE
100
AcDbPolyline
8
Layer_1
90
19
70
0
10
28.933531
20
21.180090
30
0.0
10
28.774597
20
21.153590
30
0.0
10
28.646692
20
21.078790
30
0.0
10
28.562222
20
20.965360
30
0.0
10
28.530852
20
20.816080
30
0.0
10
28.557402
20
20.695420
30
0.0
10
28.627392
20
20.613420
30
0.0
10
28.733578
20
20.562720
30
0.0
10
28.861139
20
20.548220
30
0.0
10
29.020417
20
20.575120
30
0.0
10
29.148322
20
20.649620
30
0.0
10
29.234852
20
20.765470
30
0.0
10
29.266222
20
20.914750
30
0.0
10
29.266222
20
20.915100
30
0.0
10
29.237262
20
21.032990
30
0.0
10
29.164862
20
21.115090
30
0.0
10
29.059021
20
21.163390
30
0.0
10
28.933528
20
21.180290
30
0.0
10
28.933531
20
21.180090
30
0.0
62
0
0
LWPOLYLINE
100
AcDbPolyline
8
Layer_1
90
37
70
0
10
9.138175
20
20.979780
30
0.0
10
8.651031
20
20.620550
30
0.0
10
8.651031
20
20.116860
30
0.0
10
8.477617
20
20.116860
30
0.0
10
8.289379
20
19.902070
30
0.0
10
8.359365
20
19.815170
30
0.0
10
8.651031
20
19.815170
30
0.0
10
8.651031
20
18.462690
30
0.0
10
8.692057
20
18.168610
30
0.0
10
8.800655
20
17.963460
30
0.0
10
8.962002
20
17.843150
30
0.0
10
9.159894
20
17.802150
30
0.0
10
9.509479
20
17.907990
30
0.0
10
10.052130
20
18.248260
30
0.0
10
9.945944
20
18.424080
30
0.0
10
9.767359
20
18.332380
30
0.0
10
9.632558
20
18.279280
30
0.0
10
9.523959
20
18.250280
30
0.0
10
9.434667
20
18.243280
30
0.0
10
9.350201
20
18.264980
30
0.0
10
9.285387
20
18.339780
30
0.0
10
9.244361
20
18.477340
30
0.0
10
9.229881
20
18.686950
30
0.0
10
9.229881
20
19.815350
30
0.0
10
9.391228
20
19.815350
30
0.0
10
9.516720
20
19.808350
30
0.0
10
9.634973
20
19.786650
30
0.0
10
9.733574
20
19.760450
30
0.0
10
9.808387
20
19.731450
30
0.0
10
9.863893
20
19.781750
30
0.0
10
9.931466
20
19.856550
30
0.0
10
9.996625
20
19.943450
30
0.0
10
10.052131
20
20.030350
30
0.0
10
9.965252
20
20.117250
30
0.0
10
9.229880
20
20.117250
30
0.0
10
9.229880
20
20.900880
30
0.0
10
9.138175
20
20.979780
30
0.0
62
0
0
LWPOLYLINE
100
AcDbPolyline
8
Layer_1
90
37
70
0
10
13.439730
20
20.979780
30
0.0
10
12.952586
20
20.620550
30
0.0
10
12.952586
20
20.116860
30
0.0
10
12.778828
20
20.116860
30
0.0
10
12.590934
20
19.902070
30
0.0
10
12.660924
20
19.815170
30
0.0
10
12.952590
20
19.815170
30
0.0
10
12.952590
20
18.462690
30
0.0
10
12.993620
20
18.168610
30
0.0
10
13.102219
20
17.963460
30
0.0
10
13.263566
20
17.843150
30
0.0
10
13.461458
20
17.802150
30
0.0
10
13.811043
20
17.907990
30
0.0
10
14.353349
20
18.248260
30
0.0
10
14.247508
20
18.424080
30
0.0
10
14.068923
20
18.332380
30
0.0
10
13.933777
20
18.279280
30
0.0
10
13.825523
20
18.250280
30
0.0
10
13.736233
20
18.243280
30
0.0
10
13.651773
20
18.264980
30
0.0
10
13.586613
20
18.339780
30
0.0
10
13.545583
20
18.477340
30
0.0
10
13.531453
20
18.686950
30
0.0
10
13.531453
20
19.815350
30
0.0
10
13.692800
20
19.815350
30
0.0
10
13.818292
20
19.808350
30
0.0
10
13.936200
20
19.786650
30
0.0
10
14.035140
20
19.760450
30
0.0
10
14.109950
20
19.731450
30
0.0
10
14.165460
20
19.781750
30
0.0
10
14.233030
20
19.856550
30
0.0
10
14.297840
20
19.943450
30
0.0
10
14.353350
20
20.030350
30
0.0
10
14.266820
20
20.117250
30
0.0
10
13.531090
20
20.117250
30
0.0
10
13.531090
20
20.900880
30
0.0
10
13.439730
20
20.979780
30
0.0
62
0
0
LWPOLYLINE
100
AcDbPolyline
8
Layer_1
90
56
70
0
10
7.276823
20
20.189250
30
0.0
10
6.958610
20
20.143450
30
0.0
10
6.683838
20
20.015530
30
0.0
10
6.488360
20
19.812810
30
0.0
10
6.415961
20
19.545290
30
0.0
10
6.466641
20
19.338090
30
0.0
10
6.596959
20
19.169150
30
0.0
10
6.775199
20
19.031940
30
0.0
10
6.977918
20
18.920930
30
0.0
10
7.192358
20
18.805080
30
0.0
10
7.378183
20
18.684420
30
0.0
10
7.508157
20
18.542370
30
0.0
10
7.558837
20
18.368630
30
0.0
10
7.474371
20
18.161410
30
0.0
10
7.216491
20
18.098710
30
0.0
10
7.016531
20
18.137310
30
0.0
10
6.845186
20
18.250390
30
0.0
10
6.712454
20
18.426570
30
0.0
10
6.633159
20
18.657900
30
0.0
10
6.437681
20
18.684400
30
0.0
10
6.401481
20
18.477200
30
0.0
10
6.389414
20
18.250690
30
0.0
10
6.394244
20
18.062460
30
0.0
10
6.420790
20
17.977960
30
0.0
10
6.592135
20
17.900760
30
0.0
10
6.780028
20
17.845560
30
0.0
10
6.963440
20
17.814160
30
0.0
10
7.132027
20
17.802160
30
0.0
10
7.298545
20
17.812160
30
0.0
10
7.503332
20
17.845960
30
0.0
10
7.715704
20
17.922860
30
0.0
10
7.901184
20
18.058000
30
0.0
10
8.036329
20
18.263150
30
0.0
10
8.089422
20
18.557220
30
0.0
10
8.036329
20
18.790970
30
0.0
10
7.898770
20
18.969550
30
0.0
10
7.708464
20
19.109170
30
0.0
10
7.498505
20
19.222600
30
0.0
10
7.267172
20
19.343270
30
0.0
10
7.093414
20
19.451860
30
0.0
10
6.985160
20
19.564960
30
0.0
10
6.946547
20
19.702520
30
0.0
10
7.026186
20
19.868690
30
0.0
10
7.250279
20
19.936290
30
0.0
10
7.522638
20
19.823200
30
0.0
10
7.696397
20
19.499820
30
0.0
10
7.862570
20
19.480520
30
0.0
10
7.922903
20
19.601180
30
0.0
10
7.975996
20
19.767710
30
0.0
10
8.007369
20
19.921810
30
0.0
10
8.002539
20
20.003910
30
0.0
10
7.864981
20
20.081110
30
0.0
10
7.686740
20
20.139010
30
0.0
10
7.484022
20
20.175210
30
0.0
10
7.276822
20
20.189710
30
0.0
10
7.276823
20
20.189250
30
0.0
62
0
0
LWPOLYLINE
100
AcDbPolyline
8
Layer_1
90
18
70
0
10
15.305909
20
20.189250
30
0.0
10
14.956324
20
20.085470
30
0.0
10
14.563299
20
20.015470
30
0.0
10
14.563299
20
19.846540
30
0.0
10
14.756019
20
19.815540
30
0.0
10
14.847729
20
19.752840
30
0.0
10
14.879099
20
19.634580
30
0.0
10
14.881499
20
19.436700
30
0.0
10
14.881499
20
18.197630
30
0.0
10
14.804269
20
18.122830
30
0.0
10
14.563283
20
18.050430
30
0.0
10
14.563283
20
17.874610
30
0.0
10
15.780971
20
17.874610
30
0.0
10
15.780971
20
18.050430
30
0.0
10
15.532400
20
18.125230
30
0.0
10
15.460000
20
18.197630
30
0.0
10
15.460000
20
20.189300
30
0.0
10
15.305909
20
20.189250
30
0.0
62
0
0
LWPOLYLINE
100
AcDbPolyline
8
Layer_1
90
40
70
0
10
17.355155
20
20.189250
30
0.0
10
16.829743
20
20.090350
30
0.0
10
16.417411
20
19.824890
30
0.0
10
16.149878
20
19.431860
30
0.0
10
16.053348
20
18.945060
30
0.0
10
16.135398
20
18.465150
30
0.0
10
16.357078
20
18.105920
30
0.0
10
16.677704
20
17.879410
30
0.0
10
17.053836
20
17.802210
30
0.0
10
17.278274
20
17.819110
30
0.0
10
17.507193
20
17.889110
30
0.0
10
17.760246
20
18.048040
30
0.0
10
18.049844
20
18.332460
30
0.0
10
17.919525
20
18.486920
30
0.0
10
17.697845
20
18.337280
30
0.0
10
17.531326
20
18.252780
30
0.0
10
17.393768
20
18.214180
30
0.0
10
17.263794
20
18.207180
30
0.0
10
17.017636
20
18.262380
30
0.0
10
16.815263
20
18.421670
30
0.0
10
16.680117
20
18.674710
30
0.0
10
16.631847
20
19.019480
30
0.0
10
16.677697
20
19.417330
30
0.0
10
16.798363
20
19.685210
30
0.0
10
16.969363
20
19.839310
30
0.0
10
17.174494
20
19.887610
30
0.0
10
17.483053
20
19.757310
30
0.0
10
17.678531
20
19.393240
30
0.0
10
17.839879
20
19.369440
30
0.0
10
17.876079
20
19.441540
30
0.0
10
17.919519
20
19.554970
30
0.0
10
17.962959
20
19.687690
30
0.0
10
17.999159
20
19.820080
30
0.0
10
18.023289
20
19.931090
30
0.0
10
18.030489
20
19.998690
30
0.0
10
17.907411
20
20.075890
30
0.0
10
17.731239
20
20.136190
30
0.0
10
17.533693
20
20.174790
30
0.0
10
17.355108
20
20.189290
30
0.0
10
17.355155
20
20.189250
30
0.0
62
0
0
LWPOLYLINE
100
AcDbPolyline
8
Layer_1
90
18
70
0
10
29.020411
20
20.189250
30
0.0
10
28.670825
20
20.085470
30
0.0
10
28.277801
20
20.015470
30
0.0
10
28.277801
20
19.846540
30
0.0
10
28.470521
20
19.815540
30
0.0
10
28.562231
20
19.752840
30
0.0
10
28.593601
20
19.634580
30
0.0
10
28.596001
20
19.436700
30
0.0
10
28.596001
20
18.197630
30
0.0
10
28.518771
20
18.122830
30
0.0
10
28.277786
20
18.050430
30
0.0
10
28.277786
20
17.874610
30
0.0
10
29.495474
20
17.874610
30
0.0
10
29.495474
20
18.050430
30
0.0
10
29.246902
20
18.125230
30
0.0
10
29.174502
20
18.197630
30
0.0
10
29.174502
20
20.189300
30
0.0
10
29.020411
20
20.189250
30
0.0
62
0
0
LWPOLYLINE
100
AcDbPolyline
8
Layer_1
90
46
70
0
10
30.486325
20
20.189250
30
0.0
10
30.312912
20
20.128950
30
0.0
10
30.134327
20
20.080650
30
0.0
10
29.941262
20
20.044450
30
0.0
10
29.726821
20
20.015450
30
0.0
10
29.726821
20
19.846520
30
0.0
10
29.915060
20
19.817920
30
0.0
10
30.008830
20
19.772020
30
0.0
10
30.040200
20
19.685120
30
0.0
10
30.045000
20
19.535490
30
0.0
10
30.045000
20
18.197480
30
0.0
10
29.965360
20
18.122680
30
0.0
10
29.726786
20
18.050280
30
0.0
10
29.726786
20
17.874460
30
0.0
10
30.944474
20
17.874460
30
0.0
10
30.944474
20
18.050280
30
0.0
10
30.705555
20
18.122680
30
0.0
10
30.623845
20
18.197480
30
0.0
10
30.623845
20
19.414820
30
0.0
10
30.833458
20
19.578930
30
0.0
10
31.007217
20
19.680290
30
0.0
10
31.151671
20
19.733390
30
0.0
10
31.274749
20
19.750290
30
0.0
10
31.395416
20
19.728590
30
0.0
10
31.472296
20
19.653790
30
0.0
10
31.513326
20
19.511410
30
0.0
10
31.527806
20
19.292140
30
0.0
10
31.527806
20
18.197530
30
0.0
10
31.455406
20
18.129930
30
0.0
10
31.209593
20
18.050230
30
0.0
10
31.209593
20
17.874410
30
0.0
10
32.427281
20
17.874410
30
0.0
10
32.427281
20
18.050230
30
0.0
10
32.270416
20
18.093630
30
0.0
10
32.171816
20
18.132230
30
0.0
10
32.121136
20
18.163630
30
0.0
10
32.106656
20
18.197430
30
0.0
10
32.106656
20
19.572000
30
0.0
10
32.060806
20
19.859180
30
0.0
10
31.942554
20
20.049500
30
0.0
10
31.773967
20
20.155670
30
0.0
10
31.573661
20
20.189470
30
0.0
10
31.139611
20
20.085690
30
0.0
10
30.614199
20
19.740940
30
0.0
10
30.587649
20
20.088110
30
0.0
10
30.486325
20
20.189250
30
0.0
62
0
0
LWPOLYLINE
100
AcDbPolyline
8
Layer_1
90
54
70
0
10
11.549418
20
20.188910
30
0.0
10
11.151566
20
20.135810
30
0.0
10
10.789915
20
19.988590
30
0.0
10
10.497904
20
19.771740
30
0.0
10
10.317250
20
19.504210
30
0.0
10
10.367930
20
19.373890
30
0.0
10
10.442740
20
19.376890
30
0.0
10
10.567888
20
19.400990
30
0.0
10
10.712687
20
19.439290
30
0.0
10
10.852659
20
19.485190
30
0.0
10
10.956086
20
19.531090
30
0.0
10
10.994696
20
19.567290
30
0.0
10
11.011586
20
19.695190
30
0.0
10
11.081576
20
19.791690
30
0.0
10
11.182936
20
19.854390
30
0.0
10
11.298430
20
19.875790
30
0.0
10
11.450468
20
19.849290
30
0.0
10
11.546998
20
19.779690
30
0.0
10
11.597678
20
19.668660
30
0.0
10
11.612158
20
19.531120
30
0.0
10
11.612158
20
19.246680
30
0.0
10
11.127427
20
19.154980
30
0.0
10
10.809215
20
19.058780
30
0.0
10
10.606497
20
18.952590
30
0.0
10
10.474110
20
18.841580
30
0.0
10
10.324484
20
18.636780
30
0.0
10
10.266564
20
18.359260
30
0.0
10
10.314834
20
18.113440
30
0.0
10
10.440326
20
17.939680
30
0.0
10
10.616153
20
17.838680
30
0.0
10
10.816458
20
17.802480
30
0.0
10
10.987458
20
17.821780
30
0.0
10
11.182937
20
17.884480
30
0.0
10
11.394963
20
18.002390
30
0.0
10
11.614574
20
18.185810
30
0.0
10
11.686634
20
17.903790
30
0.0
10
11.838673
20
17.802440
30
0.0
10
11.961751
20
17.828940
30
0.0
10
12.139992
20
17.901340
30
0.0
10
12.347536
20
18.012020
30
0.0
10
12.559563
20
18.144740
30
0.0
10
12.506473
20
18.325740
30
0.0
10
12.424423
20
18.291940
30
0.0
10
12.364433
20
18.272640
30
0.0
10
12.320993
20
18.262640
30
0.0
10
12.287203
20
18.259640
30
0.0
10
12.217213
20
18.303040
30
0.0
10
12.190663
20
18.447830
30
0.0
10
12.190663
20
19.609680
30
0.0
10
12.152053
20
19.838940
30
0.0
10
12.033801
20
20.022010
30
0.0
10
11.836254
20
20.145090
30
0.0
10
11.549415
20
20.188490
30
0.0
10
11.549418
20
20.188910
30
0.0
62
0
0
LWPOLYLINE
100
AcDbPolyline
8
Layer_1
90
45
70
0
10
20.697246
20
20.188910
30
0.0
10
20.513834
20
20.131310
30
0.0
10
20.350074
20
20.087910
30
0.0
10
20.166663
20
20.051710
30
0.0
10
19.937742
20
20.015510
30
0.0
10
19.937742
20
19.846930
30
0.0
10
20.048409
20
19.836930
30
0.0
10
20.118399
20
19.826930
30
0.0
10
20.164249
20
19.807930
30
0.0
10
20.200449
20
19.781030
30
0.0
10
20.219759
20
19.750030
30
0.0
10
20.239069
20
19.696930
30
0.0
10
20.251139
20
19.607630
30
0.0
10
20.255939
20
19.474890
30
0.0
10
20.255939
20
18.197210
30
0.0
10
19.937726
20
18.049990
30
0.0
10
19.937726
20
17.873830
30
0.0
10
21.261255
20
17.873830
30
0.0
10
21.261255
20
18.049990
30
0.0
10
20.933390
20
18.122390
30
0.0
10
20.834440
20
18.197190
30
0.0
10
20.834440
20
19.250780
30
0.0
10
20.974412
20
19.506230
30
0.0
10
21.107144
20
19.653450
30
0.0
10
21.225051
20
19.723450
30
0.0
10
21.331237
20
19.742750
30
0.0
10
21.435009
20
19.704150
30
0.0
10
21.514649
20
19.602790
30
0.0
10
21.569809
20
19.453180
30
0.0
10
21.598769
20
19.270090
30
0.0
10
21.774941
20
19.270090
30
0.0
10
21.818381
20
19.388360
30
0.0
10
21.864231
20
19.549690
30
0.0
10
21.905261
20
19.728280
30
0.0
10
21.933871
20
19.894470
30
0.0
10
21.945931
20
20.019950
30
0.0
10
21.931451
20
20.082650
30
0.0
10
21.741145
20
20.159550
30
0.0
10
21.550838
20
20.188550
30
0.0
10
21.345706
20
20.152650
30
0.0
10
21.150574
20
20.056150
30
0.0
10
20.976815
20
19.913750
30
0.0
10
20.829604
20
19.737920
30
0.0
10
20.798234
20
20.087510
30
0.0
10
20.697246
20
20.188910
30
0.0
62
0
0
LWPOLYLINE
100
AcDbPolyline
8
Layer_1
90
37
70
0
10
23.330168
20
20.188910
30
0.0
10
23.146757
20
20.169610
30
0.0
10
22.968516
20
20.121710
30
0.0
10
22.804412
20
20.049310
30
0.0
10
22.664784
20
19.962410
30
0.0
10
22.291065
20
19.523520
30
0.0
10
22.167987
20
18.940180
30
0.0
10
22.247627
20
18.474760
30
0.0
10
22.462066
20
18.115530
30
0.0
10
22.780279
20
17.883860
30
0.0
10
23.168478
20
17.802160
30
0.0
10
23.433941
20
17.823860
30
0.0
10
23.674928
20
17.903160
30
0.0
10
23.930394
20
18.069680
30
0.0
10
24.229300
20
18.344450
30
0.0
10
24.209990
20
18.375850
30
0.0
10
24.176550
20
18.421750
30
0.0
10
24.137940
20
18.470050
30
0.0
10
24.104160
20
18.499050
30
0.0
10
23.858002
20
18.342200
30
0.0
10
23.670108
20
18.255700
30
0.0
10
23.515656
20
18.214700
30
0.0
10
23.371202
20
18.207700
30
0.0
10
23.117805
20
18.265600
30
0.0
10
22.932325
20
18.431770
30
0.0
10
22.811659
20
18.682760
30
0.0
10
22.765809
20
19.003380
30
0.0
10
23.906269
20
19.003380
30
0.0
10
23.993149
20
19.041980
30
0.0
10
24.092099
20
19.092280
30
0.0
10
24.181389
20
19.147780
30
0.0
10
24.243789
20
19.200880
30
0.0
10
24.188629
20
19.574580
30
0.0
10
24.022110
20
19.887970
30
0.0
10
23.737686
20
20.107590
30
0.0
10
23.330180
20
20.189290
30
0.0
10
23.330168
20
20.188910
30
0.0
62
0
0
LWPOLYLINE
100
AcDbPolyline
8
Layer_1
90
37
70
0
10
25.722104
20
20.188910
30
0.0
10
25.538692
20
20.169610
30
0.0
10
25.360107
20
20.121710
30
0.0
10
25.196348
20
20.049310
30
0.0
10
25.056375
20
19.962410
30
0.0
10
24.682656
20
19.523520
30
0.0
10
24.559923
20
18.940180
30
0.0
10
24.639213
20
18.474760
30
0.0
10
24.853997
20
18.115530
30
0.0
10
25.172210
20
17.883860
30
0.0
10
25.560409
20
17.802160
30
0.0
10
25.825528
20
17.823860
30
0.0
10
26.066859
20
17.903160
30
0.0
10
26.322324
20
18.069680
30
0.0
10
26.621230
20
18.344450
30
0.0
10
26.601930
20
18.375850
30
0.0
10
26.568140
20
18.421750
30
0.0
10
26.529530
20
18.470050
30
0.0
10
26.495740
20
18.499050
30
0.0
10
26.249927
20
18.342200
30
0.0
10
26.062032
20
18.255700
30
0.0
10
25.907581
20
18.214700
30
0.0
10
25.762782
20
18.207700
30
0.0
10
25.509730
20
18.265600
30
0.0
10
25.324250
20
18.431770
30
0.0
10
25.203583
20
18.682760
30
0.0
10
25.157733
20
19.003380
30
0.0
10
26.298195
20
19.003380
30
0.0
10
26.385075
20
19.041980
30
0.0
10
26.483675
20
19.092280
30
0.0
10
26.572965
20
19.147780
30
0.0
10
26.635705
20
19.200880
30
0.0
10
26.580195
20
19.574580
30
0.0
10
26.414021
20
19.887970
30
0.0
10
26.129250
20
20.107590
30
0.0
10
25.722091
20
20.189290
30
0.0
10
25.722104
20
20.188910
30
0.0
62
0
0
LWPOLYLINE
100
AcDbPolyline
8
Layer_1
90
21
70
0
10
35.508769
20
20.188910
30
0.0
10
35.028865
20
20.083070
30
0.0
10
34.652733
20
19.805540
30
0.0
10
34.406922
20
19.408020
30
0.0
10
34.320042
20
18.945020
30
0.0
10
34.397272
20
18.489250
30
0.0
10
34.618952
20
18.127590
30
0.0
10
34.963710
20
17.889030
30
0.0
10
35.414655
20
17.802130
30
0.0
10
35.723214
20
17.850430
30
0.0
10
36.005572
20
17.980410
30
0.0
10
36.246557
20
18.180710
30
0.0
10
36.432037
20
18.436180
30
0.0
10
36.555117
20
18.727840
30
0.0
10
36.598557
20
19.043640
30
0.0
10
36.598557
20
19.043980
30
0.0
10
36.521327
20
19.499410
30
0.0
10
36.299647
20
19.861050
30
0.0
10
35.954889
20
20.102390
30
0.0
10
35.508770
20
20.188890
30
0.0
10
35.508769
20
20.188910
30
0.0
62
0
0
LWPOLYLINE
100
AcDbPolyline
8
Layer_1
90
13
70
0
10
23.243288
20
19.899660
30
0.0
10
23.448076
20
19.842060
30
0.0
10
23.578394
20
19.699680
30
0.0
10
23.648384
20
19.523500
30
0.0
10
23.667694
20
19.359740
30
0.0
10
23.648384
20
19.289740
30
0.0
10
23.575984
20
19.272840
30
0.0
10
22.773041
20
19.272840
30
0.0
10
22.818891
20
19.533130
30
0.0
10
22.908181
20
19.731020
30
0.0
10
23.048153
20
19.856170
30
0.0
10
23.243285
20
19.899670
30
0.0
10
23.243288
20
19.899660
30
0.0
62
0
0
LWPOLYLINE
100
AcDbPolyline
8
Layer_1
90
13
70
0
10
25.635226
20
19.899660
30
0.0
10
25.840011
20
19.842060
30
0.0
10
25.970330
20
19.699680
30
0.0
10
26.040320
20
19.523500
30
0.0
10
26.059620
20
19.359740
30
0.0
10
26.040320
20
19.289740
30
0.0
10
25.967920
20
19.272840
30
0.0
10
25.164976
20
19.272840
30
0.0
10
25.210826
20
19.533130
30
0.0
10
25.300116
20
19.731020
30
0.0
10
25.439742
20
19.856170
30
0.0
10
25.635222
20
19.899670
30
0.0
10
25.635226
20
19.899660
30
0.0
62
0
0
LWPOLYLINE
100
AcDbPolyline
8
Layer_1
90
18
70
0
10
35.438784
20
19.887560
30
0.0
10
35.662877
20
19.810360
30
0.0
10
35.839049
20
19.600740
30
0.0
10
35.950061
20
19.297010
30
0.0
10
35.991081
20
18.935360
30
0.0
10
35.964531
20
18.580950
30
0.0
10
35.880061
20
18.320310
30
0.0
10
35.723196
20
18.158970
30
0.0
10
35.482209
20
18.103470
30
0.0
10
35.269839
20
18.173470
30
0.0
10
35.094011
20
18.368610
30
0.0
10
34.973346
20
18.658200
30
0.0
10
34.929906
20
19.015030
30
0.0
10
34.951626
20
19.359780
30
0.0
10
35.033676
20
19.636970
30
0.0
10
35.190541
20
19.820030
30
0.0
10
35.438767
20
19.887630
30
0.0
10
35.438784
20
19.887560
30
0.0
62
0
0
LWPOLYLINE
100
AcDbPolyline
8
Layer_1
90
17
70
0
10
11.612164
20
19.010150
30
0.0
10
11.612164
20
18.477160
30
0.0
10
11.445646
20
18.349260
30
0.0
10
11.310500
20
18.272360
30
0.0
10
11.199833
20
18.233760
30
0.0
10
11.103303
20
18.223760
30
0.0
10
11.033313
20
18.235860
30
0.0
10
10.958503
20
18.279260
30
0.0
10
10.900583
20
18.363360
30
0.0
10
10.878863
20
18.498500
30
0.0
10
10.917473
20
18.671930
30
0.0
10
11.018832
20
18.807070
30
0.0
10
11.091232
20
18.864970
30
0.0
10
11.202244
20
18.915670
30
0.0
10
11.368418
20
18.961570
30
0.0
10
11.612162
20
19.009870
30
0.0
10
11.612164
20
19.010150
30
0.0
62
0
0
LWPOLYLINE
100
AcDbPolyline
8
Layer_1
90
18
70
0
10
27.554496
20
18.515780
30
0.0
10
27.385565
20
18.486780
30
0.0
10
27.243524
20
18.404680
30
0.0
10
27.146994
20
18.274380
30
0.0
10
27.110794
20
18.103370
30
0.0
10
27.137344
20
17.953750
30
0.0
10
27.214574
20
17.854750
30
0.0
10
27.325241
20
17.797150
30
0.0
10
27.460388
20
17.777850
30
0.0
10
27.631388
20
17.806750
30
0.0
10
27.771360
20
17.886450
30
0.0
10
27.865480
20
18.016420
30
0.0
10
27.901680
20
18.190180
30
0.0
10
27.872720
20
18.334640
30
0.0
10
27.795490
20
18.436000
30
0.0
10
27.684477
20
18.496300
30
0.0
10
27.554502
20
18.515600
30
0.0
10
27.554496
20
18.515780
30
0.0
62
0
0
LWPOLYLINE
100
AcDbPolyline
8
Layer_1
90
80
70
0
10
20.879279
20
14.674820
30
0.0
10
20.808259
20
14.615820
30
0.0
10
20.551759
20
13.237140
30
0.0
10
20.483499
20
13.159240
30
0.0
10
19.559544
20
12.780700
30
0.0
10
19.456118
20
12.788700
30
0.0
10
18.304279
20
13.579230
30
0.0
10
18.212229
20
13.570230
30
0.0
10
17.242078
20
12.600080
30
0.0
10
17.233778
20
12.508080
30
0.0
10
18.010174
20
11.376240
30
0.0
10
18.016774
20
11.273150
30
0.0
10
17.608235
20
10.320250
30
0.0
10
17.529285
20
10.252350
30
0.0
10
16.196448
20
10.004470
30
0.0
10
16.137498
20
9.933070
30
0.0
10
16.137498
20
8.561280
30
0.0
10
16.196448
20
8.490280
30
0.0
10
17.496533
20
8.248260
30
0.0
10
17.573763
20
8.179960
30
0.0
10
17.979544
20
7.166020
30
0.0
10
17.971944
20
7.062240
30
0.0
10
17.233471
20
5.986250
30
0.0
10
17.242071
20
5.894250
30
0.0
10
18.212222
20
4.924110
30
0.0
10
18.304272
20
4.915110
30
0.0
10
19.361302
20
5.640840
30
0.0
10
19.462662
20
5.643840
30
0.0
10
19.928775
20
5.394920
30
0.0
10
20.005655
20
5.422820
30
0.0
10
20.966842
20
7.745810
30
0.0
10
20.938572
20
7.832710
30
0.0
10
20.822045
20
7.904110
30
0.0
10
20.748265
20
7.960610
30
0.0
10
20.240330
20
8.499175
30
0.0
10
20.048060
20
9.238290
30
0.0
10
20.167266
20
9.828841
30
0.0
10
20.492354
20
10.311131
30
0.0
10
20.974530
20
10.636320
30
0.0
10
21.564998
20
10.755570
30
0.0
10
22.155521
20
10.636320
30
0.0
10
22.637815
20
10.311131
30
0.0
10
22.963021
20
9.828841
30
0.0
10
23.082281
20
9.238290
30
0.0
10
22.890042
20
8.499175
30
0.0
10
22.382077
20
7.960610
30
0.0
10
22.308297
20
7.904110
30
0.0
10
22.191768
20
7.832710
30
0.0
10
22.163498
20
7.745810
30
0.0
10
23.124685
20
5.422820
30
0.0
10
23.201225
20
5.394520
30
0.0
10
23.667684
20
5.643420
30
0.0
10
23.769043
20
5.640420
30
0.0
10
24.826073
20
4.914690
30
0.0
10
24.918123
20
4.923690
30
0.0
10
25.888273
20
5.893490
30
0.0
10
25.896873
20
5.985890
30
0.0
10
25.158055
20
7.061880
30
0.0
10
25.150455
20
7.165660
30
0.0
10
25.556580
20
8.179250
30
0.0
10
25.633460
20
8.247850
30
0.0
10
26.933544
20
8.489520
30
0.0
10
26.992844
20
8.560920
30
0.0
10
26.992844
20
9.932710
30
0.0
10
26.933894
20
10.004110
30
0.0
10
25.601057
20
10.251990
30
0.0
10
25.522107
20
10.319890
30
0.0
10
25.113568
20
11.272790
30
0.0
10
25.120168
20
11.375880
30
0.0
10
25.896909
20
12.507720
30
0.0
10
25.888309
20
12.599720
30
0.0
10
24.918159
20
13.569870
30
0.0
10
24.826449
20
13.578870
30
0.0
10
23.674610
20
12.788340
30
0.0
10
23.570838
20
12.780340
30
0.0
10
22.646886
20
13.158880
30
0.0
10
22.578966
20
13.236780
30
0.0
10
22.322121
20
14.615460
30
0.0
10
22.251101
20
14.674460
30
0.0
10
20.879279
20
14.674820
30
0.0
62
0
0
LWPOLYLINE
100
AcDbPolyline
8
Layer_1
90
10
70
0
10
15.182830
20
3.789750
30
0.0
10
14.740505
20
3.602890
30
0.0
10
14.582605
20
3.045760
30
0.0
10
14.740505
20
2.485880
30
0.0
10
15.182830
20
2.299360
30
0.0
10
15.624811
20
2.485880
30
0.0
10
15.783055
20
3.045760
30
0.0
10
15.624811
20
3.602890
30
0.0
10
15.182830
20
3.789750
30
0.0
10
15.182830
20
3.789750
30
0.0
62
0
0
LWPOLYLINE
100
AcDbPolyline
8
Layer_1
90
24
70
0
10
16.701837
20
3.789750
30
0.0
10
16.325705
20
3.620120
30
0.0
10
16.325705
20
3.772510
30
0.0
10
16.031626
20
3.772510
30
0.0
10
16.031626
20
0.017050
30
0.0
10
16.324671
20
0.017050
30
0.0
10
16.324671
20
0.884120
30
0.0
10
16.407190
20
1.114985
30
0.0
10
16.614613
20
1.197170
30
0.0
10
16.819593
20
1.114985
30
0.0
10
16.901797
20
0.884120
30
0.0
10
16.901797
20
0.017050
30
0.0
10
17.194497
20
0.017050
30
0.0
10
17.194497
20
0.984780
30
0.0
10
17.037033
20
1.361308
30
0.0
10
16.709422
20
1.490200
30
0.0
10
16.324671
20
1.317840
30
0.0
10
16.325671
20
2.471740
30
0.0
10
16.701803
20
2.299360
30
0.0
10
17.092415
20
2.488970
30
0.0
10
17.195842
20
3.043000
30
0.0
10
17.092415
20
3.600140
30
0.0
10
16.701803
20
3.789750
30
0.0
10
16.701837
20
3.789750
30
0.0
62
0
0
LWPOLYLINE
100
AcDbPolyline
8
Layer_1
90
15
70
0
10
17.993648
20
3.789750
30
0.0
10
17.587969
20
3.627104
30
0.0
10
17.393423
20
3.040250
30
0.0
10
17.604480
20
2.445870
30
0.0
10
18.039502
20
2.299360
30
0.0
10
18.564913
20
2.534830
30
0.0
10
18.352197
20
2.715480
30
0.0
10
18.033640
20
2.574830
30
0.0
10
17.784477
20
2.665056
30
0.0
10
17.686123
20
2.934060
30
0.0
10
18.593529
20
2.934060
30
0.0
10
18.593529
20
3.175050
30
0.0
10
18.414175
20
3.623505
30
0.0
10
17.993648
20
3.789750
30
0.0
10
17.993648
20
3.789750
30
0.0
62
0
0
LWPOLYLINE
100
AcDbPolyline
8
Layer_1
90
18
70
0
10
19.521274
20
3.789750
30
0.0
10
19.142384
20
3.617370
30
0.0
10
19.136484
20
3.617370
30
0.0
10
19.136484
20
3.772510
30
0.0
10
18.843439
20
3.772510
30
0.0
10
18.843439
20
2.316600
30
0.0
10
19.136484
20
2.316600
30
0.0
10
19.136484
20
3.183670
30
0.0
10
19.219004
20
3.414521
30
0.0
10
19.426427
20
3.496700
30
0.0
10
19.631406
20
3.414521
30
0.0
10
19.713610
20
3.183670
30
0.0
10
19.713610
20
2.316600
30
0.0
10
20.006310
20
2.316600
30
0.0
10
20.006310
20
3.284340
30
0.0
10
19.848846
20
3.660911
30
0.0
10
19.521235
20
3.789750
30
0.0
10
19.521274
20
3.789750
30
0.0
62
0
0
LWPOLYLINE
100
AcDbPolyline
8
Layer_1
90
10
70
0
10
22.808548
20
3.789750
30
0.0
10
22.366222
20
3.602890
30
0.0
10
22.208323
20
3.045760
30
0.0
10
22.366222
20
2.485880
30
0.0
10
22.808548
20
2.299360
30
0.0
10
23.250873
20
2.485880
30
0.0
10
23.408428
20
3.045760
30
0.0
10
23.250873
20
3.602890
30
0.0
10
22.808548
20
3.789750
30
0.0
10
22.808548
20
3.789750
30
0.0
62
0
0
LWPOLYLINE
100
AcDbPolyline
8
Layer_1
90
14
70
0
10
25.820360
20
3.789750
30
0.0
10
25.441126
20
3.617370
30
0.0
10
25.435626
20
3.617370
30
0.0
10
25.435626
20
3.772510
30
0.0
10
25.142581
20
3.772510
30
0.0
10
25.142581
20
2.316600
30
0.0
10
25.435626
20
2.316600
30
0.0
10
25.435626
20
3.192280
30
0.0
10
25.523789
20
3.424181
30
0.0
10
25.719707
20
3.496700
30
0.0
10
25.912427
20
3.425000
30
0.0
10
26.124798
20
3.677700
30
0.0
10
25.820376
20
3.789750
30
0.0
10
25.820360
20
3.789750
30
0.0
62
0
0
LWPOLYLINE
100
AcDbPolyline
8
Layer_1
90
16
70
0
10
26.750174
20
3.789750
30
0.0
10
26.294100
20
3.616793
30
0.0
10
26.089962
20
3.043350
30
0.0
10
26.294100
20
2.472046
30
0.0
10
26.750174
20
2.299360
30
0.0
10
27.272829
20
2.552070
30
0.0
10
27.057355
20
2.744440
30
0.0
10
26.761897
20
2.592060
30
0.0
10
26.482919
20
2.699213
30
0.0
10
26.382662
20
3.043350
30
0.0
10
26.482888
20
3.389511
30
0.0
10
26.761897
20
3.496700
30
0.0
10
27.057355
20
3.344670
30
0.0
10
27.272829
20
3.537040
30
0.0
10
26.750174
20
3.789750
30
0.0
10
26.750174
20
3.789750
30
0.0
62
0
0
LWPOLYLINE
100
AcDbPolyline
8
Layer_1
90
15
70
0
10
27.947521
20
3.789750
30
0.0
10
27.541812
20
3.627104
30
0.0
10
27.347296
20
3.040250
30
0.0
10
27.558323
20
2.445870
30
0.0
10
27.993374
20
2.299360
30
0.0
10
28.518786
20
2.534830
30
0.0
10
28.306416
20
2.715480
30
0.0
10
27.987858
20
2.574830
30
0.0
10
27.738696
20
2.665056
30
0.0
10
27.640342
20
2.934060
30
0.0
10
28.547747
20
2.934060
30
0.0
10
28.547747
20
3.175050
30
0.0
10
28.368160
20
3.623505
30
0.0
10
27.947521
20
3.789750
30
0.0
10
27.947521
20
3.789750
30
0.0
62
0
0
LWPOLYLINE
100
AcDbPolyline
8
Layer_1
90
24
70
0
10
21.435719
20
3.789400
30
0.0
10
21.049189
20
3.676401
30
0.0
10
20.893069
20
3.341560
30
0.0
10
21.012258
20
3.048773
30
0.0
10
21.312295
20
2.928200
30
0.0
10
21.570864
20
2.905100
30
0.0
10
21.748760
20
2.761680
30
0.0
10
21.667590
20
2.621941
30
0.0
10
21.461575
20
2.574820
30
0.0
10
21.002357
20
2.761680
30
0.0
10
20.798260
20
2.560680
30
0.0
10
21.438822
20
2.299350
30
0.0
10
21.867376
20
2.416639
30
0.0
10
22.041804
20
2.747190
30
0.0
10
21.943746
20
3.045053
30
0.0
10
21.619476
20
3.183660
30
0.0
10
21.378489
20
3.200860
30
0.0
10
21.186114
20
3.338770
30
0.0
10
21.240955
20
3.463979
30
0.0
10
21.435719
20
3.513910
30
0.0
10
21.826330
20
3.378750
30
0.0
10
22.007329
20
3.591130
30
0.0
10
21.435719
20
3.789360
30
0.0
10
21.435719
20
3.789400
30
0.0
62
0
0
LWPOLYLINE
100
AcDbPolyline
8
Layer_1
90
17
70
0
10
23.658723
20
3.772500
30
0.0
10
23.658723
20
2.804770
30
0.0
10
23.816675
20
2.428250
30
0.0
10
24.146902
20
2.299350
30
0.0
10
24.523033
20
2.471730
30
0.0
10
24.528533
20
2.471730
30
0.0
10
24.528533
20
2.316590
30
0.0
10
24.821234
20
2.316590
30
0.0
10
24.821234
20
3.772500
30
0.0
10
24.528533
20
3.772500
30
0.0
10
24.528533
20
2.905430
30
0.0
10
24.446360
20
2.674635
30
0.0
10
24.241349
20
2.592400
30
0.0
10
24.033957
20
2.674635
30
0.0
10
23.951407
20
2.905430
30
0.0
10
23.951407
20
3.772500
30
0.0
10
23.658723
20
3.772500
30
0.0
62
0
0
LWPOLYLINE
100
AcDbPolyline
8
Layer_1
90
7
70
0
10
17.993648
20
3.513940
30
0.0
10
18.208626
20
3.427466
30
0.0
10
18.300827
20
3.175040
30
0.0
10
17.686123
20
3.175040
30
0.0
10
17.777412
20
3.427466
30
0.0
10
17.993648
20
3.513940
30
0.0
10
17.993648
20
3.513940
30
0.0
62
0
0
LWPOLYLINE
100
AcDbPolyline
8
Layer_1
90
7
70
0
10
27.947521
20
3.513940
30
0.0
10
28.162469
20
3.427466
30
0.0
10
28.254702
20
3.175040
30
0.0
10
27.640342
20
3.175040
30
0.0
10
27.731459
20
3.427466
30
0.0
10
27.947521
20
3.513940
30
0.0
10
27.947521
20
3.513940
30
0.0
62
0
0
LWPOLYLINE
100
AcDbPolyline
8
Layer_1
90
10
70
0
10
15.182830
20
3.497040
30
0.0
10
15.418300
20
3.390510
30
0.0
10
15.490010
20
3.043330
30
0.0
10
15.418300
20
2.698560
30
0.0
10
15.182830
20
2.592390
30
0.0
10
14.947360
20
2.698560
30
0.0
10
14.875300
20
3.046090
30
0.0
10
14.947360
20
3.390510
30
0.0
10
15.182830
20
3.497040
30
0.0
10
15.182830
20
3.497040
30
0.0
62
0
0
LWPOLYLINE
100
AcDbPolyline
8
Layer_1
90
10
70
0
10
22.808548
20
3.497040
30
0.0
10
23.044019
20
3.390510
30
0.0
10
23.115729
20
3.043330
30
0.0
10
23.044019
20
2.698560
30
0.0
10
22.808548
20
2.592390
30
0.0
10
22.573078
20
2.698560
30
0.0
10
22.501368
20
3.046090
30
0.0
10
22.573078
20
3.390510
30
0.0
10
22.808548
20
3.497040
30
0.0
10
22.808548
20
3.497040
30
0.0
62
0
0
LWPOLYLINE
100
AcDbPolyline
8
Layer_1
90
10
70
0
10
16.612889
20
3.496680
30
0.0
10
16.861238
20
3.354936
30
0.0
10
16.902831
20
3.042980
30
0.0
10
16.861237
20
2.733533
30
0.0
10
16.612889
20
2.592040
30
0.0
10
16.366984
20
2.738888
30
0.0
10
16.325705
20
3.042980
30
0.0
10
16.367014
20
3.349521
30
0.0
10
16.612889
20
3.496680
30
0.0
10
16.612889
20
3.496680
30
0.0
62
0
0
LWPOLYLINE
100
AcDbPolyline
8
Layer_1
90
12
70
0
10
20.752408
20
2.061800
30
0.0
10
20.752408
20
1.317820
30
0.0
10
20.376276
20
1.490180
30
0.0
10
19.985664
20
1.300570
30
0.0
10
19.882236
20
0.746200
30
0.0
10
19.985664
20
0.189420
30
0.0
10
20.376276
20
-0.000200
30
0.0
10
20.752408
20
0.169080
30
0.0
10
20.752408
20
0.017030
30
0.0
10
21.045107
20
0.017030
30
0.0
10
21.045107
20
2.061800
30
0.0
10
20.752408
20
2.061800
30
0.0
62
0
0
LWPOLYLINE
100
AcDbPolyline
8
Layer_1
90
20
70
0
10
17.966757
20
1.490180
30
0.0
10
17.475476
20
1.277480
30
0.0
10
17.705430
20
1.102340
30
0.0
10
17.980891
20
1.214730
30
0.0
10
18.208769
20
1.172960
30
0.0
10
18.279453
20
1.027870
30
0.0
10
18.279453
20
0.875840
30
0.0
10
17.874706
20
0.875840
30
0.0
10
17.520494
20
0.747560
30
0.0
10
17.401008
20
0.444890
30
0.0
10
17.536344
20
0.127568
30
0.0
10
17.915043
20
-0.000200
30
0.0
10
18.273937
20
0.146310
30
0.0
10
18.279437
20
0.146310
30
0.0
10
18.279437
20
0.017030
30
0.0
10
18.572482
20
0.017030
30
0.0
10
18.572482
20
1.010620
30
0.0
10
18.404214
20
1.384973
30
0.0
10
17.966741
20
1.490180
30
0.0
10
17.966757
20
1.490180
30
0.0
62
0
0
LWPOLYLINE
100
AcDbPolyline
8
Layer_1
90
14
70
0
10
19.571954
20
1.490180
30
0.0
10
19.193063
20
1.317820
30
0.0
10
19.187163
20
1.317820
30
0.0
10
19.187163
20
1.472960
30
0.0
10
18.894117
20
1.472960
30
0.0
10
18.894117
20
0.017030
30
0.0
10
19.187163
20
0.017030
30
0.0
10
19.187163
20
0.893060
30
0.0
10
19.275528
20
1.124901
30
0.0
10
19.471589
20
1.197480
30
0.0
10
19.663964
20
1.125480
30
0.0
10
19.876336
20
1.378200
30
0.0
10
19.571914
20
1.490230
30
0.0
10
19.571954
20
1.490180
30
0.0
62
0
0
LWPOLYLINE
100
AcDbPolyline
8
Layer_1
90
20
70
0
10
23.852132
20
1.490180
30
0.0
10
23.361196
20
1.277480
30
0.0
10
23.590805
20
1.102340
30
0.0
10
23.866268
20
1.214730
30
0.0
10
24.094348
20
1.172960
30
0.0
10
24.165174
20
1.027870
30
0.0
10
24.165174
20
0.875840
30
0.0
10
23.760082
20
0.875840
30
0.0
10
23.405900
20
0.747560
30
0.0
10
23.286385
20
0.444890
30
0.0
10
23.421721
20
0.127568
30
0.0
10
23.800418
20
-0.000200
30
0.0
10
24.159313
20
0.146310
30
0.0
10
24.165213
20
0.146310
30
0.0
10
24.165213
20
0.017030
30
0.0
10
24.458258
20
0.017030
30
0.0
10
24.458258
20
1.010620
30
0.0
10
24.289788
20
1.384973
30
0.0
10
23.852171
20
1.490180
30
0.0
10
23.852132
20
1.490180
30
0.0
62
0
0
LWPOLYLINE
100
AcDbPolyline
8
Layer_1
90
14
70
0
10
25.457329
20
1.490180
30
0.0
10
25.078440
20
1.317820
30
0.0
10
25.072540
20
1.317820
30
0.0
10
25.072540
20
1.472960
30
0.0
10
24.779839
20
1.472960
30
0.0
10
24.779839
20
0.017030
30
0.0
10
25.072540
20
0.017030
30
0.0
10
25.072540
20
0.893060
30
0.0
10
25.160875
20
1.124901
30
0.0
10
25.356965
20
1.197480
30
0.0
10
25.549341
20
1.125480
30
0.0
10
25.761712
20
1.378200
30
0.0
10
25.457290
20
1.490230
30
0.0
10
25.457329
20
1.490180
30
0.0
62
0
0
LWPOLYLINE
100
AcDbPolyline
8
Layer_1
90
15
70
0
10
26.367492
20
1.490180
30
0.0
10
25.961844
20
1.327541
30
0.0
10
25.767267
20
0.740680
30
0.0
10
25.978294
20
0.146245
30
0.0
10
26.413346
20
-0.000200
30
0.0
10
26.938757
20
0.235280
30
0.0
10
26.726387
20
0.416260
30
0.0
10
26.407485
20
0.275610
30
0.0
10
26.158494
20
0.365726
30
0.0
10
26.060313
20
0.634500
30
0.0
10
26.967372
20
0.634500
30
0.0
10
26.967372
20
0.875840
30
0.0
10
26.788018
20
1.324055
30
0.0
10
26.367492
20
1.490180
30
0.0
10
26.367492
20
1.490180
30
0.0
62
0
0
LWPOLYLINE
100
AcDbPolyline
8
Layer_1
90
17
70
0
10
21.201972
20
1.472980
30
0.0
10
21.667053
20
0.017050
30
0.0
10
21.925621
20
0.017050
30
0.0
10
22.230043
20
1.036500
30
0.0
10
22.235543
20
1.036500
30
0.0
10
22.539965
20
0.017050
30
0.0
10
22.798534
20
0.017050
30
0.0
10
23.263614
20
1.472980
30
0.0
10
22.953332
20
1.472980
30
0.0
10
22.675110
20
0.453520
30
0.0
10
22.669210
20
0.453520
30
0.0
10
22.338932
20
1.472980
30
0.0
10
22.126560
20
1.472980
30
0.0
10
21.796282
20
0.453520
30
0.0
10
21.790382
20
0.453520
30
0.0
10
21.511817
20
1.472980
30
0.0
10
21.201972
20
1.472980
30
0.0
62
0
0
LWPOLYLINE
100
AcDbPolyline
8
Layer_1
90
7
70
0
10
26.367492
20
1.214750
30
0.0
10
26.582501
20
1.128218
30
0.0
10
26.674673
20
0.875860
30
0.0
10
26.060313
20
0.875860
30
0.0
10
26.151430
20
1.128218
30
0.0
10
26.367492
20
1.214750
30
0.0
10
26.367492
20
1.214750
30
0.0
62
0
0
LWPOLYLINE
100
AcDbPolyline
8
Layer_1
90
10
70
0
10
20.465223
20
1.197450
30
0.0
10
20.711128
20
1.050436
30
0.0
10
20.752408
20
0.746170
30
0.0
10
20.711129
20
0.439799
30
0.0
10
20.465223
20
0.292810
30
0.0
10
20.216875
20
0.434444
30
0.0
10
20.175282
20
0.746170
30
0.0
10
20.216876
20
1.055851
30
0.0
10
20.465223
20
1.197450
30
0.0
10
20.465223
20
1.197450
30
0.0
62
0
0
LWPOLYLINE
100
AcDbPolyline
8
Layer_1
90
9
70
0
10
17.929179
20
0.634470
30
0.0
10
18.279453
20
0.634470
30
0.0
10
18.279453
20
0.528280
30
0.0
10
18.207386
20
0.316824
30
0.0
10
17.952276
20
0.275580
30
0.0
10
17.740063
20
0.330874
30
0.0
10
17.676469
20
0.459330
30
0.0
10
17.929179
20
0.634470
30
0.0
10
17.929179
20
0.634470
30
0.0
62
0
0
LWPOLYLINE
100
AcDbPolyline
8
Layer_1
90
9
70
0
10
23.814900
20
0.634470
30
0.0
10
24.165174
20
0.634470
30
0.0
10
24.165174
20
0.528280
30
0.0
10
24.092933
20
0.316824
30
0.0
10
23.837653
20
0.275580
30
0.0
10
23.625643
20
0.330874
30
0.0
10
23.562192
20
0.459330
30
0.0
10
23.814900
20
0.634470
30
0.0
10
23.814900
20
0.634470
30
0.0
  0
ENDSEC
  0
SECTION
  2
OBJECTS
  0
DICTIONARY
  5
C
330
0
100
AcDbDictionary
  3
ACAD_GROUP
350
D
  3
ACAD_MLINESTYLE
350
17
  0
DICTIONARY
  5
D
330
C
100
AcDbDictionary
  0
DICTIONARY
  5
1A
330
C
100
AcDbDictionary
  0
DICTIONARY
  5
17
330
C
100
AcDbDictionary
  3
STANDARD
350
18
  0
DICTIONARY
  5
19
330
C
100
AcDbDictionary
  0
ENDSEC
  0
EOF
